<svg width="197" height="197" viewBox="0 0 197 197" fill="none" xmlns="http://www.w3.org/2000/svg">
<circle cx="98.0639" cy="98.064" r="74.2682" transform="rotate(-114.014 98.0639 98.064)" fill="#E74847"/>
<path d="M96.0539 80.8999C96.0189 81.5305 96.5005 82.0469 97.1396 82.1129L111.416 83.7186L80.8647 111.066C80.3923 111.489 80.3518 112.221 80.7746 112.694C81.1973 113.166 81.9297 113.207 82.402 112.784L112.954 85.4361L112.985 99.7932C113 100.437 113.42 100.97 114.051 101.005C114.681 101.04 115.28 100.542 115.284 99.9203C115.284 99.9203 115.427 82.9711 115.416 82.7869C115.406 82.6027 115.405 82.2557 115.126 81.9444C114.848 81.6331 114.484 81.5722 114.321 81.5632C114.158 81.5542 97.2776 79.8045 97.2776 79.8045C96.9725 79.7876 96.6702 79.9035 96.4448 80.1053C96.2193 80.3071 96.0815 80.5851 96.0539 80.8999Z" fill="black"/>
</svg>
