<svg width="164" height="162" viewBox="0 0 164 162" fill="none" xmlns="http://www.w3.org/2000/svg">
<path d="M13.2641 53.5468C13.3575 53.7846 13.4365 54.0413 13.5012 54.317C13.5682 54.5855 13.6103 54.8692 13.6274 55.1682C13.6469 55.4602 13.6343 55.7649 13.5895 56.0825C13.5519 56.4025 13.4775 56.7259 13.3663 57.0526C13.168 57.6349 12.892 58.1313 12.5383 58.5418C12.1775 58.9499 11.7686 59.2664 11.3117 59.4912C10.8501 59.7065 10.3535 59.8267 9.82191 59.8518C9.29035 59.8769 8.75116 59.7963 8.20434 59.6102C7.67883 59.4312 7.21316 59.1697 6.80732 58.8255C6.40389 58.4742 6.08622 58.0688 5.85429 57.6095C5.61527 57.1477 5.47257 56.6475 5.42619 56.1086C5.38223 55.5627 5.45575 55.0093 5.64675 54.4482C5.75796 54.1216 5.88315 53.8353 6.02232 53.5895C6.1568 53.3341 6.30533 53.1073 6.46792 52.9091C6.6305 52.7109 6.80956 52.5341 7.00508 52.3788C7.19592 52.2139 7.40565 52.0634 7.63426 51.9273L8.34205 53.0955C8.17297 53.1964 8.01333 53.3045 7.86314 53.4198C7.71295 53.5351 7.57809 53.6635 7.45857 53.8051C7.33195 53.9442 7.21703 54.1072 7.11383 54.2939C7.00594 54.4712 6.91211 54.677 6.83233 54.9113C6.71628 55.2522 6.67849 55.5959 6.71898 55.9425C6.75478 56.2796 6.85594 56.5994 7.02244 56.9017C7.19136 57.197 7.41385 57.4629 7.6899 57.6995C7.96836 57.929 8.28869 58.1055 8.65086 58.2288C9.03435 58.3593 9.40997 58.4198 9.77774 58.4103C10.1455 58.4008 10.4876 58.3271 10.804 58.1891C11.1157 58.0417 11.391 57.8382 11.6299 57.5788C11.8712 57.3123 12.0571 56.9873 12.1877 56.6038C12.3086 56.2487 12.3713 55.9016 12.3758 55.5623C12.3757 55.2136 12.3291 54.8966 12.236 54.6113L10.8406 54.1363L10.1914 56.043L9.05163 55.655L10.1323 52.4806L13.2641 53.5468Z" fill="#F0F0F0"/>
<path d="M11.3928 42.003L12.4979 42.5607L10.4903 46.5389L12.3187 47.4615L14.0981 43.9354L15.2032 44.4931L13.4237 48.0192L15.3124 48.9723L17.3453 44.9439L18.4504 45.5015L15.7939 50.7656L8.76168 47.2169L11.3928 42.003Z" fill="#F0F0F0"/>
<path d="M16.9267 35.7968L22.3829 39.4998L21.5994 40.6543L16.1432 36.9514L14.7403 39.0184L13.6789 38.2981L17.2681 33.0095L18.3295 33.7298L16.9267 35.7968Z" fill="#F0F0F0"/>
<path d="M24.9789 24.3624L25.9693 23.3955L31.472 29.0315L30.4817 29.9984L24.9789 24.3624Z" fill="#F0F0F0"/>
<path d="M38.2036 20.2915L34.8866 15.9718L35.9665 15.1426L40.7638 21.3901L39.8446 22.096L32.9866 20.2967L36.3995 24.7413L35.3196 25.5706L30.5223 19.3231L31.5398 18.5418L38.2036 20.2915Z" fill="#F0F0F0"/>
<path d="M50.0942 8.92045L52.8309 14.9198L51.5614 15.4989L48.8247 9.49954L46.5519 10.5363L46.0196 9.3692L51.8346 6.71657L52.367 7.88368L50.0942 8.92045Z" fill="#F0F0F0"/>
<path d="M64.4578 6.81797C64.6186 7.3493 64.6738 7.88124 64.6234 8.41381C64.573 8.94637 64.4262 9.4454 64.183 9.91089C63.9377 10.3692 63.606 10.7753 63.1879 11.1291C62.7699 11.4829 62.2701 11.7479 61.6885 11.9239C61.1069 12.0999 60.5452 12.1602 60.0032 12.1048C59.4591 12.0422 58.9615 11.8871 58.5104 11.6396C58.0593 11.3921 57.6651 11.0607 57.3278 10.6455C56.9905 10.2303 56.7414 9.75703 56.5806 9.2257C56.4198 8.69438 56.3646 8.16243 56.415 7.62986C56.4654 7.0973 56.6133 6.60186 56.8587 6.14355C57.1018 5.67806 57.4324 5.2684 57.8505 4.91457C58.2685 4.56074 58.7683 4.29581 59.3499 4.11978C59.9315 3.94375 60.4943 3.88704 61.0384 3.94966C61.5804 4.0051 62.0769 4.15657 62.528 4.40408C62.9791 4.65159 63.3734 4.98295 63.7107 5.39816C64.048 5.81337 64.297 6.28664 64.4578 6.81797ZM63.075 7.26003C62.9642 6.89384 62.7952 6.56876 62.5682 6.28477C62.3462 5.99143 62.0833 5.75747 61.7797 5.58289C61.4832 5.40613 61.1553 5.29377 60.7959 5.24579C60.4365 5.1978 60.0701 5.23032 59.6967 5.34333C59.3234 5.45633 59.0005 5.63245 58.728 5.87167C58.4605 6.10154 58.2525 6.37222 58.1038 6.68372C57.9529 6.98803 57.8628 7.32489 57.8336 7.69429C57.8093 8.05434 57.8526 8.41746 57.9634 8.78365C58.0743 9.14983 58.2407 9.47959 58.4627 9.77293C58.6897 10.0569 58.9515 10.2873 59.248 10.464C59.5516 10.6386 59.8832 10.7499 60.2425 10.7979C60.6019 10.8459 60.9683 10.8134 61.3417 10.7003C61.715 10.5873 62.0354 10.4159 62.3029 10.186C62.5754 9.94681 62.787 9.67504 62.9379 9.37073C63.0866 9.05923 63.1731 8.72346 63.1973 8.36341C63.2266 7.99401 63.1858 7.62621 63.075 7.26003Z" fill="#F0F0F0"/>
<path d="M73.5145 1.43767L74.2028 5.85164C74.2929 6.4298 74.2906 6.95025 74.1957 7.413C74.1082 7.87459 73.9431 8.27617 73.7002 8.61773C73.4562 8.95189 73.1382 9.22545 72.7463 9.43842C72.3606 9.64282 71.912 9.7849 71.4005 9.86465C70.8965 9.94324 70.4297 9.94391 70 9.86665C69.5693 9.78197 69.1868 9.61763 68.8526 9.37363C68.5185 9.12963 68.2406 8.80852 68.0191 8.4103C67.7964 8.00466 67.6411 7.52018 67.5533 6.95685L66.8546 2.47616L68.2222 2.26292L68.9122 6.68801C69.0255 7.41441 69.2857 7.93946 69.6931 8.26316C70.1004 8.58686 70.6117 8.70074 71.2269 8.60481C71.8347 8.51003 72.2844 8.25388 72.5762 7.83636C72.8679 7.41884 72.9577 6.85059 72.8456 6.1316L72.1469 1.65092L73.5145 1.43767Z" fill="#F0F0F0"/>
<path d="M84.6631 7.70523C84.4651 7.92691 84.2553 8.12633 84.0339 8.30347C83.8198 8.47296 83.5866 8.62409 83.3342 8.75686C83.0817 8.88212 82.8023 8.97792 82.496 9.04427C82.1974 9.11796 81.8643 9.15859 81.4968 9.16617C80.9193 9.17809 80.3846 9.08407 79.8928 8.88412C79.4009 8.68417 78.9713 8.40791 78.6038 8.05532C78.2437 7.69508 77.9573 7.26955 77.7446 6.77871C77.5319 6.28788 77.4197 5.75745 77.4079 5.18744C77.3963 4.62492 77.4829 4.09415 77.6677 3.59511C77.86 3.09592 78.1324 2.65886 78.4848 2.28392C78.8371 1.90149 79.2585 1.60016 79.7492 1.37994C80.2397 1.15223 80.785 1.03218 81.385 1.0198C81.745 1.01238 82.0719 1.03565 82.3657 1.08962C82.6669 1.14343 82.9424 1.22403 83.1923 1.33143C83.4419 1.43133 83.6733 1.55411 83.8864 1.69979C84.0995 1.84546 84.3017 2.00636 84.4929 2.1825L83.6252 3.22461C83.3042 2.9386 82.9656 2.70923 82.6094 2.53649C82.2531 2.36376 81.85 2.28204 81.4 2.29132C81.025 2.29905 80.6778 2.38125 80.3584 2.53791C80.0463 2.68691 79.7766 2.89131 79.5494 3.15111C79.322 3.40342 79.148 3.69964 79.0275 4.03978C78.9069 4.37991 78.8507 4.74499 78.8587 5.135C78.8668 5.52501 78.9381 5.8912 79.0727 6.23358C79.2072 6.56846 79.3933 6.86101 79.6311 7.11122C79.8688 7.36143 80.1468 7.55828 80.4649 7.70179C80.7903 7.83764 81.1406 7.9017 81.5156 7.89396C81.9956 7.88406 82.4062 7.78555 82.7475 7.59843C83.0887 7.40381 83.4248 7.14551 83.7558 6.82354L84.6631 7.70523Z" fill="#F0F0F0"/>
<path d="M93.0323 6.57097L89.3003 6.12629L88.9076 9.42251L87.5332 9.25876L88.4652 1.4372L89.8395 1.60096L89.4521 4.85249L93.1841 5.29717L93.5715 2.04564L94.9459 2.2094L94.0139 10.031L92.6395 9.86719L93.0323 6.57097Z" fill="#F0F0F0"/>
<path d="M99.1775 11.2394L97.721 10.8952L98.0755 9.39491L99.532 9.73907L99.1775 11.2394Z" fill="#F0F0F0"/>
<path d="M116.696 16.5817C116.421 16.6941 116.145 16.7814 115.868 16.8436C115.601 16.902 115.326 16.9356 115.041 16.9443C114.759 16.9462 114.466 16.9099 114.161 16.8353C113.86 16.7706 113.543 16.6611 113.21 16.5068C112.685 16.2644 112.246 15.9455 111.892 15.5502C111.537 15.1549 111.272 14.7183 111.096 14.2403C110.931 13.7587 110.86 13.2507 110.884 12.7162C110.908 12.1818 111.039 11.6559 111.279 11.1384C111.515 10.6277 111.825 10.1886 112.21 9.82108C112.602 9.45669 113.038 9.18324 113.519 9.00073C114.003 8.81141 114.514 8.72532 115.052 8.74248C115.593 8.75282 116.135 8.88393 116.68 9.13582C117.007 9.28695 117.29 9.45115 117.531 9.62842C117.778 9.80883 117.99 10.0021 118.168 10.2081C118.348 10.4073 118.503 10.6191 118.63 10.8435C118.758 11.0678 118.869 11.301 118.964 11.5432L117.727 12.0995C117.564 11.7017 117.36 11.3471 117.116 11.0357C116.871 10.7243 116.545 10.4741 116.136 10.2852C115.796 10.1278 115.448 10.0495 115.092 10.0503C114.746 10.0474 114.414 10.1129 114.096 10.2468C113.781 10.3739 113.495 10.5639 113.237 10.8168C112.98 11.0697 112.769 11.3732 112.606 11.7272C112.442 12.0813 112.345 12.4417 112.316 12.8084C112.29 13.1684 112.329 13.5129 112.433 13.842C112.538 14.1711 112.701 14.4699 112.924 14.7383C113.157 15.0031 113.444 15.2142 113.784 15.3716C114.22 15.5731 114.632 15.6646 115.021 15.646C115.413 15.6206 115.828 15.5358 116.267 15.3915L116.696 16.5817Z" fill="#F0F0F0"/>
<path d="M127.365 20.1883C127.064 20.6549 126.694 21.0415 126.256 21.348C125.817 21.6546 125.342 21.8659 124.83 21.9821C124.322 22.0921 123.798 22.1024 123.257 22.013C122.717 21.9237 122.191 21.7145 121.681 21.3854C121.17 21.0563 120.76 20.6673 120.451 20.2185C120.147 19.7634 119.942 19.2838 119.839 18.7798C119.735 18.2758 119.732 17.7608 119.83 17.2349C119.928 16.709 120.127 16.2127 120.428 15.746C120.729 15.2794 121.098 14.8928 121.537 14.5863C121.975 14.2797 122.448 14.0715 122.956 13.9616C123.469 13.8454 123.995 13.8319 124.535 13.9213C125.076 14.0106 125.601 14.2198 126.112 14.5489C126.623 14.878 127.031 15.2702 127.335 15.7253C127.644 16.1741 127.85 16.6505 127.954 17.1545C128.057 17.6585 128.06 18.1735 127.962 18.6994C127.864 19.2253 127.665 19.7216 127.365 20.1883ZM126.132 19.421C126.339 19.0994 126.478 18.7601 126.547 18.4032C126.627 18.044 126.635 17.6923 126.571 17.3478C126.514 17.0075 126.387 16.6848 126.191 16.3799C125.994 16.075 125.732 15.8169 125.404 15.6057C125.076 15.3944 124.733 15.2624 124.374 15.2098C124.026 15.1549 123.685 15.1717 123.351 15.2601C123.022 15.3423 122.707 15.4918 122.406 15.7088C122.116 15.9235 121.868 16.1917 121.661 16.5133C121.453 16.8349 121.31 17.1753 121.23 17.5345C121.161 17.8914 121.155 18.24 121.212 18.5804C121.276 18.9248 121.406 19.2495 121.602 19.5544C121.798 19.8593 122.06 20.1174 122.388 20.3286C122.716 20.5399 123.054 20.673 123.403 20.7279C123.761 20.7805 124.106 20.7658 124.435 20.6836C124.769 20.5952 125.081 20.4436 125.371 20.2289C125.671 20.0119 125.925 19.7426 126.132 19.421Z" fill="#F0F0F0"/>
<path d="M132.915 27.01L136.493 22.9036L137.519 23.7981L132.345 29.737L131.471 28.9756L131.877 21.8972L128.196 26.1223L127.169 25.2278L132.344 19.2889L133.311 20.1316L132.915 27.01Z" fill="#F0F0F0"/>
<path d="M141.954 30.5885L136.997 34.9366L136.077 33.8876L141.034 29.5395L139.387 27.6614L140.351 26.8155L144.566 31.6207L143.601 32.4665L141.954 30.5885Z" fill="#F0F0F0"/>
<path d="M149.312 38.3578L144.619 45.6324L143.81 44.4136L144.953 42.6963L142.893 39.593L140.861 39.9696L140.077 38.7882L148.603 37.2889L149.312 38.3578ZM145.695 41.5961L147.567 38.7193L144.195 39.3366L145.695 41.5961Z" fill="#F0F0F0"/>
<path d="M149.998 53.9348C149.715 53.8461 149.446 53.7375 149.193 53.6091C148.951 53.4842 148.717 53.3343 148.491 53.1593C148.273 52.9812 148.07 52.7663 147.883 52.5149C147.693 52.2734 147.518 51.9869 147.359 51.6554C147.11 51.1345 146.974 50.6087 146.953 50.0782C146.932 49.5477 147.006 49.0423 147.175 48.562C147.354 48.0852 147.623 47.6485 147.982 47.252C148.341 46.8554 148.778 46.5339 149.292 46.2876C149.8 46.0446 150.319 45.904 150.849 45.866C151.384 45.8348 151.894 45.9022 152.381 46.0681C152.875 46.2308 153.324 46.49 153.727 46.8458C154.137 47.1984 154.472 47.6453 154.731 48.1865C154.887 48.5113 155 48.8185 155.073 49.1083C155.148 49.4049 155.189 49.6891 155.194 49.961C155.206 50.2296 155.19 50.491 155.146 50.7453C155.101 50.9995 155.038 51.2501 154.957 51.4971L153.649 51.1377C153.777 50.7272 153.846 50.324 153.856 49.9283C153.866 49.5325 153.774 49.1316 153.579 48.7257C153.417 48.3874 153.199 48.1052 152.924 47.8791C152.66 47.6566 152.362 47.4955 152.032 47.396C151.708 47.2932 151.366 47.2572 151.007 47.288C150.647 47.3188 150.291 47.4185 149.94 47.5871C149.588 47.7556 149.284 47.9719 149.028 48.236C148.778 48.4969 148.589 48.7872 148.459 49.1072C148.33 49.4271 148.265 49.7615 148.266 50.1105C148.277 50.463 148.363 50.8084 148.525 51.1467C148.733 51.5797 148.992 51.9129 149.304 52.1463C149.622 52.3765 149.996 52.5758 150.426 52.7441L149.998 53.9348Z" fill="#F0F0F0"/>
<path d="M157.064 58.3346L150.801 60.3953L150.365 59.0699L156.628 57.0092L155.848 54.6362L157.066 54.2353L159.064 60.3067L157.845 60.7076L157.064 58.3346Z" fill="#F0F0F0"/>
<path d="M149.631 107.89C149.538 107.652 149.459 107.396 149.394 107.12C149.327 106.852 149.285 106.568 149.268 106.269C149.248 105.977 149.261 105.672 149.306 105.354C149.343 105.034 149.418 104.711 149.529 104.384C149.727 103.802 150.003 103.306 150.357 102.895C150.718 102.487 151.127 102.171 151.583 101.946C152.045 101.73 152.542 101.61 153.073 101.585C153.605 101.56 154.144 101.641 154.691 101.827C155.216 102.006 155.682 102.267 156.088 102.612C156.491 102.963 156.809 103.368 157.041 103.828C157.28 104.289 157.423 104.79 157.469 105.328C157.513 105.874 157.439 106.428 157.248 106.989C157.137 107.315 157.012 107.602 156.873 107.848C156.738 108.103 156.59 108.33 156.427 108.528C156.265 108.726 156.086 108.903 155.89 109.058C155.699 109.223 155.489 109.374 155.261 109.51L154.553 108.342C154.722 108.241 154.882 108.133 155.032 108.017C155.182 107.902 155.317 107.774 155.437 107.632C155.563 107.493 155.678 107.33 155.781 107.143C155.889 106.966 155.983 106.76 156.063 106.526C156.179 106.185 156.217 105.841 156.176 105.494C156.14 105.157 156.039 104.838 155.873 104.535C155.704 104.24 155.481 103.974 155.205 103.737C154.927 103.508 154.606 103.332 154.244 103.208C153.861 103.078 153.485 103.017 153.117 103.027C152.75 103.036 152.408 103.11 152.091 103.248C151.779 103.395 151.504 103.599 151.265 103.858C151.024 104.125 150.838 104.45 150.707 104.833C150.587 105.188 150.524 105.535 150.519 105.875C150.519 106.223 150.566 106.54 150.659 106.826L152.055 107.301L152.704 105.394L153.844 105.782L152.763 108.956L149.631 107.89Z" fill="#F0F0F0"/>
<path d="M151.502 119.434L150.397 118.877L152.405 114.898L150.576 113.976L148.797 117.502L147.692 116.944L149.471 113.418L147.583 112.465L145.55 116.493L144.445 115.936L147.101 110.672L154.133 114.22L151.502 119.434Z" fill="#F0F0F0"/>
<path d="M145.969 125.64L140.512 121.937L141.296 120.783L146.752 124.486L148.155 122.419L149.216 123.139L145.627 128.428L144.566 127.707L145.969 125.64Z" fill="#F0F0F0"/>
<path d="M137.916 137.075L136.926 138.042L131.423 132.406L132.414 131.439L137.916 137.075Z" fill="#F0F0F0"/>
<path d="M124.692 141.146L128.009 145.465L126.929 146.295L122.131 140.047L123.051 139.341L129.909 141.141L126.496 136.696L127.576 135.867L132.373 142.114L131.355 142.895L124.692 141.146Z" fill="#F0F0F0"/>
<path d="M112.801 152.517L110.064 146.518L111.334 145.939L114.07 151.938L116.343 150.901L116.875 152.069L111.06 154.721L110.528 153.554L112.801 152.517Z" fill="#F0F0F0"/>
<path d="M98.4372 154.619C98.2764 154.088 98.2212 153.556 98.2716 153.023C98.322 152.491 98.4688 151.992 98.712 151.526C98.9573 151.068 99.289 150.662 99.7071 150.308C100.125 149.954 100.625 149.689 101.207 149.513C101.788 149.337 102.35 149.277 102.892 149.332C103.436 149.395 103.933 149.55 104.385 149.797C104.836 150.045 105.23 150.376 105.567 150.792C105.905 151.207 106.154 151.68 106.314 152.211C106.475 152.743 106.53 153.275 106.48 153.807C106.43 154.34 106.282 154.835 106.036 155.293C105.793 155.759 105.463 156.169 105.045 156.522C104.627 156.876 104.127 157.141 103.545 157.317C102.964 157.493 102.401 157.55 101.857 157.487C101.315 157.432 100.818 157.28 100.367 157.033C99.9159 156.785 99.5217 156.454 99.1844 156.039C98.8471 155.624 98.598 155.15 98.4372 154.619ZM99.82 154.177C99.9309 154.543 100.1 154.868 100.327 155.152C100.549 155.446 100.812 155.68 101.115 155.854C101.412 156.031 101.74 156.143 102.099 156.191C102.459 156.239 102.825 156.207 103.198 156.094C103.572 155.981 103.895 155.805 104.167 155.565C104.434 155.335 104.643 155.065 104.791 154.753C104.942 154.449 105.032 154.112 105.061 153.743C105.086 153.383 105.042 153.02 104.932 152.653C104.821 152.287 104.654 151.957 104.432 151.664C104.205 151.38 103.944 151.15 103.647 150.973C103.343 150.798 103.012 150.687 102.652 150.639C102.293 150.591 101.927 150.624 101.553 150.737C101.18 150.85 100.86 151.021 100.592 151.251C100.32 151.49 100.108 151.762 99.9571 152.066C99.8084 152.378 99.722 152.714 99.6977 153.074C99.6684 153.443 99.7092 153.811 99.82 154.177Z" fill="#F0F0F0"/>
<path d="M89.3805 160L88.6922 155.586C88.6021 155.007 88.6045 154.487 88.6993 154.024C88.7868 153.563 88.9519 153.161 89.1948 152.82C89.4388 152.485 89.7568 152.212 90.1487 151.999C90.5345 151.794 90.983 151.652 91.4945 151.573C91.9985 151.494 92.4653 151.493 92.895 151.571C93.3258 151.655 93.7082 151.82 94.0424 152.064C94.3765 152.308 94.6544 152.629 94.8759 153.027C95.0986 153.433 95.2539 153.917 95.3417 154.48L96.0404 158.961L94.6729 159.174L93.9828 154.749C93.8696 154.023 93.6093 153.498 93.202 153.174C92.7946 152.85 92.2834 152.737 91.6681 152.832C91.0603 152.927 90.6106 153.183 90.3188 153.601C90.0271 154.018 89.9373 154.587 90.0494 155.306L90.7481 159.786L89.3805 160Z" fill="#F0F0F0"/>
<path d="M78.232 153.732C78.4301 153.51 78.6398 153.311 78.8612 153.134C79.0753 152.964 79.3086 152.813 79.561 152.68C79.8135 152.555 80.0929 152.459 80.3992 152.393C80.6978 152.319 81.0308 152.278 81.3983 152.271C81.9759 152.259 82.5105 152.353 83.0024 152.553C83.4942 152.753 83.9239 153.029 84.2913 153.382C84.6514 153.742 84.9378 154.167 85.1505 154.658C85.3632 155.149 85.4755 155.68 85.4872 156.25C85.4988 156.812 85.4122 157.343 85.2274 157.842C85.0351 158.341 84.7628 158.778 84.4104 159.153C84.0581 159.536 83.6366 159.837 83.1459 160.057C82.6554 160.285 82.1101 160.405 81.5101 160.417C81.1501 160.425 80.8232 160.401 80.5295 160.347C80.2282 160.294 79.9527 160.213 79.7029 160.106C79.4532 160.006 79.2218 159.883 79.0087 159.737C78.7956 159.592 78.5935 159.431 78.4022 159.255L79.2699 158.212C79.5909 158.498 79.9296 158.728 80.2858 158.901C80.642 159.073 81.0451 159.155 81.4951 159.146C81.8702 159.138 82.2174 159.056 82.5368 158.899C82.8488 158.75 83.1185 158.546 83.3457 158.286C83.5731 158.034 83.7471 157.737 83.8677 157.397C83.9882 157.057 84.0445 156.692 84.0364 156.302C84.0284 155.912 83.957 155.546 83.8224 155.203C83.6879 154.869 83.5018 154.576 83.2641 154.326C83.0263 154.076 82.7484 153.879 82.4303 153.735C82.1048 153.599 81.7546 153.535 81.3796 153.543C80.8996 153.553 80.4889 153.651 80.1476 153.839C79.8065 154.033 79.4704 154.292 79.1394 154.613L78.232 153.732Z" fill="#F0F0F0"/>
<path d="M69.8628 154.866L73.5948 155.311L73.9876 152.014L75.3619 152.178L74.43 160L73.0556 159.836L73.4431 156.585L69.7111 156.14L69.3236 159.391L67.9493 159.228L68.8812 151.406L70.2556 151.57L69.8628 154.866Z" fill="#F0F0F0"/>
<path d="M63.7175 150.198L65.174 150.542L64.8195 152.042L63.363 151.698L63.7175 150.198Z" fill="#F0F0F0"/>
<path d="M46.1993 144.856C46.4745 144.743 46.7504 144.656 47.0271 144.594C47.2938 144.535 47.5697 144.502 47.8547 144.493C48.1366 144.491 48.4298 144.528 48.7341 144.602C49.0348 144.667 49.352 144.776 49.6856 144.931C50.2099 145.173 50.6493 145.492 51.0037 145.887C51.3581 146.283 51.6232 146.719 51.7989 147.197C51.9647 147.679 52.0356 148.187 52.0116 148.721C51.9876 149.256 51.856 149.782 51.6167 150.299C51.3806 150.81 51.0701 151.249 50.6852 151.616C50.2936 151.981 49.8572 152.254 49.3761 152.437C48.8918 152.626 48.3809 152.712 47.8434 152.695C47.3027 152.685 46.7599 152.554 46.2152 152.302C45.8884 152.151 45.6048 151.986 45.3644 151.809C45.1172 151.629 44.9049 151.435 44.7274 151.229C44.5468 151.03 44.3927 150.818 44.265 150.594C44.1373 150.37 44.0261 150.136 43.9315 149.894L45.1681 149.338C45.3313 149.736 45.5351 150.09 45.7796 150.402C46.0241 150.713 46.3506 150.963 46.7591 151.152C47.0996 151.31 47.4477 151.388 47.8034 151.387C48.1492 151.39 48.4812 151.325 48.7993 151.191C49.1143 151.064 49.4005 150.874 49.658 150.621C49.9154 150.368 50.126 150.064 50.2897 149.71C50.4534 149.356 50.5498 148.996 50.5789 148.629C50.6049 148.269 50.5658 147.925 50.4618 147.595C50.3577 147.266 50.1942 146.968 49.9712 146.699C49.7383 146.434 49.4515 146.223 49.1111 146.066C48.6753 145.864 48.263 145.773 47.8742 145.792C47.4823 145.817 47.067 145.902 46.6284 146.046L46.1993 144.856Z" fill="#F0F0F0"/>
<path d="M35.531 141.249C35.8316 140.782 36.2012 140.396 36.6396 140.089C37.078 139.783 37.5533 139.571 38.0655 139.455C38.5736 139.345 39.0978 139.335 39.6381 139.424C40.1785 139.514 40.7041 139.723 41.2149 140.052C41.7257 140.381 42.1355 140.77 42.4442 141.219C42.7489 141.674 42.9531 142.153 43.0567 142.657C43.1603 143.161 43.1631 143.676 43.0653 144.202C42.9674 144.728 42.7681 145.225 42.4674 145.691C42.1668 146.158 41.7972 146.544 41.3588 146.851C40.9204 147.158 40.4471 147.366 39.939 147.476C39.4269 147.592 38.9006 147.605 38.3603 147.516C37.8199 147.427 37.2943 147.217 36.7835 146.888C36.2727 146.559 35.865 146.167 35.5603 145.712C35.2515 145.263 35.0453 144.787 34.9417 144.283C34.8381 143.779 34.8353 143.264 34.9331 142.738C35.031 142.212 35.2303 141.716 35.531 141.249ZM36.7634 142.016C36.5562 142.338 36.4179 142.677 36.3486 143.034C36.2689 143.393 36.2609 143.745 36.3246 144.089C36.3819 144.43 36.5087 144.752 36.7049 145.057C36.9011 145.362 37.1632 145.62 37.4911 145.832C37.8191 146.043 38.1624 146.175 38.5211 146.227C38.8695 146.282 39.2105 146.266 39.5441 146.177C39.8737 146.095 40.1887 145.945 40.4891 145.728C40.7791 145.514 41.0278 145.246 41.235 144.924C41.4422 144.602 41.5856 144.262 41.6653 143.903C41.7347 143.546 41.7406 143.197 41.6833 142.857C41.6196 142.512 41.4897 142.188 41.2935 141.883C41.0973 141.578 40.8352 141.32 40.5073 141.109C40.1793 140.897 39.8412 140.764 39.4928 140.709C39.1341 140.657 38.7899 140.671 38.4604 140.754C38.1267 140.842 37.8149 140.994 37.5249 141.208C37.2244 141.425 36.9706 141.695 36.7634 142.016Z" fill="#F0F0F0"/>
<path d="M29.9804 134.427L26.4026 138.533L25.376 137.639L30.5505 131.7L31.4243 132.461L31.018 139.54L34.6992 135.315L35.7258 136.209L30.5514 142.148L29.5842 141.305L29.9804 134.427Z" fill="#F0F0F0"/>
<path d="M20.941 130.849L25.8984 126.5L26.8185 127.549L21.8611 131.898L23.5083 133.776L22.5439 134.621L18.3294 129.816L19.2938 128.97L20.941 130.849Z" fill="#F0F0F0"/>
<path d="M13.5826 123.08L18.2758 115.805L19.0847 117.024L17.9421 118.741L20.0018 121.845L22.0343 121.468L22.8183 122.649L14.292 124.149L13.5826 123.08ZM17.2002 119.841L15.3279 122.718L18.6998 122.101L17.2002 119.841Z" fill="#F0F0F0"/>
<path d="M12.8967 107.502C13.1804 107.591 13.4487 107.699 13.7015 107.828C13.9444 107.953 14.1784 108.103 14.4036 108.278C14.622 108.456 14.8248 108.671 15.0118 108.922C15.2023 109.164 15.377 109.45 15.5358 109.782C15.7853 110.303 15.9207 110.828 15.9419 111.359C15.9631 111.889 15.8892 112.395 15.72 112.875C15.5408 113.352 15.2717 113.788 14.9127 114.185C14.5536 114.582 14.117 114.903 13.6029 115.149C13.0954 115.392 12.5763 115.533 12.0455 115.571C11.5115 115.602 11.0009 115.535 10.5139 115.369C10.02 115.206 9.57143 114.947 9.16809 114.591C8.75799 114.239 8.4233 113.792 8.16403 113.251C8.00846 112.926 7.89454 112.618 7.82227 112.329C7.74676 112.032 7.70627 111.748 7.7008 111.476C7.68857 111.207 7.70473 110.946 7.7493 110.692C7.79386 110.437 7.85682 110.187 7.93817 109.94L9.24573 110.299C9.11799 110.71 9.04909 111.113 9.03904 111.509C9.02899 111.905 9.1212 112.305 9.31565 112.711C9.4777 113.05 9.69606 113.332 9.97073 113.558C10.2354 113.78 10.533 113.942 10.8635 114.041C11.1872 114.144 11.5289 114.18 11.8884 114.149C12.2479 114.118 12.6036 114.018 12.9554 113.85C13.3072 113.681 13.6112 113.465 13.8673 113.201C14.1167 112.94 14.3061 112.65 14.4357 112.33C14.5653 112.01 14.6296 111.675 14.6288 111.326C14.618 110.974 14.5316 110.629 14.3695 110.29C14.1621 109.857 13.9027 109.524 13.5912 109.291C13.273 109.06 12.8989 108.861 12.4689 108.693L12.8967 107.502Z" fill="#F0F0F0"/>
<path d="M5.8304 103.102L12.0942 101.042L12.5303 102.367L6.26645 104.428L7.04711 106.801L5.82855 107.202L3.83118 101.13L5.04974 100.729L5.8304 103.102Z" fill="#F0F0F0"/>
<circle cx="159.919" cy="79.933" r="3.13462" fill="#D9D9D9"/>
<circle cx="3.18809" cy="79.933" r="3.13462" fill="#D9D9D9"/>
</svg>
