<svg width="992" height="249" viewBox="0 0 992 249" fill="none" xmlns="http://www.w3.org/2000/svg">
<path fill-rule="evenodd" clip-rule="evenodd" d="M135.969 2.25781L110.581 27.6511H118.71C141.605 27.6511 160.182 46.2129 160.182 69.1127C160.182 92.0173 141.605 110.574 118.71 110.574H27.6526L0 138.222V248.827L27.6477 221.184V138.222H118.71C156.873 138.222 187.805 107.281 187.805 69.1127C187.805 36.9173 165.769 9.93337 135.969 2.25781Z" fill="#F5333F"/>
<path fill-rule="evenodd" clip-rule="evenodd" d="M27.667 55.3049H3.25463L27.6475 27.6524H82.9427L110.586 0H0V27.6426V110.586L55.3342 55.3049H27.667Z" fill="#F5333F"/>
<path fill-rule="evenodd" clip-rule="evenodd" d="M362.737 58.6816C382.24 58.6816 395.445 48.4735 395.445 32.8687V32.5663C395.445 15.9123 382.548 7.20215 363.644 7.20215H333.923V58.6816H362.737ZM326.121 0H364.24C387.349 0 403.257 11.8525 403.257 32.1173V32.4197C403.257 54.4754 384.192 65.8887 362.283 65.8887H333.923V105.052H326.121V0Z" fill="white"/>
<path fill-rule="evenodd" clip-rule="evenodd" d="M434.858 105.052H442.66V0H434.858V105.052Z" fill="white"/>
<path fill-rule="evenodd" clip-rule="evenodd" d="M570.057 0L529.693 51.4744L571.56 105.052H562.254L524.887 56.5833L487.67 105.052H478.516L520.236 51.4744L480.019 0H489.32L525.184 46.3704L560.903 0H570.057Z" fill="white"/>
<path fill-rule="evenodd" clip-rule="evenodd" d="M607.419 0H682.15V7.20706H615.227V48.4784H675.402V55.6758H615.227V97.8547H682.901V105.052H607.419V0Z" fill="white"/>
<path fill-rule="evenodd" clip-rule="evenodd" d="M718.769 0H726.576V97.8547H788.249V105.052H718.769V0Z" fill="white"/>
<path fill-rule="evenodd" clip-rule="evenodd" d="M326.121 142.422H400.105V149.629H333.924V192.696H393.347V199.908H333.924V247.474H326.121V142.422Z" fill="white"/>
<path fill-rule="evenodd" clip-rule="evenodd" d="M434.858 142.422H442.66V240.277H504.333V247.474H434.858V142.422Z" fill="white"/>
<path fill-rule="evenodd" clip-rule="evenodd" d="M613.872 211.013L586.264 150.234L558.499 211.013H613.872ZM582.663 141.68H590.163L639.09 247.478H630.531L617.176 218.064H555.201L541.84 247.478H533.735L582.663 141.68Z" fill="white"/>
<path fill-rule="evenodd" clip-rule="evenodd" d="M670.188 142.422H677.546L719.705 204.548L761.879 142.422H769.233V247.474H761.426V156.231L719.861 216.713H719.261L677.687 156.231V247.474H670.188V142.422Z" fill="white"/>
<path fill-rule="evenodd" clip-rule="evenodd" d="M805.1 142.422H879.83V149.629H812.907V190.9H873.082V198.098H812.907V240.277H880.582V247.474H805.1V142.422Z" fill="white"/>
<path fill-rule="evenodd" clip-rule="evenodd" d="M913.893 232.159L918.997 226.318C930.547 236.97 941.209 241.923 956.662 241.923C972.418 241.923 983.227 233.071 983.227 221.058V220.76C983.227 209.659 977.371 203.209 953.505 198.407C928.298 193.298 918.094 184.744 918.094 168.842V168.534C918.094 152.934 932.352 140.926 951.861 140.926C967.168 140.926 977.225 145.132 987.872 153.686L982.924 159.834C973.019 151.285 963.113 147.977 951.563 147.977C936.105 147.977 925.897 156.838 925.897 167.793V168.085C925.897 179.191 931.601 185.945 956.506 191.044C980.826 196.011 991.029 204.711 991.029 220.019V220.311C991.029 237.268 976.469 248.979 956.214 248.979C939.408 248.979 926.497 243.421 913.893 232.159Z" fill="white"/>
</svg>
