<svg width="204" height="52" viewBox="0 0 204 52" fill="none" xmlns="http://www.w3.org/2000/svg">
<g clip-path="url(#clip0_1175_102)">
<path fill-rule="evenodd" clip-rule="evenodd" d="M28.6485 1.07886L23.4455 6.28287H25.1115C29.8034 6.28287 33.6105 10.0868 33.6105 14.7798C33.6105 19.4738 29.8034 23.2769 25.1115 23.2769H6.45047L0.783447 28.9429V51.6099L6.44946 45.9449V28.9429H25.1115C32.9324 28.9429 39.2715 22.6018 39.2715 14.7798C39.2715 8.18185 34.7555 2.65186 28.6485 1.07886Z" fill="#F7323F"/>
<path fill-rule="evenodd" clip-rule="evenodd" d="M6.45319 11.95H1.4502L6.44919 6.28296H17.7812L23.4462 0.615967H0.783203V6.28094V23.279L12.1232 11.95H6.45319Z" fill="#F7323F"/>
<path fill-rule="evenodd" clip-rule="evenodd" d="M75.1212 12.6423C79.1182 12.6423 81.8242 10.5503 81.8242 7.35233V7.29034C81.8242 3.87734 79.1812 2.09232 75.3072 2.09232H69.2162V12.6423H75.1212ZM67.6172 0.616333H75.4292C80.1652 0.616333 83.4252 3.04533 83.4252 7.19833V7.26031C83.4252 11.7803 79.5182 14.1193 75.0282 14.1193H69.2162V22.1453H67.6172V0.616333Z" fill="black"/>
<path fill-rule="evenodd" clip-rule="evenodd" d="M89.9009 22.145H91.4999V0.615967H89.9009V22.145Z" fill="black"/>
<path fill-rule="evenodd" clip-rule="evenodd" d="M117.608 0.615967L109.336 11.1649L117.916 22.145H116.009L108.351 12.2119L100.724 22.145H98.8484L107.398 11.1649L99.1564 0.615967H101.062L108.412 10.119L115.732 0.615967H117.608Z" fill="black"/>
<path fill-rule="evenodd" clip-rule="evenodd" d="M125.266 0.615967H140.581V2.09296H126.866V10.551H139.198V12.026H126.866V20.67H140.735V22.145H125.266V0.615967Z" fill="black"/>
<path fill-rule="evenodd" clip-rule="evenodd" d="M148.085 0.615967H149.685V20.67H162.324V22.145H148.085V0.615967Z" fill="black"/>
<path fill-rule="evenodd" clip-rule="evenodd" d="M67.6172 29.8025H82.7792V31.2795H69.2162V40.1055H81.3942V41.5835H69.2162V51.3315H67.6172V29.8025Z" fill="black"/>
<path fill-rule="evenodd" clip-rule="evenodd" d="M89.9014 29.8025H91.5004V49.8565H104.139V51.3315H89.9014V29.8025Z" fill="black"/>
<path fill-rule="evenodd" clip-rule="evenodd" d="M126.588 43.8592L120.93 31.4032L115.24 43.8592H126.588ZM120.192 29.6501H121.729L131.756 51.3322H130.002L127.265 45.3042H114.564L111.826 51.3322H110.165L120.192 29.6501Z" fill="black"/>
<path fill-rule="evenodd" clip-rule="evenodd" d="M138.129 29.8025H139.637L148.277 42.5345L156.92 29.8025H158.427V51.3315H156.827V32.6325L148.309 45.0275H148.186L139.666 32.6325V51.3315H138.129V29.8025Z" fill="black"/>
<path fill-rule="evenodd" clip-rule="evenodd" d="M165.777 29.8025H181.092V31.2795H167.377V39.7375H179.709V41.2125H167.377V49.8565H181.246V51.3315H165.777V29.8025Z" fill="black"/>
<path fill-rule="evenodd" clip-rule="evenodd" d="M188.073 48.1931L189.119 46.9961C191.486 49.1791 193.671 50.1941 196.838 50.1941C200.067 50.1941 202.282 48.3801 202.282 45.9181V45.8571C202.282 43.5821 201.082 42.2601 196.191 41.2761C191.025 40.2291 188.934 38.4761 188.934 35.2171V35.1541C188.934 31.9571 191.856 29.4961 195.854 29.4961C198.991 29.4961 201.052 30.3581 203.234 32.1111L202.22 33.3711C200.19 31.6191 198.16 30.9411 195.793 30.9411C192.625 30.9411 190.533 32.7571 190.533 35.0021V35.0621C190.533 37.3381 191.702 38.7221 196.806 39.7671C201.79 40.7851 203.881 42.5681 203.881 45.7051V45.7651C203.881 49.2401 200.897 51.6401 196.746 51.6401C193.302 51.6401 190.656 50.5011 188.073 48.1931Z" fill="black"/>
</g>
<defs>
<clipPath id="clip0_1175_102">
<rect width="204" height="52" fill="white"/>
</clipPath>
</defs>
</svg>
