<svg width="219" height="36" viewBox="0 0 219 36" fill="none" xmlns="http://www.w3.org/2000/svg">
<path fill-rule="evenodd" clip-rule="evenodd" d="M142.762 3.13339C143.184 3.13339 143.927 3.23629 143.927 2.56619C143.927 2.0379 143.5 1.97013 143.047 1.97013H142.128V3.13339H142.762ZM144.311 4.96298H143.817L142.869 3.4471H142.126V4.96298H141.704V1.68779H143.147C143.464 1.68779 143.708 1.72669 143.958 1.86347C144.169 1.97139 144.308 2.25499 144.308 2.5687C144.308 3.2388 143.85 3.44837 143.323 3.44837L144.311 4.96298ZM145.367 3.31033C145.364 2.63864 145.096 1.99529 144.621 1.52033C144.146 1.04536 143.503 0.777218 142.831 0.774247C141.422 0.774247 140.231 1.90237 140.231 3.31033C140.231 4.75217 141.422 5.91166 142.831 5.91166C144.205 5.9104 145.367 4.75217 145.367 3.31033ZM139.912 3.31033C139.912 2.92834 139.987 2.55007 140.134 2.19747C140.281 1.84486 140.497 1.52494 140.768 1.25623C141.04 0.987528 141.362 0.775399 141.716 0.632132C142.07 0.488865 142.449 0.417314 142.831 0.421632C144.454 0.421632 145.755 1.72669 145.755 3.31033C145.755 4.9291 144.454 6.26302 142.831 6.26302C141.178 6.26302 139.912 4.9291 139.912 3.31033ZM216.042 3.13339C216.469 3.13339 217.207 3.23629 217.207 2.56619C217.207 2.0379 216.746 1.97013 216.361 1.97013H215.412V3.13339H216.042ZM217.559 4.96298H217.099L216.116 3.4471H215.412V4.96298H215.025V1.68779H216.434C216.714 1.68779 216.961 1.72669 217.241 1.86347C217.49 1.97139 217.593 2.25499 217.593 2.5687C217.593 3.2388 217.138 3.44837 216.572 3.44837L217.559 4.96298ZM218.647 3.31033C218.647 1.90237 217.524 0.774247 216.081 0.774247C215.748 0.773086 215.418 0.83789 215.109 0.964929C214.801 1.09197 214.521 1.27873 214.285 1.51446C214.05 1.75019 213.863 2.03023 213.736 2.33844C213.609 2.64666 213.544 2.97696 213.545 3.31033C213.545 4.75217 214.674 5.91166 216.081 5.91166C217.524 5.9104 218.647 4.75217 218.647 3.31033ZM213.191 3.31033C213.191 1.72669 214.424 0.421632 216.081 0.421632C217.699 0.421632 219 1.72669 219 3.31033C219 4.9291 217.699 6.26302 216.081 6.26302C214.424 6.26302 213.191 4.9291 213.191 3.31033ZM42.0279 30.1644C41.0143 30.168 40.01 29.9711 39.0728 29.5848C38.1357 29.1986 37.2843 28.6307 36.5676 27.9139C35.8509 27.1971 35.2832 26.3456 34.8971 25.4084C34.511 24.4712 34.3142 23.4669 34.318 22.4533C34.3177 21.441 34.5169 20.4386 34.9043 19.5034C35.2918 18.5682 35.8597 17.7185 36.5758 17.003C37.2919 16.2875 38.142 15.7202 39.0775 15.3336C40.013 14.9469 41.0156 14.7485 42.0279 14.7497C43.0397 14.7492 44.0416 14.9481 44.9765 15.3351C45.9114 15.722 46.7608 16.2895 47.4763 17.0049C48.1917 17.7203 48.7591 18.5698 49.1461 19.5046C49.5331 20.4395 49.732 21.4415 49.7315 22.4533C49.7356 23.4664 49.5393 24.4704 49.1537 25.4073C48.7681 26.3443 48.2009 27.1957 47.4849 27.9124C46.7688 28.6292 45.918 29.1972 44.9814 29.5837C44.0448 29.9702 43.0411 30.1676 42.0279 30.1644ZM13.092 30.1644C8.83424 30.1644 5.42101 26.7524 5.42101 22.4533C5.42101 18.1955 8.83424 14.7497 13.092 14.7497C17.3497 14.7497 20.8019 18.1955 20.8019 22.4533C20.8054 23.4668 20.6083 24.471 20.2221 25.408C19.8359 26.3451 19.2681 27.1965 18.5515 27.9132C17.8349 28.6299 16.9836 29.1978 16.0466 29.5842C15.1097 29.9705 14.1055 30.1677 13.092 30.1644ZM110.097 30.1644C105.839 30.1644 102.427 26.7524 102.427 22.4533C102.427 18.1955 105.839 14.7497 110.097 14.7497C114.319 14.7497 117.773 18.1955 117.773 22.4533C117.777 23.4642 117.582 24.4659 117.198 25.4011C116.814 26.3363 116.249 27.1866 115.536 27.903C114.823 28.6194 113.975 29.188 113.042 29.5761C112.108 29.9642 111.108 30.1641 110.097 30.1644ZM80.8483 30.1644C79.834 30.1706 78.8286 29.9753 77.8903 29.59C76.9521 29.2046 76.0996 28.6368 75.3824 27.9195C74.6653 27.2022 74.0976 26.3497 73.7124 25.4114C73.3272 24.473 73.1321 23.4676 73.1385 22.4533C73.1356 21.4403 73.3332 20.4368 73.7197 19.5004C74.1063 18.5641 74.6742 17.7135 75.3907 16.9975C76.1073 16.2815 76.9584 15.7143 77.895 15.3285C78.8317 14.9427 79.8354 14.746 80.8483 14.7497C81.8605 14.749 82.8628 14.9478 83.7981 15.3346C84.7334 15.7214 85.5833 16.2887 86.2993 17.0041C87.0153 17.7195 87.5833 18.569 87.9709 19.504C88.3585 20.4389 88.5581 21.4411 88.5582 22.4533C88.5615 23.4667 88.3644 24.4708 87.9781 25.4078C87.5918 26.3448 87.0241 27.1961 86.3075 27.9128C85.5909 28.6295 84.7397 29.1974 83.8028 29.5838C82.8659 29.9702 81.8618 30.1675 80.8483 30.1644ZM49.7716 33.0531C47.531 34.7092 44.8154 35.5974 42.0291 35.5854C34.7748 35.5854 28.8982 29.7076 28.8982 22.4533C28.8982 15.2378 34.7748 9.36253 42.0291 9.36253C44.9128 9.36253 47.5869 10.3112 49.7327 11.8948V1.09172H55.4374V35.3758H49.7716V33.0531ZM141.355 17.7413C141.037 15.5904 139.311 14.0457 136.569 14.0457C135.126 14.0457 131.994 14.5351 131.994 16.4011C131.994 19.1831 136.746 19.4278 137.906 19.5006C145.511 20.2046 147.726 23.5488 147.726 27.489C147.726 30.4104 146.248 32.5913 144.139 34.1411C142.344 35.4424 138.649 35.9694 136.394 35.9694C131.394 35.9694 126.328 33.2288 125.658 27.0285H131.256C131.567 29.9523 134.633 31.0428 136.358 31.0428C139.488 31.0428 141.707 29.7076 141.707 28.1579C141.707 25.6946 139.42 25.165 136.109 24.8149C134.249 24.6041 130.688 23.9691 129.212 22.7369C127.561 21.4356 126.151 19.9548 126.151 17.4225C126.151 12.8812 129.705 9.29226 136.712 9.25336C142.519 9.21948 146.918 12.6716 147.055 17.7011L141.355 17.7413ZM20.8358 33.0531C18.5952 34.7104 15.8788 35.5987 13.092 35.5854C5.80751 35.5854 0 29.7076 0 22.4533C0 15.2378 5.80751 9.36253 13.092 9.36253C15.9807 9.36253 18.6548 10.3112 20.8358 11.8948V9.39767H26.4663V35.3758H20.8358V33.0531ZM65.219 7.60196V1.05659H59.5533V7.60196H65.219ZM65.219 35.3746V9.39641H59.5533V35.3746H65.219ZM117.773 33.0531C115.659 34.6706 112.987 35.5854 110.097 35.5854C102.847 35.5854 96.9708 29.7076 96.9708 22.4533C96.9708 15.2378 102.847 9.36253 110.097 9.36253C112.987 9.36253 115.661 10.3112 117.773 11.8948V9.39767H123.471V35.3758H117.842L117.773 33.0531ZM88.5921 33.0531C86.4463 34.6706 83.7383 35.5854 80.8483 35.5854C73.6329 35.5854 67.7225 29.7076 67.7225 22.4533C67.7225 15.2378 73.6329 9.36253 80.8483 9.36253C83.7383 9.36253 86.4124 10.3112 88.5921 11.8948V1.09172H94.2239V35.3758H88.5921V33.0531ZM191.513 19.5006C191.83 13.3405 189.996 6.5805 185.067 0C180.284 6.16012 178.597 13.1648 179.016 19.5006H191.513ZM179.754 24.3895C179.543 23.4709 179.368 22.5445 179.227 21.6125H191.3C191.162 22.5449 190.986 23.4714 190.773 24.3895H179.754ZM182.57 31.3628C183.345 32.6527 184.241 33.8666 185.244 34.9881C186.232 33.8951 187.111 32.6616 187.923 31.3628H182.57ZM210.344 19.5345C211.751 16.6119 212.738 13.3404 213.192 9.67876C204.994 10.384 198.553 14.3581 194.22 19.5345H210.344ZM209.252 21.6125C208.689 22.5951 208.088 23.4747 207.458 24.3895L191.017 24.3205C191.544 23.4408 192.073 22.4533 192.673 21.6125H209.252ZM202.775 29.2496C203.805 28.4087 204.769 27.4904 205.66 26.5027L164.83 26.4688C165.75 27.4863 166.75 28.428 167.82 29.2847L202.775 29.2496ZM188.521 31.3628C188.279 32.5323 188.138 33.7204 188.099 34.9141C192.005 34.7396 196.052 33.5412 199.714 31.3628H188.521ZM161.242 21.6125C161.838 22.5951 162.438 23.4747 163.11 24.3895H179.477C179.016 23.4408 178.455 22.5273 177.852 21.6125H161.242ZM170.813 31.3628C174.475 33.5412 178.489 34.7396 182.394 34.9141C182.35 33.7227 182.222 32.5359 182.009 31.3628H170.813ZM176.268 19.5345C171.977 14.3581 165.573 10.384 157.369 9.67876C157.786 13.0871 158.724 16.4112 160.151 19.5345H176.268Z" fill="#181818"/>
</svg>
