<svg width="213" height="62" viewBox="0 0 213 62" fill="none" xmlns="http://www.w3.org/2000/svg">
<path fill-rule="evenodd" clip-rule="evenodd" d="M72.9554 28.1805V2.28816H82.3965C84.3987 2.28816 85.687 2.71719 86.8311 3.14623C89.4065 4.43333 90.5494 6.86574 90.5494 9.01091C90.5494 11.4433 89.5483 13.1595 87.545 14.4466C90.5494 15.1616 92.2668 17.165 92.2668 20.3113C92.2668 23.8878 90.1204 26.462 86.5439 27.6073C85.2568 28.0363 83.8267 28.1793 81.6803 28.1793L72.9554 28.1805ZM84.5417 6.72272C83.8267 6.4367 83.1116 6.29369 82.1093 6.29369H77.2457V13.0164H81.8233C83.1104 13.0164 83.9697 12.8734 84.6847 12.4444C85.1677 12.1752 85.5688 11.7804 85.8458 11.3019C86.1227 10.8233 86.2651 10.2788 86.2579 9.72597C86.2579 8.44008 85.5428 7.29477 84.5417 6.72272ZM85.83 17.451C85.258 17.165 84.3987 17.022 82.9686 17.022H77.2469V24.1738H82.5396C84.2557 24.1738 85.115 23.8878 85.83 23.6017C87.1171 23.0297 87.6892 21.8844 87.6892 20.4543C87.6892 19.0241 87.1171 18.0243 85.83 17.451ZM118.015 28.1805V2.28816H122.451V28.1805H118.015ZM150.201 28.1805V2.28816H154.637V28.1805H150.201ZM168.799 2.14514C171.658 2.14514 174.52 2.8602 176.095 3.57647L175.95 7.86803C173.661 6.72394 171.517 6.00767 168.8 6.00767C166.366 6.00767 164.222 6.72272 164.222 8.7261C164.222 14.0187 177.526 11.8724 177.526 20.5985C177.526 25.4621 173.52 28.4665 167.513 28.4665C163.507 28.4665 160.787 27.3225 158.785 26.1772L160.646 22.6007C162.22 23.6017 164.795 24.6028 167.654 24.6028C170.372 24.6028 172.805 23.6017 172.805 21.3135C172.805 15.7337 159.645 18.1661 159.645 9.43995C159.643 4.72057 163.362 2.14514 168.799 2.14514ZM198.409 28.1805V17.0232H185.962V28.1805H181.529V2.28816H185.962V12.8747H198.409V2.28816H202.843V28.1805H198.409ZM82.6826 32.6151C85.3998 32.6151 87.5462 33.1871 89.8344 34.1882L88.5473 37.9077C87.2602 37.3345 85.5428 36.6206 83.1116 36.6206C78.248 36.6206 75.2435 40.7692 75.2435 45.7758C75.2435 50.9266 78.105 55.074 83.1116 55.074C85.5428 55.074 87.2602 54.3589 88.5473 53.7869L89.8344 57.5052C87.545 58.5063 85.3998 59.0795 82.6826 59.0795C74.9575 59.0795 70.5229 53.6439 70.5229 45.9188C70.5229 38.6228 74.9575 32.6151 82.6826 32.6151ZM179.385 32.6151C182.244 32.6151 184.392 33.1871 186.536 34.1882L185.249 37.9077C183.961 37.3345 182.244 36.6206 179.814 36.6206C174.949 36.6206 171.946 40.7692 171.946 45.7758C171.946 50.9266 174.807 55.074 179.814 55.074C182.245 55.074 183.961 54.3589 185.249 53.7869L186.536 57.5052C184.39 58.5063 182.244 59.0795 179.385 59.0795C171.659 59.0795 167.225 53.6439 167.225 45.9188C167.224 38.6228 171.659 32.6151 179.385 32.6151ZM115.01 45.7746C115.01 53.4996 110.148 59.0795 102.852 59.0795C95.556 59.0795 90.6924 53.6439 90.6924 45.9188C90.6924 38.1938 95.5572 32.6151 102.852 32.6151C110.291 32.6151 115.01 38.0507 115.01 45.7746ZM110.433 45.7746C110.433 40.1959 107.145 36.6194 102.852 36.6194C98.5605 36.6194 95.2712 40.1959 95.2712 45.9176C95.2712 51.4975 98.5617 55.0728 102.852 55.0728C107.145 55.0728 110.433 51.4975 110.433 45.7746ZM118.015 48.9221V32.9011H122.451V49.0651C122.451 53.4996 124.74 55.0728 128.458 55.0728C132.177 55.0728 134.466 53.4996 134.466 49.0651V32.9011H138.899V48.9221C138.899 55.932 134.894 59.0795 128.458 59.0795C122.02 59.0795 118.015 55.932 118.015 48.9221ZM147.197 39.9099H147.055C147.197 40.768 147.197 42.1993 147.197 43.3434V58.6493H142.763V32.9011H147.628L159.499 50.4964H159.643C159.499 49.6383 159.499 48.207 159.499 47.0629V32.9011H163.935V58.6493H160.071L147.197 39.9099ZM189.97 58.6493V32.9011H194.404V58.6493H189.97ZM198.409 58.6493V32.9011H202.843V54.6449H213V58.6493H198.409ZM146.769 2.43238H125.883V6.4367H134.18V28.1805H138.616V6.4367H146.769V2.43238ZM110.149 28.1805C106.429 20.3125 105.427 18.1673 103.854 18.1673H99.7058V28.1805H95.2712V2.43238H103.997C110.72 2.43238 113.154 5.86587 113.154 9.72718C113.154 13.3037 111.293 15.5919 108.432 16.4499C109.577 17.165 110.866 19.5974 115.157 28.1805H110.149ZM104.282 6.29369H99.7046V14.1618H104.139C107.287 14.1618 108.716 12.5886 108.716 10.1562C108.717 8.01104 107.43 6.29369 104.282 6.29369Z" fill="#181818"/>
<path fill-rule="evenodd" clip-rule="evenodd" d="M29.6107 14.7338C29.6107 22.8879 22.8879 29.4677 14.7338 29.4677C6.72276 29.4677 0 22.8867 0 14.7338C0 6.58097 6.72276 1.44473e-05 14.7338 1.44473e-05C22.8879 1.44473e-05 29.6107 6.57976 29.6107 14.7338ZM61.0817 14.7338C61.0844 16.6695 60.7052 18.5866 59.9657 20.3754C59.2262 22.1643 58.141 23.7896 56.7723 25.1583C55.4036 26.527 53.7783 27.6122 51.9895 28.3516C50.2007 29.0911 48.2835 29.4704 46.3479 29.4677C38.1938 29.4677 31.614 22.8867 31.614 14.7338C31.614 6.58097 38.195 1.44473e-05 46.3479 1.44473e-05C48.2835 -0.00269798 50.2007 0.376551 51.9895 1.11603C53.7783 1.85552 55.4036 2.9407 56.7723 4.3094C58.141 5.6781 59.2262 7.30342 59.9657 9.09224C60.7052 10.8811 61.0844 12.7982 61.0817 14.7338ZM29.6107 46.3479C29.6107 54.502 22.8879 61.0817 14.7338 61.0817C6.72276 61.0817 0 54.5008 0 46.3479C0 38.1926 6.72276 31.6141 14.7338 31.6141C22.8879 31.6141 29.6107 38.1926 29.6107 46.3479ZM61.0817 46.3479C61.0844 48.2835 60.7052 50.2007 59.9657 51.9895C59.2262 53.7783 58.141 55.4036 56.7723 56.7723C55.4036 58.141 53.7783 59.2262 51.9895 59.9657C50.2007 60.7052 48.2835 61.0844 46.3479 61.0817C44.4122 61.0844 42.4951 60.7052 40.7063 59.9657C38.9175 59.2262 37.2921 58.141 35.9234 56.7723C34.5547 55.4036 33.4695 53.7783 32.7301 51.9895C31.9906 50.2007 31.6113 48.2835 31.614 46.3479C31.6113 44.4122 31.9906 42.4951 32.7301 40.7063C33.4695 38.9175 34.5547 37.2921 35.9234 35.9234C37.2921 34.5547 38.9175 33.4696 40.7063 32.7301C42.4951 31.9906 44.4122 31.6113 46.3479 31.6141C48.2835 31.6112 50.2008 31.9903 51.9897 32.7298C53.7785 33.4692 55.4039 34.5544 56.7727 35.9231C58.1414 37.2918 59.2266 38.9172 59.966 40.7061C60.7054 42.495 61.0846 44.4122 61.0817 46.3479Z" fill="#545557"/>
</svg>
