<svg width="175" height="58" viewBox="0 0 175 58" fill="none" xmlns="http://www.w3.org/2000/svg">
<path d="M67.2019 49.9865C60.6901 45.7918 51.8528 45.0557 37.6008 49.0098C22.4071 52.5803 17.3413 54.8691 10.6884 50.2744C8.13253 48.0174 7.21618 44.3833 7.90043 39.1486C9.48747 30.6151 13.7763 22.403 21.3945 13.2938C25.6465 8.55526 29.591 4.48869 34.7993 2.85572C38.791 1.83132 38.4178 4.96841 37.9348 5.41707C37.4251 5.41707 36.569 5.49735 35.9072 5.92916C35.3702 6.34566 33.896 7.69054 33.8169 9.4996C33.7027 12.269 36.5685 11.6926 37.8047 10.172C39.1371 8.45857 41.1063 5.17732 39.5573 2.11919C38.9081 1.03069 37.7863 0.278408 36.3935 0.0222514C31.6243 -0.250311 27.1828 2.02316 23.0834 4.5366C14.1186 10.7642 6.94734 19.3935 2.88952 28.8391C0.550207 34.5382 -1.56555 42.7019 1.60568 49.3465C4.05918 53.9569 9.15234 56.4058 15.229 55.8937C19.4909 55.4459 24.6444 54.0684 28.1105 53.2367C31.5769 52.4035 49.3193 46.3048 55.1489 56.9196C55.1489 56.9196 57.0875 53.1565 61.9322 53.0762C65.9152 52.7087 71.6613 54.2292 75.8456 57.3024C74.4515 55.2059 70.4991 52.1161 67.2019 49.9865Z" fill="#181818"/>
<path d="M39.4099 14.3664C36.0914 12.1891 29.4217 16.3515 24.0796 23.4913C19.1945 29.8957 17.0851 37.3391 19.3809 40.7811C22.7956 44.8313 29.1352 38.9401 31.831 35.7868L32.1789 35.4182C34.0122 33.449 35.4284 31.0795 36.7995 28.8058C36.7995 28.8058 38.0595 26.7247 38.1197 26.6284C38.8984 26.4849 39.8364 26.2607 40.8934 25.9564C40.8783 26.0041 36.8494 32.7762 37.2604 36.1375C37.3884 37.163 37.2908 40.9091 40.9481 42.0455C45.8227 42.8625 49.7152 39.0838 53.1491 35.7219C53.1491 35.7219 53.7343 35.1621 54.0653 34.8425C53.9815 35.1776 53.8723 35.6249 53.8723 35.6249C52.4452 40.588 54.3689 41.6294 55.5722 42.0135C59.2089 43.071 63.5535 37.7875 63.5678 37.7875C63.4549 39.4518 63.1257 40.8284 64.88 41.9333C66.5358 42.5261 68.2116 41.6222 69.4856 40.7737C74.0739 37.5401 77.7703 32.4787 80.7558 28.1039H78.8514C78.8289 28.1039 74.1522 34.8825 71.1153 36.3558C71.1105 36.3558 70.5577 36.6395 70.2394 36.4151C69.845 36.0789 70.0005 35.3795 70.244 34.8843C70.2593 34.8521 81.9699 14.5414 81.9699 14.5414H76.4408C76.4408 14.5414 75.8368 15.5185 75.7876 15.5826C75.7504 15.5507 75.6618 15.3827 75.6006 15.3022C72.1749 10.5636 64.4174 17.8524 58.577 26.3049C56.3284 29.5551 53.4657 33.2145 50.4972 35.8559C50.4972 35.8559 46.0995 39.8871 44.2206 36.9908C43.5337 35.7739 43.7451 33.9948 44.1325 32.8265C46.3202 26.5987 50.0899 20.9468 54.3798 17.5367C55.5906 16.5928 56.907 16.3198 57.56 16.7201C58.1826 17.0889 58.283 18.0007 57.8892 18.6252C56.8902 18.5933 56.0896 18.8969 55.439 19.5693C54.1571 20.9142 53.7118 22.2112 54.1193 23.4281C56.0992 26.2456 60.0478 20.6742 59.8569 17.2803C59.7886 16.0634 59.1396 14.9111 58.1705 14.3502C56.7266 13.4861 54.5238 13.7099 53.0982 14.3987C51.1896 15.1189 48.1688 17.6321 46.4055 19.5855C44.1856 22.0353 40.3783 24.7566 39.1878 24.4518C39.577 23.411 42.7928 16.8315 39.4099 14.3664ZM66.067 24.0999C67.1426 22.6113 70.2731 18.6248 71.0363 17.9526C73.6031 15.6944 74.6291 16.688 74.7179 17.3919C72.3224 21.6822 69.495 26.5973 66.8368 31.0161C66.8422 31.0003 66.0049 32.2807 66.0049 32.2807C64.8308 34.0731 63.6487 35.6103 61.7204 36.6826C61.4454 36.7633 60.9922 36.7955 60.6905 36.5704C60.3274 36.3302 60.1841 35.9299 60.225 35.5136C60.3408 34.1372 61.7421 29.9276 66.067 24.0999ZM35.9877 26.6772C35.9877 26.6772 35.9394 26.8218 35.9158 26.869C35.9096 26.869 33.5049 30.7908 33.5049 30.7908C32.0537 32.7283 30.2418 35.1623 27.9769 36.3304C27.3055 36.5544 26.3774 36.699 25.9044 36.1071C24.9019 34.9061 25.4186 33.241 25.8384 31.8966L25.9871 31.4162C27.1907 28.1507 29.1002 25.2684 30.9591 22.5949C30.9823 22.5791 31.0344 22.5632 31.0532 22.5632C31.0578 22.5791 31.0652 22.5791 31.0683 22.6113C32.2346 24.8522 34.4217 25.8923 36.0573 26.3733C36.0671 26.3733 36.0779 26.3893 36.0779 26.4215C36.0781 26.4692 36.0514 26.5337 35.9877 26.6772ZM38.2658 22.0511C38.2551 22.083 37.1948 24.5164 37.1948 24.5164C37.0415 24.6443 36.7991 24.5805 36.5213 24.5164L36.0453 24.4359C34.5505 23.9719 33.4231 22.9792 33.0755 21.7947C32.5962 19.4893 34.5656 17.6802 35.4332 17.0242C36.2658 16.4473 37.5601 16.1433 38.3117 16.7359C38.7753 17.2803 38.9509 17.9845 38.9509 18.7534C38.9511 19.7936 38.63 20.9621 38.2658 22.0511ZM108.165 29.4787C107.632 28.3263 106.366 27.5898 105.018 27.6697C100.638 28.0702 96.3534 31.6721 94.1038 36.8427C92.9234 39.5005 92.2792 41.6935 91.8568 45.1835C93.2189 43.615 95.997 41.0377 99.1497 39.6287C99.1497 39.6287 99.5786 36.2829 101.766 33.3051C102.594 32.072 104.25 30.0871 106.11 30.6151C107.736 31.1596 107.164 35.6584 105.004 40.012C103.406 43.2143 100.96 46.417 98.486 48.6257C96.2983 50.4827 93.0614 52.724 90.2295 50.9952C88.4458 49.9391 87.536 47.7291 87.7281 44.8796C88.5803 36.7953 92.2606 29.9112 97.527 22.0668C102.957 14.7826 108.943 7.30642 117.007 3.31948C118.652 2.48713 120.175 2.29507 121.492 2.80739C121.492 2.80739 113.922 6.96977 110.314 14.6704C109.396 16.6239 108.119 19.2646 109.405 21.6022C110.076 22.8187 111.269 22.9149 112.23 22.8508C116.653 21.826 119.51 17.6957 121.845 13.9179C123.198 11.0523 124.402 8.20264 124.402 5.03273C124.402 4.64861 124.382 4.13651 124.349 3.75195C126.462 2.63173 130.795 4.61645 130.795 4.61645C134.181 5.73754 141.391 11.261 143.823 12.3171C145.01 10.9405 146.959 8.85955 148.057 7.81873L146.468 6.84201C143.924 5.28911 141.235 3.81604 138.588 2.35938C132.577 -0.922087 127.684 0.230289 125.194 1.12695C124.215 1.47892 123.321 1.7832 123.321 1.7832C121.473 -0.233899 118.442 -0.0422739 116.209 0.502414C108.177 2.8076 100.721 8.42664 92.7267 18.1766C86.8494 25.8131 83.2037 32.4091 81.2605 38.9246C79.7627 43.311 79.3075 49.7626 82.9632 53.5889C86.0715 56.838 90.1929 56.1341 93.1032 54.966C99.4091 51.8602 105.077 45.1679 107.901 37.4673C108.582 35.1783 109.339 31.9445 108.165 29.4787ZM122.666 5.3532C121.831 14.9268 114.389 20.5465 112.548 20.9941C111.432 21.2178 109.528 20.7219 111.228 16.7041C113.731 11.2925 118.004 6.6983 122.589 4.34476C122.701 4.74507 122.698 5.00058 122.666 5.3532ZM166.809 6.56945C162.806 8.84314 158.656 10.3155 153.633 9.80345C152.241 11.3728 150.886 12.9896 149.637 14.6542C156.687 16.4473 164.161 12.4611 168.329 8.66727C172.739 4.84089 175 0.0224762 175 0.0224762C175 0.0224762 171.695 3.80029 166.809 6.56945ZM91.1594 14.5418H85.9085L82.9466 19.3543H88.1964L91.1594 14.5418Z" fill="#181818"/>
<path d="M153.612 50.4321C153.048 50.8163 152.255 50.5209 152.551 49.6407C153.29 47.3994 156.227 42.8319 156.227 42.8319L164.407 28.323H158.804C158.538 28.7605 157.968 29.7651 157.968 29.7651C157.709 29.3332 156.934 28.3731 156.614 28.1655C155.246 27.3004 153.237 27.7095 151.852 28.4937C145.827 32.0162 141.432 38.9757 137.966 44.4032C137.966 44.4032 134.317 50.4363 132.291 50.8849C130.71 51.0131 130.873 48.8829 130.942 48.3866C131.553 44.8 132.973 41.3903 134.403 38.3005C137.313 36.2834 140.633 33.642 143.651 30.7444C150.2 24.4842 155.721 17.3921 156.528 15.8073C156.528 15.8073 155.655 15.9836 154.623 16.0153C149.585 23.0433 139.275 33.2576 136.149 34.7782C137.534 31.4475 146.48 15.5509 154.093 7.94669L155.291 6.79365C157.144 4.98459 159.063 3.12762 160.559 2.82334C160.717 2.80737 160.92 2.82334 161.096 3.19215C161.163 4.60068 160.638 5.6415 160.037 6.82603L159.194 8.55525C159.194 8.55525 160.388 8.33103 161.172 8.07422C162.082 6.36206 163.09 4.44034 162.718 2.15156C162.595 1.41502 162.061 0.854805 161.365 0.726618C159.094 0.294367 156.619 1.97481 154.627 3.33609L154.547 3.38378C144.309 11.4045 135.664 22.9632 128.106 38.7485C127.558 39.1641 125.441 39.6609 125.082 39.4205C125.828 37.884 126.768 35.8183 127.238 33.577C127.319 32.9363 127.395 32.2805 127.395 31.6402C127.395 30.2623 127.064 28.966 125.83 28.07C124.383 27.3494 122.594 27.6858 121.388 28.2296C115.986 30.471 111.948 36.0106 109.034 40.5726C107.467 43.4711 105.904 46.5753 105.471 50.13C105.167 52.9152 105.787 54.7085 107.371 55.6051C108.999 56.437 111.049 55.5723 111.854 55.1565C117.327 52.2747 121.152 46.4957 124.166 41.2125C124.286 41.1967 125.932 41.149 127.177 40.8283C127.193 40.8283 127.2 40.8283 127.228 40.845C127.157 41.0843 126.513 43.006 126.513 43.006C124.603 48.6086 123.719 52.4193 125.524 54.6763C128.103 57.8622 132.372 54.5648 135.845 50.2094C135.1 55.4282 137.805 56.2452 139.867 55.8453C142.235 55.2053 144.874 52.6752 146.099 51.3789C145.706 52.8994 145.812 55.6215 147.967 55.8932C149.444 56.1662 150.549 55.363 151.828 54.6744C156.415 52.1767 161.905 43.8539 163.331 41.4476H161.462C159.435 44.5108 156.856 48.5262 153.612 50.4321ZM112.44 49.8748C112.149 49.4423 112.052 48.9698 112.043 48.4588C111.987 45.3195 115.364 39.6981 117.748 36.6356H117.753C118.752 38.8231 121.014 40.2292 122.38 40.8218C120.684 44.6003 114.867 52.6923 112.44 49.8748ZM123.337 39.1326C123.176 39.2455 120.323 38.2843 119.772 35.6429C119.304 33.3687 120.87 31.5918 122.385 30.6963C123.035 30.1835 124.015 30.0081 124.734 30.2631C125.401 30.7122 125.581 31.5133 125.581 32.3763C125.581 32.9057 125.511 33.4495 125.449 33.9456L125.436 34.058C124.958 35.8329 124.253 37.5386 123.337 39.1326ZM146.218 48.8663C146.216 48.8663 145.677 49.3465 145.677 49.3465C144.907 50.0347 144.115 50.771 143.159 50.4026C142.895 50.3068 142.709 49.9548 142.665 49.6818C142.621 47.7126 143.508 45.888 144.368 44.1111L144.588 43.6467C147.062 39.5165 149.937 34.6497 154.16 31.2722C154.872 30.7588 155.644 30.3275 156.459 30.6639C156.646 30.8398 156.865 31.1441 156.865 31.4479C156.865 31.5444 156.779 31.8003 156.73 31.8801C155.55 33.7861 154.427 35.7868 153.335 37.7079C151.2 41.5021 148.986 45.4236 146.218 48.8663Z" fill="#181818"/>
</svg>
