<svg width="167" height="46" viewBox="0 0 167 46" fill="none" xmlns="http://www.w3.org/2000/svg">
<path d="M47.3011 1.15441C48.6839 0.945749 50.275 0.815325 51.4488 1.6761C52.1792 2.22375 52.44 3.21495 52.3878 4.10206C52.44 5.56277 51.7618 7.12796 50.4578 7.88455C49.3098 8.51062 47.9275 8.56252 46.6491 8.43219C45.7883 8.32801 44.9275 7.8586 44.4841 7.07596C43.4926 4.80647 44.7187 1.59787 47.3011 1.15441ZM5.92905 2.79783C6.00719 2.01519 6.71159 1.31088 7.52018 1.33712C13.5462 1.33712 19.5459 1.36307 25.5457 1.33712C26.1978 1.28493 26.9022 1.57173 27.2151 2.14561C27.6584 2.92825 27.2672 3.78903 27.2151 4.59781C27.0326 5.6932 27.0846 7.15419 25.8066 7.57142C21.4241 7.70184 17.0416 7.57142 12.6591 7.6236C12.2418 10.3886 11.8505 13.1275 11.433 15.8665C11.433 15.9709 11.4592 16.2059 11.4592 16.3099C14.6677 16.284 17.8762 16.3099 21.0848 16.284C21.9718 16.2318 22.9107 16.9886 22.8325 17.9274C22.7543 18.8926 22.5456 19.8316 22.4152 20.7969C22.3107 21.4489 21.7891 22.0489 21.1108 22.1794C17.537 22.2576 13.911 22.1011 10.3375 22.2576C9.76344 26.1966 9.08517 30.1353 8.48515 34.0745C8.4071 34.8571 7.78084 35.5353 6.9983 35.5611C5.51156 35.5874 4.02448 35.5874 2.53775 35.5611C1.57259 35.5874 0.789945 34.5175 1.0507 33.6047C2.6424 23.3273 4.28572 13.0757 5.92905 2.79783ZM32.4321 1.38902C33.7887 1.28483 35.1711 1.36307 36.5277 1.33712C37.3625 1.28493 38.1973 1.93695 38.2753 2.79783C38.2753 3.4759 38.0927 4.15425 38.0146 4.83242C36.9189 11.8235 35.7973 18.8146 34.7015 25.8056C34.545 26.9272 34.2581 28.1271 34.5973 29.2749C34.9886 30.4226 36.7361 29.9269 37.1536 31.1268C37.4144 32.0921 37.1274 33.1093 37.0491 34.1007C36.971 35.4049 35.484 35.6917 34.4669 35.9791C32.2497 36.3963 29.5626 36.0833 27.9714 34.2571C26.8236 32.927 26.7453 31.0486 26.9803 29.3793C28.3627 20.5102 29.7452 11.6411 31.154 2.74564C31.2323 2.09342 31.7539 1.49349 32.4321 1.38902ZM84.2125 2.79783C84.2905 2.01519 84.995 1.33712 85.7776 1.33712H89.7427C90.7339 1.31088 91.5428 2.38051 91.3079 3.31942C90.3949 9.11055 89.4559 14.9017 88.5429 20.6924C89.9254 20.4839 91.4907 20.223 92.4558 19.1014C94.0729 17.2752 95.4036 15.1626 96.3947 12.9453C96.7337 12.0844 96.9164 10.8323 98.0381 10.6757C99.525 10.6235 101.038 10.6496 102.525 10.6757C103.542 10.6496 104.299 11.7974 103.96 12.7364C103.568 14.1192 102.916 15.3972 102.238 16.6233C100.725 19.0754 99.0556 21.5013 96.8642 23.4316C97.8293 26.3271 99.0555 29.1444 100.125 31.9879C100.438 32.9269 101.195 34.0224 100.49 34.9356C99.6813 36.0311 98.1684 35.4831 97.0468 35.6135C95.8729 35.4831 94.1774 36.0831 93.5252 34.7528C92.2991 31.9093 91.2819 28.988 90.0296 26.1446C89.2992 26.1704 88.5428 26.1967 87.8123 26.1185C87.7604 26.2229 87.6559 26.4314 87.6036 26.5359C87.2122 29.1444 86.795 31.7531 86.3775 34.3615C86.2209 34.9875 85.7253 35.5355 85.0472 35.5876C83.6648 35.6398 82.256 35.6135 80.8474 35.6135C80.2473 35.6135 79.6997 35.2223 79.4387 34.7006C79.1779 34.1786 79.3342 33.579 79.4129 33.0051C81.0299 22.936 82.6212 12.8668 84.2125 2.79783ZM156.705 5.6412C156.888 4.91056 157.592 4.4151 158.322 4.44105C159.366 4.46729 160.435 4.4151 161.505 4.46729C162.366 4.49324 163.044 5.35412 162.939 6.18885C162.783 7.67579 162.418 9.16274 162.313 10.6494C163.331 10.6494 164.374 10.6235 165.391 10.6494C166.304 10.6494 167.061 11.5886 166.904 12.4753C166.774 13.2843 166.591 14.0669 166.461 14.8752C166.33 15.5537 165.757 16.1014 165.105 16.2057C163.852 16.284 162.626 16.1535 161.4 16.284C160.879 19.7793 160.305 23.2747 159.757 26.7705C159.679 27.5791 159.627 28.492 160.096 29.1964C160.8 30.0573 162.026 29.744 163.018 29.8486C163.8 30.0832 164.296 30.9443 164.165 31.727C164.035 32.6137 164.009 33.5007 163.8 34.3614C163.487 35.3264 162.366 35.5092 161.505 35.7438C159.131 36.3701 156.392 36.3701 154.279 34.9874C152.323 33.657 152.009 31.0745 152.218 28.8833C152.766 24.6573 153.627 20.4576 154.096 16.2056C153.366 16.2316 152.479 16.3361 151.931 15.6838C151.305 15.0318 151.618 14.0666 151.723 13.2577C151.879 12.3969 151.853 11.2753 152.792 10.8057C153.548 10.5186 154.41 10.7275 155.218 10.6231C155.714 8.95389 156.183 7.28452 156.705 5.6412ZM141.966 14.0928C143.61 12.4494 145.592 11.093 147.862 10.4149C148.853 9.97133 150.131 10.8062 150.105 11.9017C149.923 13.3365 149.583 14.7449 149.349 16.1535C149.244 16.8579 148.644 17.458 147.94 17.5362C145.384 17.9795 143.166 19.5183 141.392 21.3445C140.949 21.8926 140.297 22.4142 140.219 23.1706C139.671 26.8225 139.097 30.4746 138.523 34.1266C138.445 34.909 137.766 35.6658 136.958 35.6136H132.993C132.08 35.6658 131.271 34.7529 131.376 33.8398C132.523 26.6139 133.671 19.4144 134.793 12.1884C134.845 11.4582 135.367 10.7539 136.123 10.6755C137.088 10.6234 138.053 10.6494 139.045 10.6494C139.827 10.6494 140.558 11.3537 140.558 12.1625C140.558 13.2841 140.453 14.4318 140.427 15.5796C141.053 15.1886 141.445 14.5624 141.966 14.0928ZM44.4577 10.7799C45.8663 10.4931 47.3271 10.7279 48.7358 10.6495C49.5445 10.5453 50.4053 11.0669 50.5356 11.8757C50.6402 12.606 50.4312 13.3104 50.3529 14.0148C49.2836 20.7189 48.2139 27.4228 47.1705 34.1268C47.0922 34.8836 46.4665 35.6399 45.6576 35.6137C44.2491 35.6137 42.8404 35.6399 41.4058 35.5878C40.5188 35.4833 39.8666 34.4662 40.1015 33.6051C41.2232 26.6405 42.2928 19.7015 43.4144 12.7365C43.4666 11.98 43.6753 11.093 44.4577 10.7799ZM128.871 11.1193C124.984 10.3886 121.02 9.86695 117.08 10.2582C113.559 10.7018 110.011 12.2931 107.846 15.1886C104.846 18.997 103.829 24.11 104.507 28.8577C104.872 31.127 105.864 33.4226 107.716 34.8312C109.437 36.1616 111.759 36.344 113.846 36.005C116.767 35.431 119.245 33.5532 121.28 31.4662C121.385 32.353 121.176 33.24 121.228 34.1009C121.28 34.9093 122.011 35.6658 122.819 35.6136H125.48C126.263 35.6136 126.915 34.8835 126.967 34.1268C128.089 27.0575 129.21 20.0143 130.306 12.9713C130.462 12.0843 129.758 11.2235 128.871 11.1193ZM121.541 23.4056C120.498 25.362 119.037 27.1359 117.393 28.6486C116.455 29.4312 115.254 30.24 113.977 29.9792C112.724 29.7184 112.124 28.4141 111.837 27.2923C111.185 24.3708 111.785 21.1882 113.428 18.658C114.159 17.4839 115.333 16.5972 116.689 16.2319C118.593 15.7623 120.602 15.9971 122.454 16.5188L122.559 16.6233C122.324 18.8926 121.88 21.1361 121.541 23.4056ZM77.6651 19.4928C77.6388 16.8841 76.9346 14.1452 75.1087 12.1886C73.8566 10.8062 71.9783 10.1018 70.1524 10.1277C67.1263 10.0236 64.283 11.5106 62.0658 13.4929C61.57 13.8843 61.231 14.4582 60.6833 14.7712C60.6833 13.9101 60.7615 13.0494 60.7352 12.1626C60.7615 11.3537 60.0049 10.6495 59.2223 10.6495H56.5615C55.7269 10.6495 55.0486 11.38 54.9964 12.1885C53.353 22.6229 51.6837 33.0572 50.0402 43.4916C49.8056 44.4567 50.6404 45.4481 51.6316 45.4219C53.0923 45.3959 54.5793 45.5263 56.0139 45.3173C57.1618 45.0043 57.1356 43.6739 57.3183 42.7089C57.7355 40.4132 58.0227 38.1177 58.2834 35.796C63.4223 36.7872 69.396 36.1093 73.2306 32.2223C76.3607 28.8053 77.8214 24.0837 77.6651 19.4928ZM70.361 22.1273C70.2047 24.5272 69.3437 26.9532 67.6743 28.7008C65.5093 30.7618 62.2222 30.4746 59.5615 29.7706C59.5096 29.6921 59.4311 29.5356 59.405 29.4575C59.8224 27.188 60.0311 24.8924 60.5529 22.6491C62.0137 20.2493 63.7874 17.8231 66.3177 16.4929C67.2568 16.0495 68.535 16.1538 69.2133 17.0147C70.361 18.4494 70.4654 20.3797 70.361 22.1273Z" fill="#181818"/>
<path d="M47.3011 1.15441C48.6839 0.945749 50.275 0.815325 51.4488 1.6761C52.1792 2.22375 52.44 3.21495 52.3878 4.10206C52.44 5.56277 51.7618 7.12796 50.4578 7.88455C49.3098 8.51062 47.9275 8.56252 46.6491 8.43219C45.7883 8.32801 44.9275 7.8586 44.4841 7.07596C43.4926 4.80647 44.7187 1.59787 47.3011 1.15441ZM5.92905 2.79783C6.00719 2.01519 6.71159 1.31088 7.52018 1.33712C13.5462 1.33712 19.5459 1.36307 25.5457 1.33712C26.1978 1.28493 26.9022 1.57173 27.2151 2.14561C27.6584 2.92825 27.2672 3.78903 27.2151 4.59781C27.0326 5.6932 27.0846 7.15419 25.8066 7.57142C21.4241 7.70184 17.0416 7.57142 12.6591 7.6236C12.2418 10.3886 11.8505 13.1275 11.433 15.8665C11.433 15.9709 11.4592 16.2059 11.4592 16.3099C14.6677 16.284 17.8762 16.3099 21.0848 16.284C21.9718 16.2318 22.9107 16.9886 22.8325 17.9274C22.7543 18.8926 22.5456 19.8316 22.4152 20.7969C22.3107 21.4489 21.7891 22.0489 21.1108 22.1794C17.537 22.2576 13.911 22.1011 10.3375 22.2576C9.76344 26.1966 9.08517 30.1353 8.48515 34.0745C8.4071 34.8571 7.78084 35.5353 6.9983 35.5611C5.51156 35.5874 4.02448 35.5874 2.53775 35.5611C1.57259 35.5874 0.789945 34.5175 1.0507 33.6047C2.6424 23.3273 4.28572 13.0757 5.92905 2.79783ZM32.4321 1.38902C33.7887 1.28483 35.1711 1.36307 36.5277 1.33712C37.3625 1.28493 38.1973 1.93695 38.2753 2.79783C38.2753 3.4759 38.0927 4.15425 38.0146 4.83242C36.9189 11.8235 35.7973 18.8146 34.7015 25.8056C34.545 26.9272 34.2581 28.1271 34.5973 29.2749C34.9886 30.4226 36.7361 29.9269 37.1536 31.1268C37.4144 32.0921 37.1274 33.1093 37.0491 34.1007C36.971 35.4049 35.484 35.6917 34.4669 35.9791C32.2497 36.3963 29.5626 36.0833 27.9714 34.2571C26.8236 32.927 26.7453 31.0486 26.9803 29.3793C28.3627 20.5102 29.7452 11.6411 31.154 2.74564C31.2323 2.09342 31.7539 1.49349 32.4321 1.38902ZM84.2125 2.79783C84.2905 2.01519 84.995 1.33712 85.7776 1.33712H89.7427C90.7339 1.31088 91.5428 2.38051 91.3079 3.31942C90.3949 9.11055 89.4559 14.9017 88.5429 20.6924C89.9254 20.4839 91.4907 20.223 92.4558 19.1014C94.0729 17.2752 95.4036 15.1626 96.3947 12.9453C96.7337 12.0844 96.9164 10.8323 98.0381 10.6757C99.525 10.6235 101.038 10.6496 102.525 10.6757C103.542 10.6496 104.299 11.7974 103.96 12.7364C103.568 14.1192 102.916 15.3972 102.238 16.6233C100.725 19.0754 99.0556 21.5013 96.8642 23.4316C97.8293 26.3271 99.0555 29.1444 100.125 31.9879C100.438 32.9269 101.195 34.0224 100.49 34.9356C99.6813 36.0311 98.1684 35.4831 97.0468 35.6135C95.8729 35.4831 94.1774 36.0831 93.5252 34.7528C92.2991 31.9093 91.2819 28.988 90.0296 26.1446C89.2992 26.1704 88.5428 26.1967 87.8123 26.1185C87.7604 26.2229 87.6559 26.4314 87.6036 26.5359C87.2122 29.1444 86.795 31.7531 86.3775 34.3615C86.2209 34.9875 85.7253 35.5355 85.0472 35.5876C83.6648 35.6398 82.256 35.6135 80.8474 35.6135C80.2473 35.6135 79.6997 35.2223 79.4387 34.7006C79.1779 34.1786 79.3342 33.579 79.4129 33.0051C81.0299 22.936 82.6212 12.8668 84.2125 2.79783ZM156.705 5.6412C156.888 4.91056 157.592 4.4151 158.322 4.44105C159.366 4.46729 160.435 4.4151 161.505 4.46729C162.366 4.49324 163.044 5.35412 162.939 6.18885C162.783 7.67579 162.418 9.16274 162.313 10.6494C163.331 10.6494 164.374 10.6235 165.391 10.6494C166.304 10.6494 167.061 11.5886 166.904 12.4753C166.774 13.2843 166.591 14.0669 166.461 14.8752C166.33 15.5537 165.757 16.1014 165.105 16.2057C163.852 16.284 162.626 16.1535 161.4 16.284C160.879 19.7793 160.305 23.2747 159.757 26.7705C159.679 27.5791 159.627 28.492 160.096 29.1964C160.8 30.0573 162.026 29.744 163.018 29.8486C163.8 30.0832 164.296 30.9443 164.165 31.727C164.035 32.6137 164.009 33.5007 163.8 34.3614C163.487 35.3264 162.366 35.5092 161.505 35.7438C159.131 36.3701 156.392 36.3701 154.279 34.9874C152.323 33.657 152.009 31.0745 152.218 28.8833C152.766 24.6573 153.627 20.4576 154.096 16.2056C153.366 16.2316 152.479 16.3361 151.931 15.6838C151.305 15.0318 151.618 14.0666 151.723 13.2577C151.879 12.3969 151.853 11.2753 152.792 10.8057C153.548 10.5186 154.41 10.7275 155.218 10.6231C155.714 8.95389 156.183 7.28452 156.705 5.6412ZM141.966 14.0928C143.61 12.4494 145.592 11.093 147.862 10.4149C148.853 9.97133 150.131 10.8062 150.105 11.9017C149.923 13.3365 149.583 14.7449 149.349 16.1535C149.244 16.8579 148.644 17.458 147.94 17.5362C145.384 17.9795 143.166 19.5183 141.392 21.3445C140.949 21.8926 140.297 22.4142 140.219 23.1706C139.671 26.8225 139.097 30.4746 138.523 34.1266C138.445 34.909 137.766 35.6658 136.958 35.6136H132.993C132.08 35.6658 131.271 34.7529 131.376 33.8398C132.523 26.6139 133.671 19.4144 134.793 12.1884C134.845 11.4582 135.367 10.7539 136.123 10.6755C137.088 10.6234 138.053 10.6494 139.045 10.6494C139.827 10.6494 140.558 11.3537 140.558 12.1625C140.558 13.2841 140.453 14.4318 140.427 15.5796C141.053 15.1886 141.445 14.5624 141.966 14.0928ZM44.4577 10.7799C45.8663 10.4931 47.3271 10.7279 48.7358 10.6495C49.5445 10.5453 50.4053 11.0669 50.5356 11.8757C50.6402 12.606 50.4312 13.3104 50.3529 14.0148C49.2836 20.7189 48.2139 27.4228 47.1705 34.1268C47.0922 34.8836 46.4665 35.6399 45.6576 35.6137C44.2491 35.6137 42.8404 35.6399 41.4058 35.5878C40.5188 35.4833 39.8666 34.4662 40.1015 33.6051C41.2232 26.6405 42.2928 19.7015 43.4144 12.7365C43.4666 11.98 43.6753 11.093 44.4577 10.7799ZM128.871 11.1193C124.984 10.3886 121.02 9.86695 117.08 10.2582C113.559 10.7018 110.011 12.2931 107.846 15.1886C104.846 18.997 103.829 24.11 104.507 28.8577C104.872 31.127 105.864 33.4226 107.716 34.8312C109.437 36.1616 111.759 36.344 113.846 36.005C116.767 35.431 119.245 33.5532 121.28 31.4662C121.385 32.353 121.176 33.24 121.228 34.1009C121.28 34.9093 122.011 35.6658 122.819 35.6136H125.48C126.263 35.6136 126.915 34.8835 126.967 34.1268C128.089 27.0575 129.21 20.0143 130.306 12.9713C130.462 12.0843 129.758 11.2235 128.871 11.1193ZM121.541 23.4056C120.498 25.362 119.037 27.1359 117.393 28.6486C116.455 29.4312 115.254 30.24 113.977 29.9792C112.724 29.7184 112.124 28.4141 111.837 27.2923C111.185 24.3708 111.785 21.1882 113.428 18.658C114.159 17.4839 115.333 16.5972 116.689 16.2319C118.593 15.7623 120.602 15.9971 122.454 16.5188L122.559 16.6233C122.324 18.8926 121.88 21.1361 121.541 23.4056ZM77.6651 19.4928C77.6388 16.8841 76.9346 14.1452 75.1087 12.1886C73.8566 10.8062 71.9783 10.1018 70.1524 10.1277C67.1263 10.0236 64.283 11.5106 62.0658 13.4929C61.57 13.8843 61.231 14.4582 60.6833 14.7712C60.6833 13.9101 60.7615 13.0494 60.7352 12.1626C60.7615 11.3537 60.0049 10.6495 59.2223 10.6495H56.5615C55.7269 10.6495 55.0486 11.38 54.9964 12.1885C53.353 22.6229 51.6837 33.0572 50.0402 43.4916C49.8056 44.4567 50.6404 45.4481 51.6316 45.4219C53.0923 45.3959 54.5793 45.5263 56.0139 45.3173C57.1618 45.0043 57.1356 43.6739 57.3183 42.7089C57.7355 40.4132 58.0227 38.1177 58.2834 35.796C63.4223 36.7872 69.396 36.1093 73.2306 32.2223C76.3607 28.8053 77.8214 24.0837 77.6651 19.4928ZM70.361 22.1273C70.2047 24.5272 69.3437 26.9532 67.6743 28.7008C65.5093 30.7618 62.2222 30.4746 59.5615 29.7706C59.5096 29.6921 59.4311 29.5356 59.405 29.4575C59.8224 27.188 60.0311 24.8924 60.5529 22.6491C62.0137 20.2493 63.7874 17.8231 66.3177 16.4929C67.2568 16.0495 68.535 16.1538 69.2133 17.0147C70.361 18.4494 70.4654 20.3797 70.361 22.1273Z" stroke="#181818" stroke-width="0.0301123"/>
</svg>
