<svg width="17" height="18" viewBox="0 0 17 18" fill="none" xmlns="http://www.w3.org/2000/svg">
<path d="M11.9412 0.524414H5.07753C3.7364 0.52599 2.45067 1.05951 1.50243 2.00791C0.554183 2.95631 0.0208818 4.24214 0.0195313 5.58326L0.0195312 12.4469C0.0211073 13.788 0.554625 15.0738 1.50303 16.022C2.45143 16.9703 3.73725 17.5036 5.07838 17.5049H11.942C13.2831 17.5033 14.5689 16.9698 15.5171 16.0214C16.4654 15.073 16.9987 13.7872 17 12.4461V5.58241C16.9984 4.24129 16.4649 2.95555 15.5165 2.00731C14.5681 1.05907 13.2823 0.525765 11.9412 0.524414V0.524414ZM15.2922 12.4461C15.2922 12.8861 15.2055 13.3219 15.0371 13.7284C14.8687 14.135 14.6219 14.5044 14.3107 14.8156C13.9995 15.1268 13.6301 15.3736 13.2236 15.542C12.817 15.7104 12.3812 15.7971 11.9412 15.7971H5.07753C4.18893 15.7968 3.33681 15.4437 2.70855 14.8153C2.0803 14.1869 1.72736 13.3347 1.72736 12.4461V5.58241C1.72759 4.69382 2.08074 3.84169 2.70915 3.21343C3.33757 2.58518 4.18978 2.23224 5.07838 2.23224H11.942C12.8306 2.23247 13.6827 2.58562 14.311 3.21404C14.9393 3.84245 15.2922 4.69467 15.2922 5.58326V12.4469V12.4461Z" fill="white"/>
<path d="M8.509 4.62354C7.34501 4.62534 6.22923 5.08858 5.40624 5.91173C4.58326 6.73487 4.12023 7.85075 4.11865 9.01473C4.12 10.179 4.58305 11.2952 5.40624 12.1186C6.22944 12.9419 7.34557 13.4052 8.50985 13.4068C9.67428 13.4054 10.7906 12.9423 11.614 12.1189C12.4374 11.2955 12.9005 10.1792 12.9019 9.01473C12.9001 7.85045 12.4366 6.73441 11.6131 5.91138C10.7896 5.08834 9.67328 4.62551 8.509 4.62439V4.62354ZM8.509 11.699C7.79733 11.699 7.1148 11.4162 6.61157 10.913C6.10834 10.4098 5.82563 9.72726 5.82563 9.01558C5.82563 8.30391 6.10834 7.62138 6.61157 7.11816C7.1148 6.61493 7.79733 6.33222 8.509 6.33222C9.22067 6.33222 9.9032 6.61493 10.4064 7.11816C10.9097 7.62138 11.1924 8.30391 11.1924 9.01558C11.1924 9.72726 10.9097 10.4098 10.4064 10.913C9.9032 11.4162 9.22067 11.699 8.509 11.699V11.699Z" fill="white"/>
<path d="M12.909 5.70866C13.4901 5.70866 13.9611 5.23763 13.9611 4.65658C13.9611 4.07553 13.4901 3.60449 12.909 3.60449C12.328 3.60449 11.8569 4.07553 11.8569 4.65658C11.8569 5.23763 12.328 5.70866 12.909 5.70866Z" fill="white"/>
</svg>
