<svg width="178" height="72" viewBox="0 0 178 72" fill="none" xmlns="http://www.w3.org/2000/svg">
<path fill-rule="evenodd" clip-rule="evenodd" d="M151.459 19.505C151.779 20.3575 151.884 21.1044 151.991 21.6372C152.099 22.17 152.099 22.7028 152.205 23.129C152.345 22.6036 152.561 22.1012 152.844 21.6372C153.059 21.1044 153.484 20.3575 154.017 19.505L167.554 0H178L156.468 28.5645L164.037 44.9783H153.698L151.14 37.1976C150.927 36.6639 150.82 36.0255 150.608 35.3861C150.608 34.8524 150.5 34.213 150.5 33.5737C150.18 34.213 149.968 34.8524 149.648 35.3861C149.328 36.0255 149.008 36.6648 148.689 37.1976L143.573 44.9783H133.341L146.343 28.5645L140.055 14.2818H149.969L151.459 19.505Z" fill="#181818"/>
<path fill-rule="evenodd" clip-rule="evenodd" d="M136.43 14.2827L131.206 44.9793H122.786L123.639 39.9691C122.147 42.1003 120.441 43.7006 118.843 44.6596C117.137 45.6187 115.325 46.1515 113.193 46.1515C109.781 46.1515 107.225 44.6596 105.732 41.675C104.132 38.6904 103.812 34.6393 104.666 29.6301C105.518 24.6199 107.224 20.6772 109.889 17.6926C112.554 14.8146 115.752 13.3218 119.481 13.3218C121.401 13.3218 122.999 13.748 124.277 14.8146C125.449 15.7736 126.408 17.2664 127.155 19.291L128.008 14.2818L136.43 14.2827ZM125.771 29.631C126.198 27.1802 125.985 25.2611 125.132 23.8749C124.279 22.4897 122.894 21.8503 121.08 21.8503C119.162 21.8503 117.565 22.4897 116.284 23.8749C115.006 25.2611 114.153 27.1802 113.727 29.631C113.3 31.9763 113.513 33.8943 114.366 35.2796C115.219 36.5602 116.604 37.3052 118.416 37.3052C120.229 37.3052 121.827 36.5602 123.214 35.2796C124.493 33.8943 125.346 31.9753 125.771 29.631ZM79.8336 44.9793H88.893L91.1317 32.295C91.557 29.3104 92.6235 27.0727 94.1163 25.3668C95.6081 23.7674 97.4206 23.0215 99.6573 23.0215C100.191 23.0215 100.618 23.0215 101.151 23.1281C101.683 23.2346 102.216 23.4477 102.749 23.6609L105.307 13.748C104.882 13.748 104.562 13.6415 104.135 13.6415H103.07C100.939 13.6415 98.9133 14.2808 97.1018 15.5605C95.3959 16.9457 93.7976 18.8648 92.5179 21.5287L93.69 14.2808H85.0569L79.8336 44.9793ZM59.0489 44.9793H69.2814L75.144 9.16599H152.525L157.535 0.426258H25.9014L24.089 9.16599H64.805L59.0489 44.9793ZM18.547 44.9793L23.7693 14.2827H32.1903L31.1238 20.4641C32.7222 18.0132 34.4281 16.2017 36.2405 15.0286C38.052 13.8565 40.0776 13.3227 42.3153 13.3227C44.0203 13.3227 45.4074 13.6424 46.5786 14.2827C47.8583 14.9221 48.7108 15.7746 49.3501 17.0542C49.8829 18.0132 50.096 19.2929 50.2026 20.7847C50.2026 22.2765 49.9895 24.5152 49.4567 27.3933L46.4721 44.9803H37.3061L40.0776 28.5664C40.5038 26.1146 40.5038 24.3031 39.971 23.2365C39.5448 22.0644 38.4792 21.5316 36.9864 21.5316C35.0674 21.5316 33.5756 22.3841 32.4034 23.9834C31.2313 25.6883 30.3788 28.3533 29.7395 32.0838L27.5017 44.9812H18.547V44.9793ZM8.20789 9.16599L10.1269 0.106583H19.2929L17.4804 9.16599H8.20789ZM2.34525 44.9793L7.56854 14.2827H16.7345L11.5122 44.9793H2.34525ZM0.747815 68.9617L2.45276 68.8542C2.45276 69.2814 2.55932 69.4936 2.87899 69.7067C3.09211 69.9208 3.51835 70.0264 4.05114 70.0264C4.58394 70.0264 5.01017 69.9208 5.3308 69.8123C5.65048 69.6001 5.75704 69.387 5.8636 69.1729C5.8636 69.0673 5.8636 68.9608 5.75704 68.8533C5.65143 68.7477 5.43736 68.6392 5.22424 68.5336C5.01017 68.5336 4.58394 68.428 3.94458 68.3195C3.09211 68.1074 2.45276 67.8942 2.13213 67.6802C1.70589 67.3605 1.59934 66.9352 1.70589 66.508C1.81245 66.1883 2.02557 65.8687 2.34525 65.6555C2.55932 65.3359 2.9846 65.1237 3.5174 65.0162C3.94363 64.804 4.58299 64.804 5.22329 64.804C6.18232 64.804 6.92823 64.9096 7.46198 65.2293C7.88822 65.6546 7.99478 66.0818 7.88822 66.6155H6.18327C6.18327 66.2958 6.18327 66.0818 5.97016 65.9762C5.75704 65.8687 5.3308 65.7621 4.90457 65.7621C4.37177 65.7621 4.05209 65.8677 3.73147 65.9762C3.54123 66.0594 3.38937 66.2112 3.30618 66.4015C3.30618 66.5071 3.30618 66.6155 3.5193 66.7211C3.73242 66.9352 4.15865 67.0408 4.90552 67.1464C5.75799 67.2539 6.29078 67.468 6.61046 67.5736C7.0367 67.7877 7.24981 67.8933 7.46293 68.213C7.56949 68.427 7.56949 68.7467 7.56949 69.172C7.46293 69.4917 7.24981 69.8113 6.93014 70.131C6.5039 70.4526 6.07767 70.6648 5.65143 70.7723C5.11768 70.9844 4.47833 71.092 3.73147 71.092C2.66683 71.092 1.91996 70.8779 1.38717 70.5582C0.959982 70.132 0.747815 69.6011 0.747815 68.9617ZM10.0203 64.9106H11.7253L10.8719 68.2149C10.7653 68.6401 10.6587 69.0673 10.6587 69.1739C10.6587 69.388 10.7653 69.6011 11.085 69.8133C11.2981 69.9208 11.6187 70.0273 12.1506 70.0273C12.5768 70.0273 13.003 69.9217 13.2162 69.8133C13.5358 69.6011 13.7499 69.4936 13.8565 69.2814C13.963 69.0673 14.0696 68.7477 14.1761 68.2149L14.9221 64.9106H16.628L15.882 68.1083C15.668 68.7477 15.5624 69.2805 15.3483 69.6001C15.2417 69.9198 14.9221 70.132 14.7089 70.3451C14.3902 70.5592 13.963 70.7723 13.5368 70.8788C13.1106 70.9854 12.5778 71.0929 11.9384 71.0929C11.3275 71.1015 10.7181 71.0295 10.126 70.8788C9.80628 70.6648 9.4866 70.5592 9.27348 70.3451C9.05941 70.131 9.05941 69.9198 8.9538 69.6001C8.9538 69.2805 9.06036 68.7477 9.16787 68.1083L10.0203 64.9106ZM16.9476 68.9617L18.6535 68.8542C18.6535 69.2814 18.7601 69.4936 19.0798 69.7067C19.2929 69.9208 19.7191 70.0264 20.2519 70.0264C20.7847 70.0264 21.2109 69.9208 21.5306 69.8123C21.8503 69.6001 21.9569 69.387 22.0634 69.1729C22.0634 69.0673 22.0634 68.9608 21.9569 68.8533C21.8503 68.7477 21.7437 68.6392 21.4231 68.5336C21.21 68.5336 20.7838 68.428 20.1444 68.3195C19.2919 68.1074 18.6526 67.8942 18.4395 67.6802C17.9057 67.3605 17.7991 66.9352 17.9057 66.508C18.0123 66.1883 18.2254 65.8687 18.4395 65.6555C18.7591 65.3359 19.1844 65.1237 19.7182 65.0162C20.1444 64.804 20.6772 64.804 21.4231 64.804C22.3831 64.804 23.129 64.9096 23.6618 65.2293C24.088 65.6546 24.1946 66.0818 24.088 66.6155H22.3831C22.3831 66.2958 22.2765 66.0818 22.17 65.9762C21.9569 65.8687 21.5306 65.7621 21.1044 65.7621C20.5716 65.7621 20.2519 65.8677 19.9313 65.9762C19.7408 66.0593 19.5886 66.2112 19.505 66.4015C19.505 66.5071 19.505 66.6155 19.7191 66.7211C19.9322 66.9352 20.3594 67.0408 21.1053 67.1464C21.9578 67.2539 22.4906 67.468 22.9178 67.5736C23.2375 67.7877 23.4506 67.8933 23.6637 68.213C23.7703 68.427 23.8768 68.7467 23.7703 69.172C23.6637 69.4917 23.4506 69.8113 23.1309 70.131C22.7047 70.4526 22.2784 70.6648 21.8512 70.7723C21.3184 70.9844 20.6791 71.092 19.9322 71.092C18.8666 71.092 18.1207 70.8779 17.5879 70.5582C17.1617 70.132 16.9476 69.6011 16.9476 68.9617ZM24.7283 70.9854L26.2202 64.9106H28.8851C29.9516 64.9106 30.59 64.9106 30.9097 65.0162C31.3359 65.0162 31.6566 65.2303 31.9762 65.5499C32.1894 65.8696 32.2959 66.2968 32.1894 66.7221C32.1017 67.084 31.9176 67.4155 31.6566 67.6811C31.3369 67.8952 31.1228 68.1083 30.8041 68.3205C30.4844 68.428 30.1647 68.5345 29.8451 68.5345C29.4188 68.6401 28.7795 68.6402 28.0336 68.6402H26.968L26.4342 70.9854H24.7283ZM27.6073 65.8696L27.1811 67.6811H28.1392C28.7795 67.6811 29.3123 67.5755 29.5254 67.5755C29.7385 67.4699 29.9516 67.3614 30.0591 67.2558C30.2723 67.0418 30.3779 66.9362 30.3779 66.7221C30.4844 66.508 30.3779 66.4024 30.2713 66.1883C30.1647 66.0827 29.9516 65.9762 29.6319 65.9762C29.5254 65.8687 29.0982 65.8687 28.4588 65.8687H27.6073V65.8696ZM32.509 70.9854L34.0018 64.9106H40.1832L39.9701 65.8696H35.3871L35.0674 67.2558H39.3307L39.011 68.2149H34.8543L34.4281 69.9208H39.1176L38.7979 70.9854H32.509ZM40.2897 70.9854L41.7825 64.9106H43.3819L45.8327 68.9617L46.8983 64.9106H48.3901L46.8983 70.9854H45.1934L42.8491 67.0418L41.8891 70.9854H40.2897ZM48.7108 68.9617L50.4157 68.8542C50.4157 69.2814 50.5223 69.4936 50.8419 69.7067C51.0551 69.9208 51.4813 70.0264 52.0141 70.0264C52.4492 70.0265 52.8814 69.9541 53.2928 69.8123C53.6125 69.6001 53.719 69.387 53.8256 69.1729C53.8256 69.0673 53.8256 68.9608 53.719 68.8533C53.6125 68.7477 53.5059 68.6392 53.1862 68.5336C52.9722 68.5336 52.5469 68.428 51.9066 68.3195C51.0541 68.1074 50.4147 67.8942 50.2016 67.6802C49.6679 67.3605 49.5623 66.9352 49.6679 66.508C49.7814 66.1883 49.9636 65.8973 50.2016 65.6555C50.5213 65.3359 50.9475 65.1237 51.4803 65.0162C51.9066 64.804 52.5469 64.804 53.1862 64.804C54.1453 64.804 54.8912 64.9096 55.4249 65.2293C55.8512 65.6546 55.9577 66.0818 55.8512 66.6155H54.1453C54.2518 66.2958 54.0387 66.0818 53.9321 65.9762C53.719 65.8687 53.3984 65.7621 52.8666 65.7621C52.3328 65.7621 52.0141 65.8677 51.6944 65.9762C51.5037 66.059 51.3514 66.211 51.2682 66.4015C51.2682 66.5071 51.3747 66.6155 51.4813 66.7211C51.6954 66.9352 52.1216 67.0408 52.9731 67.1464C53.72 67.2539 54.2528 67.468 54.679 67.5736C54.9987 67.7877 55.2118 67.8933 55.4249 68.213C55.5315 68.427 55.638 68.7467 55.5315 69.172C55.4249 69.4917 55.2118 69.8113 54.8921 70.131C54.4668 70.4526 54.0397 70.6648 53.6134 70.7723C53.0806 70.9844 52.4413 71.092 51.6954 71.092C50.6298 71.092 49.8829 70.8779 49.3501 70.5582C48.9229 70.132 48.7108 69.6011 48.7108 68.9617ZM56.3849 70.9854L57.8767 64.9106H59.5817L58.0898 70.9854H56.3849ZM60.1145 67.8952C60.221 67.3614 60.5407 66.8287 60.8613 66.4034C61.181 66.0837 61.5007 65.764 61.8204 65.5509C62.2466 65.3368 62.6728 65.1256 63.0991 65.0171C63.6319 64.9115 64.2712 64.805 64.9115 64.805C66.1902 64.805 67.0427 65.0171 67.6821 65.6565C68.3214 66.1902 68.4289 66.9371 68.2158 67.8961C68.0027 68.8552 67.4699 69.602 66.6165 70.2414C65.6574 70.7751 64.6974 71.0939 63.4197 71.0939C62.14 71.0939 61.2876 70.7742 60.6482 70.2414C60.1145 69.7067 59.9013 68.9617 60.1145 67.8952ZM61.8204 67.8952C61.7138 68.6401 61.8204 69.0673 62.14 69.4936C62.4597 69.8133 62.9925 70.0273 63.6319 70.0273C64.3778 70.0273 64.9115 69.8133 65.4434 69.4936C65.9771 69.0683 66.2958 68.6411 66.5099 67.8952C66.6165 67.2558 66.6165 66.723 66.2968 66.2968C65.8706 65.9771 65.4443 65.8696 64.6975 65.8696C63.9506 65.8696 63.4187 65.9771 62.8859 66.2968C62.3532 66.7221 62.0335 67.2558 61.8204 67.8952ZM68.8552 70.9854L70.347 64.9106H71.9463L74.3981 68.9617L75.3572 64.9106H76.9555L75.4628 70.9854H73.7578L71.306 67.0418L70.347 70.9854H68.8552ZM82.2844 70.9854L83.5641 65.8696H81.1123L81.3254 64.9106H87.934L87.7208 65.8696H85.269L83.9903 70.9854H82.2844ZM87.6133 70.9854L89.1061 64.9106H95.2884L94.9688 65.8696H90.4923L90.1707 67.2558H94.3284L94.1163 68.2149H89.9595L89.5323 69.9208H94.2219L93.9022 70.9854H87.6133ZM101.258 68.7477L102.749 69.0673C102.43 69.7067 101.79 70.2395 101.151 70.5592C100.51 70.8788 99.7649 71.0929 98.8039 71.0929C97.7393 71.0929 96.8859 70.7732 96.3531 70.2404C95.7137 69.7067 95.6081 68.9617 95.8193 68.0008C96.0334 66.9362 96.5662 66.1893 97.4196 65.6555C98.2721 65.0162 99.3377 64.804 100.51 64.804C101.471 64.804 102.321 65.0162 102.855 65.4434C103.175 65.6555 103.282 66.0827 103.389 66.508L101.683 66.8277C101.683 66.508 101.471 66.2959 101.258 66.0827C100.938 65.8687 100.618 65.8687 100.191 65.8687C99.5517 65.8687 99.0189 65.9762 98.4871 66.2959C98.0599 66.6155 97.7402 67.1474 97.5262 67.8942C97.4206 68.6392 97.4206 69.1729 97.7402 69.4926C98.0599 69.8123 98.4871 70.0264 99.1265 70.0264C99.5517 70.0264 99.9789 69.9208 100.299 69.7067C100.724 69.4936 101.044 69.1739 101.258 68.7477ZM103.814 70.9854L105.307 64.9106H107.013L106.373 67.2558H109.677L110.316 64.9106H111.916L110.424 70.9854H108.824L109.464 68.3205H106.159L105.52 70.9854H103.814ZM112.236 70.9854L113.728 64.9106H115.326L117.777 68.9617L118.736 64.9106H120.335L118.844 70.9854H117.138L114.793 67.0418L113.728 70.9854H112.236ZM120.975 67.8952C121.189 67.3614 121.402 66.8287 121.827 66.4034C122.068 66.0415 122.399 65.7479 122.786 65.5509C123.145 65.3104 123.541 65.1302 123.958 65.0171C124.598 64.9115 125.131 64.805 125.878 64.805C127.051 64.805 128.01 65.0171 128.543 65.6565C129.183 66.1902 129.395 66.9371 129.183 67.8961C128.863 68.8552 128.33 69.602 127.477 70.2414C126.624 70.7751 125.557 71.0939 124.279 71.0939C123.107 71.0939 122.148 70.7742 121.509 70.2414C120.975 69.7067 120.762 68.9617 120.975 67.8952ZM122.787 67.8952C122.573 68.6401 122.682 69.0673 123.001 69.4936C123.427 69.8133 123.854 70.0273 124.6 70.0273C125.239 70.0273 125.88 69.8133 126.306 69.4936C126.839 69.0683 127.265 68.6411 127.372 67.8952C127.584 67.2558 127.478 66.723 127.158 66.2968C126.838 65.9771 126.306 65.8696 125.558 65.8696C124.918 65.8696 124.279 65.9771 123.746 66.2968C123.32 66.7221 122.895 67.2558 122.787 67.8952ZM129.715 70.9854L131.206 64.9106H132.912L131.634 69.9208H135.897L135.685 70.9854H129.715ZM137.178 67.8952C137.39 67.3614 137.603 66.8287 138.029 66.4034C138.27 66.041 138.601 65.7473 138.99 65.5509C139.415 65.3368 139.735 65.1256 140.162 65.0171C140.793 64.8823 141.435 64.8113 142.08 64.805C143.252 64.805 144.211 65.0171 144.851 65.6565C145.384 66.1902 145.598 66.9371 145.384 67.8961C145.065 68.8552 144.532 69.602 143.679 70.2414C142.827 70.7751 141.761 71.0939 140.483 71.0939C139.311 71.0939 138.35 70.7742 137.818 70.2414C137.178 69.7067 136.963 68.9617 137.178 67.8952ZM138.989 67.8952C138.775 68.6401 138.882 69.0673 139.201 69.4936C139.628 69.8133 140.054 70.0273 140.801 70.0273C141.441 70.0273 142.08 69.8133 142.505 69.4936C143.039 69.0683 143.466 68.6411 143.572 67.8952C143.786 67.2558 143.678 66.723 143.358 66.2968C143.038 65.9771 142.505 65.8696 141.866 65.8696C141.121 65.8696 140.482 65.9771 139.948 66.2968C139.521 66.7221 139.095 67.2558 138.989 67.8952ZM150.18 68.7477L150.499 67.6811H154.123L153.484 70.132C153.059 70.346 152.525 70.5592 151.78 70.7732C151.125 70.9825 150.442 71.0904 149.754 71.0929C148.902 71.0929 148.262 70.8788 147.623 70.6657C147.089 70.346 146.662 70.0264 146.451 69.4936C146.237 68.9617 146.237 68.4289 146.343 67.8952C146.558 67.2558 146.877 66.723 147.304 66.1893C147.836 65.764 148.477 65.3368 149.116 65.1247C149.648 64.9106 150.395 64.805 151.14 64.805C152.206 64.805 152.953 64.9106 153.485 65.2303C154.019 65.5499 154.232 65.9771 154.337 66.509L152.526 66.8286C152.526 66.509 152.312 66.2968 152.101 66.0837C151.781 65.8696 151.354 65.8696 150.928 65.8696C150.182 65.8696 149.542 65.9771 149.008 66.2968C148.583 66.6165 148.263 67.1483 148.156 67.7886C147.944 68.5336 148.05 69.0673 148.37 69.4926C148.69 69.8123 149.117 70.0264 149.862 70.0264C150.182 70.0264 150.609 69.9208 150.928 69.8123C151.354 69.7067 151.673 69.6001 151.993 69.4926L152.207 68.7477H150.18ZM157.109 70.9854L157.64 68.428L155.509 64.9106H157.534L158.813 67.2558L161.371 64.9106H163.289L159.346 68.428L158.707 70.9854H157.109ZM0 59.5817H164.142L165.848 52.0131H1.70589L0 59.5817Z" fill="#181818"/>
</svg>
