<svg width="144" height="49" viewBox="0 0 144 49" fill="none" xmlns="http://www.w3.org/2000/svg">
<path d="M69.5584 23.2407L75.8795 31.3678H71.412L66.1127 24.2626V31.3678H62.3818V15.2562H66.1127V22.3852L71.4357 15.2324H75.8557L69.5584 23.2407ZM87.4048 26.7815H79.2302C79.3014 28.2311 80.2757 29.0152 81.8204 29.0152C82.9135 29.0152 83.6026 28.7301 83.8878 28.0172H87.3335C87.0008 30.2034 84.767 31.653 81.8204 31.653C78.042 31.653 75.7369 29.5143 75.7369 25.8309C75.7369 22.1951 78.1133 20.0089 81.7253 20.0089C85.171 20.0089 87.5236 22.1476 87.5236 25.2844C87.4998 25.7834 87.4761 26.2824 87.4048 26.7815ZM84.0304 24.5952C84.0066 23.1457 83.1749 22.3615 81.6778 22.3615C80.1807 22.3615 79.2302 23.2645 79.2064 24.5952H84.0304ZM89.5197 20.2703H93.0367V21.8624C93.6784 20.6267 94.9616 19.9376 96.625 19.9376C99.3103 19.9376 100.689 21.4585 100.689 24.4764V31.3441H97.1241V25.6646C97.1241 23.811 96.6013 22.9556 95.1755 22.9556C93.7496 22.9556 93.0367 23.8823 93.0367 25.5695V31.3678H89.5197V20.2703ZM110.337 28.54V31.3441C109.552 31.4629 108.768 31.5342 107.984 31.5342C106.321 31.5342 104.039 31.154 104.039 27.4469V23.0506H102.281V20.2703H104.039V16.9672H107.556V20.2703H110.075V23.0506H107.58V26.734C107.58 28.3736 108.245 28.6113 109.125 28.6113C109.529 28.6113 109.933 28.5875 110.337 28.54ZM111.952 17.1573C111.952 15.9691 112.927 15.0186 114.115 15.0186C115.303 15.0186 116.254 15.9929 116.254 17.181C116.254 18.3692 115.279 19.3197 114.091 19.3197C113.236 19.3197 112.452 18.7969 112.119 17.989C112 17.7276 111.929 17.4424 111.952 17.1573ZM112.356 20.2703H115.85V31.3441H112.356V20.2703ZM117.917 25.8072C117.917 22.3139 120.198 19.9851 123.858 19.9851C127.161 19.9851 129.324 21.7436 129.609 24.5002H126.092C125.83 23.4784 125.165 22.9793 123.882 22.9793C122.361 22.9793 121.434 24.0012 121.434 25.8309C121.434 27.6607 122.361 28.6826 123.882 28.6826C125.165 28.6826 125.83 28.2311 126.092 27.2568H129.609C129.324 29.942 127.161 31.6768 123.858 31.6768C120.175 31.653 117.917 29.3004 117.917 25.8072ZM131.13 25.8072C131.13 22.4328 133.482 19.9851 137.308 19.9851C141.134 19.9851 143.463 22.4565 143.463 25.8072C143.463 29.1578 141.11 31.6292 137.308 31.6292C133.506 31.6292 131.13 29.1816 131.13 25.8072ZM139.946 25.8072C139.946 24.12 138.948 22.9318 137.308 22.9318C135.645 22.9318 134.67 24.12 134.67 25.8072C134.67 27.4944 135.621 28.6826 137.308 28.6826C138.995 28.6826 139.946 27.4944 139.946 25.8072Z" fill="#363636"/>
<path fill-rule="evenodd" clip-rule="evenodd" d="M48.9782 24.0487C48.9782 37.3304 38.2112 48.0973 24.9295 48.0973C11.6478 48.0973 0.880859 37.3304 0.880859 24.0487C0.880859 10.7669 11.6478 0 24.9295 0C38.2112 0 48.9782 10.7669 48.9782 24.0487ZM28.1856 24.0486C28.1618 22.2663 26.7122 20.8167 24.93 20.8405C24.0745 20.8405 23.2428 21.1969 22.6487 21.8148C22.0546 22.4089 21.7219 23.2406 21.7219 24.0961C21.7457 25.8784 23.1952 27.3279 24.9775 27.3042C26.7598 27.2804 28.2093 25.8308 28.1856 24.0486ZM40.1386 21.8386H33.2472C30.4906 21.8386 30.5382 26.2586 33.271 26.2586H38.2138C41.0178 26.2586 40.5663 22.9317 40.4 22.0524C40.3762 22.0049 40.3525 21.9574 40.3049 21.9099C40.2574 21.8623 40.2099 21.8386 40.1386 21.8386ZM9.72133 26.2586H16.6365C19.3931 26.2586 19.3455 21.8386 16.6127 21.8386H11.6462C8.84208 21.8386 9.29359 25.1654 9.45993 26.0447C9.4837 26.0922 9.50746 26.1398 9.55499 26.1873C9.60251 26.2348 9.65004 26.2586 9.72133 26.2586ZM34.1027 11.7391L29.2074 16.6344C27.2588 18.5592 30.4431 21.6485 32.3442 19.7711L35.8612 16.2541C37.8573 14.258 35.172 12.2143 34.4354 11.7153C34.3878 11.6678 34.3403 11.6678 34.269 11.6678C34.1977 11.6678 34.1502 11.6916 34.1027 11.7391ZM15.7335 36.3581L20.6288 31.4628C22.5774 29.5379 19.4168 26.4249 17.492 28.326L13.975 31.843C11.9789 33.8391 14.6641 35.8828 15.4008 36.3818C15.4483 36.4293 15.4959 36.4293 15.5672 36.4293C15.6384 36.4293 15.686 36.4056 15.7335 36.3581ZM22.72 8.83993V15.7313C22.72 18.4879 27.14 18.4404 27.14 15.7076V10.7648C27.14 7.96068 23.8131 8.41219 22.9338 8.57853C22.8863 8.60229 22.8388 8.62606 22.7913 8.67359C22.7437 8.72112 22.72 8.76864 22.72 8.83993ZM27.14 39.2572V32.342C27.14 29.5617 22.72 29.633 22.72 32.3658V37.3324C22.72 40.1364 26.0469 39.6849 26.9261 39.5186C26.9736 39.4948 27.0212 39.4711 27.0687 39.4235C27.1162 39.376 27.14 39.3285 27.14 39.2572ZM12.5967 14.8521L17.492 19.7474C19.4406 21.696 22.5299 18.5354 20.6288 16.6106L17.1118 13.0936C15.1156 11.0975 13.072 13.7827 12.573 14.5194C12.5254 14.5669 12.5254 14.6145 12.5254 14.6858C12.5254 14.757 12.5492 14.8046 12.5967 14.8521ZM37.2395 33.245L32.3442 28.3498C30.3956 26.4012 27.3063 29.5617 29.2074 31.4865L32.7244 35.0035C34.7205 36.9997 36.7642 34.3144 37.2632 33.5777C37.3107 33.5302 37.3107 33.4827 37.3107 33.4114C37.3107 33.3401 37.287 33.2926 37.2395 33.245Z" fill="#363636"/>
</svg>
