<svg width="202" height="68" viewBox="0 0 202 68" fill="none" xmlns="http://www.w3.org/2000/svg">
<path d="M97.2283 32.8647L106.11 44.284H99.8327L92.3867 34.3004V44.284H87.1445V21.6457H92.3867V31.6626L99.8661 21.6123H106.077L97.2283 32.8647ZM122.304 37.8398H110.818C110.918 39.8765 112.287 40.9784 114.457 40.9784C115.993 40.9784 116.962 40.5777 117.362 39.576H122.204C121.736 42.6479 118.598 44.6847 114.457 44.6847C109.148 44.6847 105.91 41.6796 105.91 36.5042C105.91 31.3955 109.249 28.3236 114.324 28.3236C119.165 28.3236 122.471 31.3287 122.471 35.7362C122.438 36.4374 122.404 37.1386 122.304 37.8398ZM117.563 34.7679C117.529 32.7311 116.361 31.6292 114.257 31.6292C112.154 31.6292 110.818 32.8981 110.785 34.7679H117.563ZM125.276 28.6909H130.217V30.928C131.119 29.1918 132.922 28.2235 135.259 28.2235C139.032 28.2235 140.969 30.3604 140.969 34.6009V44.2506H135.961V36.2704C135.961 33.666 135.226 32.464 133.223 32.464C131.219 32.464 130.217 33.7662 130.217 36.1369V44.284H125.276V28.6909ZM154.525 40.3106V44.2506C153.423 44.4176 152.322 44.5177 151.22 44.5177C148.882 44.5177 145.677 43.9835 145.677 38.7747V32.5975H143.206V28.6909H145.677V24.0497H150.619V28.6909H154.158V32.5975H150.652V37.773C150.652 40.0769 151.587 40.4108 152.822 40.4108C153.39 40.4108 153.958 40.3774 154.525 40.3106ZM156.796 24.3169C156.796 22.6474 158.165 21.3118 159.834 21.3118C161.504 21.3118 162.839 22.6808 162.839 24.3502C162.839 26.0197 161.47 27.3553 159.801 27.3553C158.599 27.3553 157.497 26.6208 157.03 25.4855C156.863 25.1182 156.762 24.7175 156.796 24.3169ZM157.363 28.6909H162.272V44.2506H157.363V28.6909ZM165.177 36.4708C165.177 31.5625 168.382 28.2902 173.524 28.2902C178.165 28.2902 181.204 30.7611 181.604 34.6343H176.663C176.296 33.1986 175.361 32.4974 173.558 32.4974C171.421 32.4974 170.118 33.9331 170.118 36.5042C170.118 39.0752 171.421 40.5109 173.558 40.5109C175.361 40.5109 176.296 39.8765 176.663 38.5076H181.604C181.204 42.2806 178.165 44.7181 173.524 44.7181C168.349 44.6847 165.177 41.3791 165.177 36.4708ZM183.741 36.4708C183.741 31.7294 187.047 28.2902 192.423 28.2902C197.799 28.2902 201.071 31.7628 201.071 36.4708C201.071 41.1787 197.765 44.6513 192.423 44.6513C187.08 44.6513 183.741 41.2121 183.741 36.4708ZM196.129 36.4708C196.129 34.1001 194.727 32.4306 192.423 32.4306C190.086 32.4306 188.717 34.1001 188.717 36.4708C188.717 38.8414 190.052 40.5109 192.423 40.5109C194.794 40.5109 196.129 38.8414 196.129 36.4708Z" fill="#F0F0F0"/>
<path fill-rule="evenodd" clip-rule="evenodd" d="M68.3125 33.9999C68.3125 52.6619 53.184 67.7905 34.522 67.7905C15.86 67.7905 0.731445 52.6619 0.731445 33.9999C0.731445 15.3379 15.86 0.209351 34.522 0.209351C53.184 0.209351 68.3125 15.3379 68.3125 33.9999ZM39.0964 33.9998C39.063 31.4955 37.0262 29.4588 34.522 29.4921C33.32 29.4921 32.1513 29.993 31.3166 30.8611C30.4818 31.6959 30.0144 32.8645 30.0144 34.0666C30.0478 36.5708 32.0845 38.6076 34.5888 38.5742C37.093 38.5408 39.1298 36.504 39.0964 33.9998ZM55.8915 30.8945H46.2085C42.3352 30.8945 42.402 37.105 46.2419 37.105H53.1869C57.127 37.105 56.4925 32.4305 56.2588 31.195C56.2254 31.1283 56.192 31.0615 56.1253 30.9947C56.0585 30.9279 55.9917 30.8945 55.8915 30.8945ZM13.1525 37.105H22.8689C26.7422 37.105 26.6754 30.8945 22.8356 30.8945H15.8571C11.9171 30.8945 12.5515 35.5691 12.7852 36.8045C12.8186 36.8713 12.852 36.9381 12.9188 37.0049C12.9855 37.0717 13.0523 37.105 13.1525 37.105ZM47.4105 16.7038L40.5322 23.5821C37.7942 26.2867 42.2685 30.6274 44.9396 27.9896L49.8814 23.0479C52.6861 20.2432 48.913 17.3716 47.878 16.6704C47.8112 16.6037 47.7444 16.6037 47.6442 16.6037C47.5441 16.6037 47.4773 16.6371 47.4105 16.7038ZM21.6001 51.2957L28.4784 44.4174C31.2164 41.7128 26.7756 37.3388 24.071 40.01L19.1293 44.9517C16.3245 47.7564 20.0976 50.6279 21.1327 51.3291C21.1994 51.3959 21.2662 51.3959 21.3664 51.3959C21.4666 51.3959 21.5333 51.3625 21.6001 51.2957ZM31.4167 12.6303V22.3133C31.4167 26.1866 37.6273 26.1198 37.6273 22.2799V15.3348C37.6273 11.3948 32.9527 12.0292 31.7173 12.263C31.6505 12.2964 31.5837 12.3298 31.5169 12.3965C31.4501 12.4633 31.4167 12.5301 31.4167 12.6303ZM37.6273 55.3693V45.6528C37.6273 41.7462 31.4167 41.8464 31.4167 45.6862V52.6647C31.4167 56.6047 36.0913 55.9703 37.3268 55.7366C37.3935 55.7032 37.4603 55.6698 37.5271 55.603C37.5939 55.5363 37.6273 55.4695 37.6273 55.3693ZM17.1927 21.0779L24.071 27.9562C26.8089 30.6942 31.1496 26.2533 28.4784 23.5488L23.5367 18.607C20.732 15.8023 17.8605 19.5754 17.1593 20.6104C17.0925 20.6772 17.0925 20.744 17.0925 20.8442C17.0925 20.9443 17.1259 21.0111 17.1927 21.0779ZM51.818 46.9217L44.9396 40.0434C42.2017 37.3054 37.861 41.7462 40.5322 44.4508L45.4739 49.3925C48.2786 52.1973 51.1502 48.4242 51.8514 47.3891C51.9181 47.3223 51.9181 47.2556 51.9181 47.1554C51.9181 47.0552 51.8847 46.9884 51.818 46.9217Z" fill="#F0F0F0"/>
</svg>
