<svg width="16" height="15" viewBox="0 0 16 15" fill="none" xmlns="http://www.w3.org/2000/svg">
<path d="M15.3353 9.27804V14.7137H12.1844V9.64121C12.1844 8.36793 11.7287 7.49898 10.5877 7.49898C9.71729 7.49898 9.19827 8.08416 8.97038 8.6517C8.88804 8.8546 8.86599 9.13689 8.86599 9.41919V14.7137H5.71367C5.71367 14.7137 5.75631 6.12426 5.71367 5.23473H8.86599V6.57711L8.8454 6.60798H8.86599V6.57858C9.28502 5.93165 10.0319 5.01124 11.7066 5.01124C13.7797 5.01124 15.3353 6.36686 15.3353 9.27804V9.27804ZM2.41579 0.663574C1.33807 0.663574 0.632324 1.37226 0.632324 2.30149C0.632324 3.21307 1.31748 3.94087 2.37463 3.94087H2.39521C3.49499 3.94087 4.17868 3.2116 4.17868 2.30149C4.1581 1.37226 3.49499 0.663574 2.41579 0.663574V0.663574ZM0.819052 14.7137H3.97137V5.23473H0.819052V14.7137V14.7137Z" fill="white"/>
</svg>
