<svg width="202" height="55" viewBox="0 0 202 55" fill="none" xmlns="http://www.w3.org/2000/svg">
<path d="M172.436 51.3188C175.249 51.5915 178.061 51.8844 180.866 52.1874L187.06 36.8944L192.947 53.598C195.968 53.9765 198.987 54.3737 201.997 54.7885L191.676 25.4975L202 0.00202003H193.256L193.165 0.127262L187.588 13.9005L182.691 0.00404005H174.058L182.971 25.2981L172.437 51.3188H172.436ZM165.907 50.7195V0.00202003H157.277V50.0078C160.155 50.23 163.035 50.469 165.907 50.7195ZM101.077 47.8834C103.407 47.8834 105.734 47.9009 108.057 47.9198V29.287H118.425V21.3524H108.058V7.94611H119.998V0.00202003H99.3941V47.8901C99.9536 47.8901 100.516 47.8814 101.077 47.8834ZM74.2824 48.3682C77.1576 48.2658 80.0355 48.1797 82.9174 48.1096V7.94746H90.984V0.00404005H66.2158V7.94746H74.2838V48.3682H74.2824ZM8.27874 53.7159V23.4996L18.4974 52.4958C21.6399 52.143 24.7871 51.811 27.943 51.4972V0.00269337H19.6623V31.3017L8.63561 0.00269337H0V54.802H0.0518474C2.78764 54.4236 5.53285 54.064 8.27874 53.7159ZM57.894 7.94544V0.00269337H37.2877V50.6387C44.1436 50.0469 51.0074 49.5506 57.8771 49.1499V41.1998C53.8936 41.4314 49.9182 41.6981 45.9522 41.995V29.2904H56.3197V21.351H45.9522V7.94544H57.894ZM137.102 40.82V0H128.434V48.3971C135.329 48.6503 142.197 49.0032 149.042 49.4476V41.4927C145.07 41.2362 141.09 41.014 137.102 40.82Z" fill="#181818"/>
</svg>
