<svg width="108" height="36" viewBox="0 0 108 36" fill="none" xmlns="http://www.w3.org/2000/svg">
<path d="M-38.2901 34.4906C-40.3932 34.3707 -42.4992 34.3104 -44.6057 34.3098C-45.3677 34.3098 -46.1196 34.3199 -46.861 34.3401C-47.6036 34.3614 -48.3754 34.3905 -49.1771 34.4297C-49.2972 34.4297 -49.3676 34.3607 -49.3874 34.2198C-49.4084 34.0798 -49.3571 33.9902 -49.2361 33.9499C-47.9947 33.5895 -47.1915 33.1097 -46.8307 32.5097C-46.4699 31.9096 -46.2887 30.9698 -46.2887 29.6894V17.2085H-64.754V29.8096C-64.754 32.3301 -63.4507 33.7106 -60.8443 33.9503C-60.7234 33.9503 -60.6635 34.031 -60.6635 34.1904C-60.6635 34.351 -60.7234 34.4301 -60.8443 34.4301H-62.7089C-63.2707 34.4301 -63.8718 34.451 -64.5137 34.4898C-64.955 34.4898 -65.4662 34.4999 -66.0471 34.5197C-66.6287 34.5406 -67.1404 34.5495 -67.5801 34.5495H-69.0839C-69.6057 34.5495 -70.1274 34.5298 -70.6472 34.4898C-70.8078 34.4898 -70.9991 34.4809 -71.2188 34.4603C-71.4088 34.4416 -71.5997 34.4315 -71.7907 34.4301C-71.9116 34.4301 -71.9812 34.3607 -72.001 34.2202C-72.022 34.0802 -71.9711 33.9906 -71.8506 33.9503C-71.2102 33.83 -70.6885 33.7009 -70.2872 33.5604C-69.8868 33.4208 -69.5855 33.2211 -69.3852 32.96C-69.1846 32.7001 -69.0544 32.37 -68.9941 31.9697C-68.9342 31.5706 -68.9047 31.0501 -68.9047 30.4101V4.84715C-68.9047 3.96744 -69.2554 3.30765 -69.9571 2.86741C-70.6589 2.42794 -71.41 2.18784 -72.2125 2.1475V1.66769C-70.5287 1.78794 -68.865 1.84806 -67.2201 1.84806C-66.5385 1.84806 -65.8573 1.83875 -65.1746 1.8178C-64.4935 1.79841 -63.8119 1.78793 -63.13 1.78793H-61.8664C-61.7463 1.78793 -61.686 1.86861 -61.686 2.02803C-61.686 2.18862 -61.7463 2.26813 -61.8664 2.26813C-62.588 2.26813 -63.2404 2.48806 -63.8213 2.92831C-64.4033 3.36894 -64.6933 3.98838 -64.6933 4.78858V15.2296H-46.2876V5.02829C-46.2876 4.06751 -46.5387 3.45815 -47.0402 3.19749C-47.5422 2.938 -48.1526 2.70799 -48.8746 2.50784C-49.0258 2.47067 -49.1763 2.43045 -49.326 2.38721C-49.4757 2.34507 -49.6261 2.30499 -49.7769 2.26697C-49.8975 2.22702 -49.9476 2.1378 -49.927 1.997C-49.9076 1.85737 -49.838 1.78716 -49.7163 1.78716C-47.0433 1.95648 -44.3641 2.00644 -41.6866 1.93688C-40.8655 1.9171 -40.0537 1.88723 -39.2504 1.84728C-39.1303 1.84728 -39.0607 1.91749 -39.0397 2.05712C-39.0199 2.19754 -39.0696 2.28791 -39.1906 2.32709C-40.0731 2.48728 -40.7749 2.7173 -41.2955 3.01674C-41.8172 3.31696 -42.0777 3.96744 -42.0777 4.96701V29.5699C-42.0777 30.9306 -41.7772 31.9504 -41.1761 32.6303C-40.5739 33.3114 -39.5922 33.7703 -38.2283 34.0108L-38.2901 34.4906ZM-6.03175 34.9405C-6.75002 35.1177 -7.48697 35.2083 -8.22686 35.2105C-9.42978 35.2105 -10.5126 34.991 -11.4748 34.5503C-12.4371 34.1109 -13.2994 33.5511 -14.0607 32.87C-14.8227 32.1905 -15.5342 31.41 -16.1959 30.5299C-16.8569 29.651 -17.4887 28.7505 -18.0901 27.8299C-18.6571 26.9829 -19.2486 26.1525 -19.8638 25.3397C-20.487 24.5205 -21.1678 23.78 -21.9096 23.1195C-22.6514 22.4589 -23.4535 21.9298 -24.3154 21.5292C-25.1778 21.1296 -26.1497 20.9287 -27.2325 20.9287H-28.1952C-28.4767 20.9287 -28.7768 20.9691 -29.0972 21.049V29.5699C-29.0972 30.7305 -28.7465 31.7207 -28.0447 32.5399C-27.3433 33.3603 -26.4114 33.83 -25.2481 33.9503V34.4301C-26.1597 34.3515 -27.072 34.2815 -27.9848 34.2202C-28.8956 34.16 -29.808 34.1301 -30.7208 34.1306C-31.6441 34.1306 -32.5364 34.171 -33.398 34.2509C-34.2611 34.3316 -35.153 34.4309 -36.0748 34.5503C-36.1957 34.5907 -36.2855 34.5414 -36.3454 34.4002C-36.4049 34.2606 -36.3749 34.1504 -36.2552 34.0701C-35.4135 33.6706 -34.7121 33.0709 -34.1499 32.2696C-33.5893 31.4698 -33.3082 30.6098 -33.3082 29.689V5.74743C-33.3082 4.82737 -33.6394 4.01748 -34.3007 3.31696C-34.9621 2.61722 -35.7544 2.14634 -36.6763 1.90624C-36.7968 1.86667 -36.8473 1.77707 -36.8271 1.63666C-36.8069 1.49702 -36.7369 1.42643 -36.6168 1.42643H-24.7672C-23.5246 1.42643 -22.3007 1.57654 -21.0978 1.87637C-19.8953 2.1762 -18.8335 2.64709 -17.9105 3.28671C-16.9887 3.92671 -16.2472 4.76647 -15.6847 5.80677C-15.124 6.84746 -14.8429 8.08713 -14.8429 9.52733C-14.8429 11.4473 -15.3744 13.2684 -16.437 14.9875C-17.4999 16.7082 -18.6927 18.1887 -20.0158 19.4284C-19.5745 19.9078 -19.094 20.5187 -18.5718 21.2584C-18.0231 22.0376 -17.4619 22.8079 -16.8883 23.569C-15.9738 24.8125 -15.0413 26.0428 -14.091 27.2593C-13.1093 28.5195 -12.0763 29.6595 -10.9935 30.6797C-9.91111 31.7002 -8.78905 32.5004 -7.6254 33.0799C-6.46292 33.6601 -5.27943 33.8704 -4.0769 33.7102L-3.89613 34.19C-4.58069 34.5117 -5.29623 34.7632 -6.03175 34.9405ZM-19.5652 8.62744C-19.8649 7.58753 -20.3167 6.6477 -20.9178 5.80716C-21.5119 4.97415 -22.2691 4.26994 -23.1436 3.73704C-24.0262 3.19672 -25.0483 2.92714 -26.2115 2.92714C-26.6925 2.92714 -27.1738 2.95701 -27.6551 3.01674C-28.1336 3.07623 -28.6003 3.2078 -29.0392 3.40695V18.3485C-28.3577 18.4688 -27.696 18.5491 -27.0545 18.5882C-26.3938 18.6289 -25.732 18.6488 -25.0701 18.648C-22.8248 18.648 -21.2712 18.039 -20.4088 16.8176C-19.5469 15.5977 -19.1157 13.9073 -19.1157 11.7468C-19.1138 10.708 -19.2635 9.66813 -19.5652 8.62744ZM24.5175 25.3994C23.5747 27.3799 22.3224 29.0897 20.7579 30.5299C19.1942 31.9705 17.3801 33.0911 15.3152 33.8905C13.2496 34.6911 11.075 35.091 8.78934 35.091C6.90332 35.091 4.94887 34.631 2.92482 33.7106C0.901658 32.7919 -0.973463 31.5784 -2.63915 30.1099C-4.32339 28.6309 -5.71684 26.9502 -6.81984 25.0697C-7.92284 23.1893 -8.47375 21.2894 -8.47375 19.369C-8.47375 16.4495 -8.20315 13.9383 -7.66157 11.8379C-7.11998 9.73756 -6.24831 7.95835 -5.04539 6.49681C-3.8413 5.03683 -2.25853 3.83711 -0.29319 2.89689C1.67098 1.95744 4.07681 1.18672 6.92431 0.586278L7.70657 0.526157C10.2726 0.326398 12.6582 0.696825 14.8638 1.63627C17.0687 2.5765 18.9932 3.89684 20.6385 5.59654C22.2823 7.2974 23.5754 9.30701 24.5183 11.6269C25.4599 13.9472 25.9315 16.3874 25.9315 18.9478C25.9311 21.2689 25.4588 23.4189 24.5175 25.3994ZM8.19099 2.50978C7.69017 2.51742 7.19006 2.55044 6.69259 2.60869L6.69221 32.903C7.17664 33.0073 7.67585 33.0799 8.19061 33.1229L8.19099 2.50978ZM11.7745 32.9651C12.8452 32.7758 13.8355 32.4546 14.7445 32.0004C16.3078 31.22 17.62 30.1808 18.6837 28.8795C19.7455 27.5801 20.5483 26.0701 21.0899 24.3494C21.6307 22.6296 21.9009 20.8092 21.9009 18.8888C21.9009 16.9293 21.6101 14.9693 21.0297 13.0082C20.448 11.0486 19.5857 9.28801 18.4434 7.72795C17.3011 6.16789 15.8961 4.90766 14.2328 3.94727C13.4611 3.50254 12.6349 3.15926 11.7749 2.92598L11.7745 32.9651ZM10.7313 2.69403C10.2357 2.6079 9.73536 2.55181 9.23295 2.52607V33.1699H9.33015C9.8103 33.1699 10.278 33.1481 10.7313 33.1055V2.69403ZM5.65801 2.7716C4.72647 2.95701 3.85481 3.23822 3.04419 3.61679C1.46025 4.35765 0.127092 5.37778 -0.955302 6.67795C-2.03808 7.97852 -2.87049 9.47846 -3.45174 11.1782C-4.03337 12.879 -4.32341 14.6889 -4.32341 16.6089C-4.32341 18.6096 -4.02287 20.5901 -3.42141 22.5493C-2.81995 24.5096 -1.92806 26.2795 -0.74458 27.8594C0.437733 29.4404 1.87158 30.72 3.55583 31.7002C4.22019 32.0867 4.9255 32.3986 5.6588 32.6299L5.65801 2.7716ZM61.6113 2.11686C61.591 2.09708 61.5409 2.10794 61.4612 2.14711C60.8609 2.3203 60.2688 2.52052 59.6867 2.74716C59.0647 2.98726 58.7552 3.40734 58.7552 4.00739L58.8151 18.4692V20.9295C58.8156 23.2203 58.7752 25.511 58.6942 27.8004C58.6126 30.0739 58.4723 32.3449 58.2735 34.6112C58.2735 34.6919 58.2226 34.7613 58.1226 34.8211C58.0223 34.8808 57.9325 34.8715 57.8524 34.7912C55.9275 33.1508 54.0038 31.3809 52.0781 29.4807C50.1477 27.5756 48.2527 25.635 46.394 23.6602C44.5331 21.6842 42.6986 19.6839 40.8906 17.6596C39.1457 15.7074 37.4213 13.737 35.7178 11.7487C35.1977 11.1956 34.6963 10.6254 34.2143 10.0389C33.7322 9.45241 33.2306 8.88204 32.7105 8.32878C32.5928 9.36484 32.5326 10.4066 32.5301 11.4493C32.5301 12.9698 32.5499 14.4899 32.5904 16.0096C32.63 17.5301 32.6899 19.0502 32.7707 20.5699C32.9318 23.6277 33.0121 26.6891 33.0114 29.7511C33.0114 30.4318 33.0717 30.981 33.1918 31.4011C33.3127 31.8212 33.4624 32.1517 33.6428 32.3918C33.8232 32.6315 34.0429 32.8021 34.3045 32.9014C34.5646 33.0019 34.8348 33.0721 35.1163 33.1113C35.4371 33.192 35.7571 33.2816 36.0794 33.3812C36.3993 33.4817 36.78 33.6916 37.2216 34.0112C37.3017 34.0915 37.3309 34.1811 37.3114 34.2815C37.2908 34.3816 37.2216 34.4312 37.1003 34.4312C36.6999 34.3913 36.3084 34.3521 35.9277 34.3106C35.5463 34.2714 35.1556 34.2311 34.754 34.1908C34.185 34.1104 33.6134 34.0503 33.0402 34.0104C32.4696 33.9709 31.8979 33.951 31.326 33.9507C30.5816 33.9526 29.8381 34.0027 29.1002 34.1008C28.3381 34.2016 27.5761 34.3106 26.8145 34.4312C26.6943 34.4716 26.6045 34.4312 26.5447 34.3106C26.4844 34.1908 26.4937 34.0915 26.5742 34.0112C26.8946 33.7315 27.1854 33.5112 27.4467 33.3514C27.6911 33.2005 27.942 33.0602 28.1986 32.9309C28.6791 32.6912 29.1103 32.3607 29.4917 31.941C29.8723 31.521 30.0632 30.8511 30.0632 29.9303V1.84767L30.5441 0.886887C30.5842 0.806983 30.6441 0.747637 30.7249 0.70691C30.8046 0.667346 30.8645 0.687128 30.9053 0.766643C35.1741 5.18079 39.4048 9.63137 43.597 14.1179C47.7891 18.6099 51.9392 23.1407 56.0469 27.7096V27.5297C56.0469 25.69 56.0368 23.8688 56.017 22.0691C55.9963 20.2689 55.9664 18.4292 55.9268 16.5488C55.8863 14.8289 55.8459 12.9993 55.8066 11.0583C55.7662 9.1185 55.7467 7.28809 55.7467 5.56784C55.7467 4.88827 55.6756 4.33787 55.5356 3.91779C55.3953 3.49772 55.2048 3.17771 54.9641 2.95701C54.7238 2.73786 54.4622 2.58813 54.1822 2.50745C53.9059 2.42879 53.6245 2.36854 53.3401 2.32709C53.047 2.2921 52.756 2.242 52.4681 2.17698C52.2048 2.116 51.9647 1.98066 51.7764 1.78716C51.6959 1.70726 51.6866 1.60718 51.7468 1.48694C51.8071 1.36708 51.8767 1.32791 51.9576 1.36708C52.8794 1.48694 53.7406 1.54706 54.543 1.54706H57.0694C57.5908 1.54706 58.1219 1.53814 58.6638 1.51719C59.2153 1.49805 59.7674 1.50802 60.3178 1.54706C60.5188 1.54706 60.7388 1.55753 60.9791 1.57732C61.1991 1.59663 61.4199 1.6066 61.6408 1.60718L61.7617 2.08738C61.6816 2.12694 61.6315 2.13742 61.6113 2.11686ZM84.3843 31.2801C84.2599 32.1696 84.1396 33.0597 84.0235 33.9503C84.0235 34.0709 83.9423 34.1306 83.7829 34.1306L83.7226 34.1904C83.4014 34.3102 83.141 34.3703 82.9407 34.3703C82.0181 34.3703 81.0858 34.3618 80.1437 34.3405C79.2117 34.3204 78.2795 34.3103 77.3472 34.3102C76.5451 34.3102 75.7629 34.3013 75.002 34.2811C74.2203 34.2605 73.4384 34.2504 72.6564 34.2509C71.5736 34.2509 70.4804 34.2606 69.3777 34.2811C68.2744 34.3013 67.1826 34.3316 66.0999 34.3703V33.8905C66.7009 33.8905 67.192 33.761 67.5734 33.4999C67.9447 33.2506 68.245 32.9096 68.445 32.5101C68.6457 32.1105 68.7763 31.6602 68.8362 31.1599C68.8964 30.6607 68.926 30.1502 68.926 29.6304V4.66718C68.926 3.86737 68.7358 3.3476 68.3544 3.10751C67.9662 2.86387 67.5527 2.66269 67.1212 2.50745L66.3094 2.2371C66.0093 2.1378 65.6974 1.98731 65.3779 1.78716C65.297 1.70726 65.2667 1.61727 65.2877 1.51719C65.3075 1.4179 65.3779 1.36708 65.498 1.36708H82.6402C82.7996 1.28718 82.9718 1.21697 83.1511 1.15685C83.3264 1.09931 83.4973 1.02904 83.6623 0.94662C83.8629 0.867105 83.9628 0.94662 83.9628 1.18672C83.8518 2.16249 83.7012 3.13337 83.5115 4.09699C83.3311 4.99688 83.1402 5.90723 82.9399 6.82729C82.8995 6.94753 82.8093 6.99757 82.6693 6.9774C82.5286 6.95762 82.4586 6.8878 82.4586 6.76717C82.3781 5.3673 81.8968 4.44802 81.0154 4.00662C80.1325 3.56676 79.0497 3.34683 77.7675 3.34683H73.0157V15.6485H79.9921C80.1924 15.6485 80.4536 15.5887 80.7744 15.4681L81.737 15.1082C82.1555 14.8773 82.5995 14.696 83.0601 14.5678C83.2603 14.4883 83.3602 14.5678 83.3602 14.8076C83.3198 15.2874 83.27 15.8083 83.2102 16.3676C83.1548 16.8895 83.0846 17.4098 82.9994 17.9277C82.9165 18.4248 82.8565 18.9254 82.8194 19.428C82.7806 19.9303 82.7201 20.4308 82.6382 20.9279C82.6382 21.0482 82.5877 21.1289 82.4878 21.168C82.3875 21.2084 82.2969 21.1886 82.2168 21.1079C82.0162 20.9082 81.8863 20.7088 81.8264 20.5079C81.7591 20.287 81.6888 20.0671 81.6157 19.8481C81.5345 19.6084 81.4551 19.3683 81.375 19.1282C81.2942 18.8881 81.1546 18.6685 80.954 18.4684C80.7526 18.2686 80.3829 18.1189 79.8413 18.018C79.2639 17.9134 78.6822 17.8334 78.0979 17.7783C77.488 17.7192 76.8756 17.6893 76.2628 17.6887H73.0744V30.0501C73.6762 30.931 74.5277 31.6009 75.6307 32.0605C76.7333 32.5213 77.8056 32.7506 78.8479 32.7506C80.2511 32.7506 81.4446 32.3809 82.4267 31.6404C83.4088 30.9007 84.06 29.8508 84.3816 28.4901L84.8625 28.6103C84.6703 29.4941 84.5108 30.3846 84.3843 31.2801ZM106.57 29.5098C105.829 30.6703 104.887 31.6602 103.744 32.4806C102.601 33.3006 101.338 33.9417 99.9542 34.4002C98.5701 34.861 97.2568 35.0903 96.0146 35.0903C95.4128 35.0903 94.7814 35.0204 94.1204 34.88C93.4583 34.7404 92.8568 34.5111 92.3152 34.1904C91.7733 33.8708 91.332 33.4608 90.9918 32.96C90.6512 32.46 90.4809 31.8305 90.4809 31.0699C90.4809 30.5897 90.5315 30.1091 90.6314 29.6297C90.7317 29.1499 90.8215 28.6902 90.9024 28.2488L91.2025 26.809C91.2025 26.6887 91.2826 26.6286 91.4432 26.6286C91.603 26.6286 91.6842 26.6887 91.6842 26.809V27.7089C91.6842 28.549 91.8643 29.2899 92.2251 29.9291C92.5782 30.5611 93.0476 31.1209 93.6087 31.5792C94.1698 32.04 94.8214 32.3797 95.5632 32.6001C96.3046 32.8196 97.0569 32.9298 97.8194 32.9298C98.541 32.9298 99.2828 32.8099 100.045 32.5702C100.791 32.3378 101.492 31.9828 102.121 31.5198C102.737 31.0652 103.258 30.4945 103.654 29.8399C104.053 29.1797 104.255 28.4501 104.255 27.6495C104.255 26.8901 104.075 26.1399 103.713 25.3994C103.353 24.6597 102.871 23.9096 102.27 23.1493C101.633 22.3504 100.95 21.589 100.224 20.869C99.4521 20.0993 98.6703 19.3391 97.8792 18.5886C97.032 17.7838 96.1898 16.9736 95.3529 16.1582C94.5107 15.3386 93.7682 14.4988 93.1271 13.6377C92.4855 12.7782 91.9642 11.9078 91.5633 11.0277C91.1625 10.1479 90.9623 9.24844 90.9623 8.32761C90.9623 6.96848 91.3429 5.79824 92.1049 4.8169C92.8658 3.8375 93.809 3.0373 94.9318 2.41669C96.0535 1.79724 97.277 1.33644 98.6008 1.03661C99.9239 0.736388 101.147 0.586278 102.27 0.586278C103.874 0.586278 105.338 0.786813 106.661 1.18633C106.782 1.26701 106.842 1.34653 106.842 1.42604C106.673 3.45411 106.433 5.47559 106.12 7.48669C106.08 7.60654 105.999 7.66705 105.88 7.66705C105.759 7.66705 105.678 7.60654 105.639 7.48669C105.318 6.08682 104.707 4.88672 103.804 3.88637C102.903 2.8868 101.708 2.38605 100.226 2.38605C98.7015 2.38605 97.429 2.87633 96.4069 3.85612C95.3844 4.83707 94.8731 6.08643 94.8731 7.60615C94.8731 8.40713 95.0434 9.14682 95.3844 9.82677C95.7242 10.5079 96.1662 11.1677 96.7066 11.8069C97.249 12.4473 97.8804 13.0772 98.602 13.6971C99.3398 14.3321 100.082 14.9623 100.828 15.5876C101.678 16.2757 102.511 16.986 103.324 17.7178C104.122 18.4332 104.856 19.2163 105.519 20.0583C106.148 20.8591 106.674 21.736 107.083 22.6684C107.482 23.5892 107.684 24.5884 107.684 25.6686C107.683 27.07 107.312 28.35 106.57 29.5098ZM-107.881 23.8917C-108.417 25.0166 -109.129 25.9886 -110.018 26.8078C-110.907 27.6263 -111.938 28.2624 -113.112 28.7174C-114.286 29.1723 -115.522 29.4 -116.821 29.4C-117.892 29.4 -119.004 29.1386 -120.154 28.6157C-121.304 28.0937 -122.369 27.404 -123.316 26.5693C-124.273 25.7287 -125.066 24.7734 -125.691 23.7048C-126.318 22.6362 -126.632 21.5559 -126.632 20.4648C-126.632 18.8051 -126.478 17.3777 -126.17 16.1838C-125.862 14.9902 -125.366 13.9787 -124.683 13.149C-123.999 12.3189 -123.099 11.637 -121.982 11.1029C-120.866 10.5688 -119.498 10.1309 -117.88 9.78954L-117.435 9.7554C-115.977 9.64214 -114.621 9.85238 -113.367 10.3861C-112.132 10.9081 -111.016 11.6739 -110.086 12.6374C-109.152 13.6044 -108.417 14.7467 -107.881 16.0651C-107.346 17.3835 -107.078 18.7709 -107.078 20.2259C-107.078 21.5443 -107.346 22.7665 -107.881 23.8917ZM-117.161 10.8822C-117.453 10.8872 -117.736 10.9062 -118.012 10.9388V28.1569C-117.736 28.2154 -117.453 28.2573 -117.161 28.2818L-117.161 10.8822ZM-115.124 28.1918C-114.538 28.0917 -113.969 27.9071 -113.436 27.6437C-112.547 27.1992 -111.801 26.6092 -111.197 25.8699C-110.593 25.1314 -110.137 24.273 -109.829 23.2952C-109.521 22.3173 -109.367 21.2828 -109.367 20.191C-109.367 19.0774 -109.533 17.9634 -109.863 16.8494C-110.194 15.7354 -110.683 14.7346 -111.333 13.8479C-111.97 12.972 -112.786 12.2398 -113.726 11.6991C-114.165 11.4467 -114.634 11.2517 -115.123 11.1188V28.1918H-115.124ZM-115.716 10.9869C-115.998 10.9383 -116.282 10.9065 -116.567 10.8915V28.3081H-116.513C-116.239 28.3081 -115.973 28.2961 -115.716 28.2713L-115.716 10.9869ZM-118.6 11.0315C-119.112 11.1312 -119.611 11.2924 -120.085 11.5117C-120.985 11.933 -121.743 12.5128 -122.358 13.251C-122.973 13.9899 -123.447 14.8429 -123.777 15.8087C-124.108 16.7749 -124.272 17.8039 -124.272 18.8954C-124.272 20.0327 -124.101 21.1576 -123.759 22.2712C-123.418 23.3856 -122.91 24.3917 -122.238 25.2893C-121.581 26.175 -120.749 26.9178 -119.794 27.4723C-119.416 27.6922 -119.016 27.8697 -118.599 28.0013L-118.6 11.0315Z" fill="#181818"/>
</svg>
