<svg width="378" height="48" viewBox="0 0 378 48" fill="none" xmlns="http://www.w3.org/2000/svg">
<path d="M41.2358 26.9588C40.415 27.4194 40.0046 28.2293 40.0046 29.3903V44.5786C40.0046 44.6189 39.9642 44.6791 39.8842 44.759C38.9184 45.4817 37.8572 46.0674 36.7308 46.4994C35.5838 46.9419 34.3972 47.2739 33.1871 47.4909C31.9758 47.7088 30.7519 47.8491 29.5227 47.9108C28.3012 47.9705 27.1096 48 25.9487 48C24.186 48 22.4047 47.9399 20.6027 47.8199C17.4388 47.5797 14.5858 46.78 12.0435 45.4187C9.5 44.0582 7.33738 42.2879 5.55642 40.1059C3.7743 37.9251 2.40295 35.4435 1.44201 32.6616C0.480668 29.8804 0 26.9487 0 23.8668C0 20.3046 0.640244 17.1528 1.9219 14.4117C3.20316 11.6709 4.95539 9.36857 7.1778 7.50787C9.40099 5.64718 11.9926 4.24671 14.9562 3.3053C17.9191 2.36545 21.083 1.89474 24.4469 1.89474C26.2488 1.89474 28.0601 1.99486 29.8826 2.19432C31.6773 2.39182 33.4694 2.61199 35.2585 2.85478C36.0591 2.97546 36.8503 3.09498 37.6307 3.21528C38.4119 3.33557 39.202 3.43569 40.003 3.51524C40.1626 3.51524 40.2434 3.59595 40.2434 3.75544C40.1653 5.17173 40.025 6.5839 39.8229 7.98789C39.6206 9.37835 39.4206 10.7691 39.2226 12.1602C39.1822 12.4408 39.1419 12.7108 39.1023 12.9704C39.0619 13.2312 39.0215 13.4803 38.9819 13.7209C38.9819 13.8416 38.9112 13.9115 38.7715 13.9312C38.6305 13.9518 38.5405 13.9014 38.5008 13.7811C38.1805 12.0605 37.6005 10.5797 36.7595 9.33869C35.9181 8.09848 34.8869 7.06782 33.6662 6.2471C32.4443 5.42715 31.0726 4.82684 29.5514 4.44578C28.029 4.06588 26.4476 3.87496 24.8061 3.87496C22.0432 3.87496 19.4694 4.33596 17.0878 5.25641C14.7047 6.17764 12.6321 7.4679 10.8706 9.12875C9.10863 10.79 7.71749 12.7912 6.69636 15.1319C5.67678 17.4737 5.16622 20.0457 5.16622 22.8467C5.16622 25.8886 5.72609 28.7594 6.84817 31.461C7.96908 34.1626 9.50077 36.5246 11.4432 38.5448C13.3849 40.5669 15.6873 42.1676 18.3508 43.3481C21.0127 44.5285 23.8863 45.1184 26.9702 45.1184C28.2911 45.1184 29.6326 44.9682 30.9942 44.6678C32.355 44.3683 33.5171 43.7179 34.4785 42.7175V29.2099C34.4785 28.2495 34.1783 27.5999 33.5777 27.2592C32.977 26.9196 32.2956 26.6286 31.5354 26.3888C31.2095 26.307 30.8886 26.2067 30.5741 26.0884C30.253 25.9685 29.9335 25.809 29.6128 25.6084C29.4924 25.5285 29.4524 25.4384 29.4924 25.3383C29.532 25.239 29.6128 25.1882 29.7323 25.1882C32.1349 25.1882 34.5076 25.2091 36.8503 25.2483C39.1931 25.2887 41.5658 25.3686 43.9683 25.4885L44.0285 25.9685C42.9868 26.1688 42.0558 26.499 41.2358 26.9588ZM72.8605 42.8975C72.33 42.8556 71.7994 42.8155 71.2686 42.7773C70.9394 42.7363 70.609 42.7064 70.2778 42.6876C69.9277 42.667 69.577 42.6569 69.2263 42.6573C68.3046 42.6573 67.384 42.6977 66.4635 42.778C65.5417 42.8587 64.6208 42.9383 63.7002 43.0178C63.5795 43.0178 63.4987 42.9577 63.4599 42.8378C63.4195 42.7175 63.4599 42.6181 63.5799 42.5378L65.9226 41.3977C65.2475 39.533 64.5366 37.6814 63.7903 35.844C63.0364 33.9897 62.3255 32.1181 61.6583 30.2309H52.3478C52.0535 30.9997 51.7632 31.7702 51.477 32.5421C51.085 33.5949 50.7146 34.6557 50.3661 35.7237C50.026 36.7581 49.7054 37.7989 49.4048 38.8455C49.1241 39.8265 48.9843 40.5363 48.9843 40.9767C48.9843 41.5766 49.2441 41.9674 49.7655 42.1471C50.2854 42.3275 50.7866 42.4579 51.2669 42.5378V43.0178C50.5059 42.9383 49.7251 42.8677 48.9245 42.8075C47.325 42.6882 45.7189 42.6882 44.1194 42.8075C43.318 42.8677 42.5174 42.9383 41.7168 43.0178C41.5968 43.0582 41.5262 42.9984 41.5064 42.8378C41.4858 42.6783 41.5363 42.5778 41.6566 42.5378C43.8585 42.258 45.401 41.0966 46.2816 39.0559V39.1156C47.4425 36.1948 48.5642 33.2724 49.6455 30.3508C50.731 27.4179 51.7922 24.4761 52.8293 21.5258C53.5495 19.525 54.2503 17.5335 54.9313 15.5521C55.6198 13.5495 56.3406 11.5582 57.0936 9.57889C57.1332 9.45898 57.2139 9.39884 57.3335 9.39884C57.4539 9.39884 57.5338 9.45898 57.5738 9.57889C57.7719 10.1337 57.9822 10.6841 58.2048 11.2296C58.4263 11.7755 58.6365 12.3259 58.8353 12.8804C60.4923 17.4037 62.2046 21.9065 63.9716 26.388C65.757 30.9194 67.7922 35.3484 70.0681 39.6546C70.5484 40.5762 71.1587 41.2359 71.8999 41.636C72.6403 42.0357 73.4918 42.2759 74.4527 42.3558V42.8358C73.8905 42.9181 73.3606 42.9379 72.8605 42.8975ZM57.033 15.7628C56.3688 17.8298 55.7182 19.9012 55.0812 21.9767C54.4324 24.0815 53.7415 26.1731 53.009 28.2503H60.7576L57.033 15.7628ZM117.799 42.9573H112.934C111.332 42.9573 109.75 42.9181 108.189 42.8374C107.949 42.8374 107.868 42.7373 107.949 42.5374C107.988 42.4575 108.018 42.3776 108.038 42.2976C108.059 42.2147 108.089 42.1342 108.128 42.0578L108.488 40.9771C108.609 40.6166 108.669 40.2771 108.669 39.9561C108.669 37.6752 108.558 35.4237 108.338 33.2029C108.116 30.9687 107.865 28.7373 107.587 26.5095C107.445 25.2978 107.294 24.087 107.136 22.8773C106.995 21.818 106.885 20.5871 106.805 19.1854C105.296 22.0825 103.834 25.0044 102.421 27.9499C101.019 30.8719 99.6172 33.8331 98.2167 36.8347C97.7418 37.8229 97.2711 38.8133 96.8046 39.8056C96.3386 40.7984 95.8682 41.7891 95.3933 42.7776C95.3529 42.8584 95.2927 42.8979 95.2131 42.8979C95.1324 42.8979 95.0524 42.8584 94.9728 42.7776C93.1305 40.2165 91.5386 37.6049 90.1975 34.9437C88.8651 32.3017 87.5933 29.6295 86.3833 26.9293C85.8026 25.6632 85.2319 24.3924 84.6714 23.1171C84.1116 21.8523 83.521 20.6012 82.9002 19.3651C82.7835 20.3361 82.6632 21.3066 82.5391 22.2766C82.4187 23.2176 82.2991 24.1482 82.1788 25.0679C81.8609 27.5248 81.5806 29.9865 81.3378 32.452C81.0956 34.926 80.9752 37.4103 80.9771 39.896C80.9771 40.6162 81.1573 41.1067 81.518 41.3667C81.8786 41.6278 82.3186 41.858 82.8392 42.0574C82.9988 42.1377 83.2193 42.2274 83.4996 42.3267C83.7796 42.428 83.9597 42.4971 84.0405 42.537C84.1612 42.6174 84.2001 42.7171 84.1612 42.837C84.1209 42.9569 84.0405 43.0171 83.9209 43.0171C83.3599 43.0171 82.8097 43.0081 82.2692 42.9872C81.7181 42.9667 81.1673 42.9368 80.6172 42.8975C80.0571 42.8577 79.4964 42.8277 78.9352 42.8075C78.3738 42.7881 77.8132 42.778 77.2533 42.778H76.0516C75.6913 42.778 75.2906 42.8184 74.8503 42.8983C74.73 42.9387 74.6492 42.8781 74.61 42.7183C74.5696 42.5588 74.61 42.4579 74.7307 42.4183C75.0507 42.3384 75.2906 42.298 75.4514 42.298C75.8369 42.2313 76.2179 42.1411 76.5925 42.0279C76.9124 41.9282 77.2129 41.6585 77.4932 41.2177C77.5732 41.0966 77.6823 40.5782 77.8236 39.6566C77.9634 38.7365 78.1238 37.5661 78.3043 36.1447C78.4845 34.7248 78.6844 33.1133 78.9046 31.3123C79.1282 29.4729 79.3385 27.6318 79.5355 25.7892C79.7354 23.9088 79.9354 22.0582 80.1361 20.2363C80.3361 18.4155 80.5162 16.7446 80.6766 15.2234C80.8362 13.9029 80.9569 12.7322 81.0373 11.7116C81.1173 10.691 81.1969 9.96112 81.2776 9.52029C81.2776 9.4 81.3273 9.33131 81.4279 9.30997C81.5277 9.29057 81.6177 9.32006 81.6985 9.4C82.1784 9.92076 82.859 10.9514 83.7404 12.4916C84.6209 14.0329 85.5726 15.8234 86.5937 17.8645C87.6697 20.0183 88.7309 22.1796 89.7771 24.348C90.7986 26.4641 91.8097 28.5852 92.8102 30.7113C93.4908 32.1129 94.051 33.3135 94.4921 34.3135C94.9328 35.3143 95.3331 36.1548 95.6938 36.8347C96.378 35.4599 97.0288 34.0687 97.6456 32.6624C98.306 31.1614 98.9567 29.6709 99.5978 28.1901C101.028 24.8853 102.509 21.6032 104.043 18.3449C105.604 15.0232 107.266 12.062 109.028 9.46015C109.108 9.38021 109.187 9.35033 109.268 9.36973C109.348 9.39069 109.389 9.46015 109.389 9.58005C109.469 10.0601 109.539 10.731 109.599 11.5913C109.659 12.4528 109.749 13.4427 109.869 14.563C109.99 16.0442 110.139 17.6651 110.32 19.4256C110.5 21.187 110.69 22.9883 110.89 24.8284C111.09 26.6697 111.29 28.4606 111.491 30.2014C111.672 31.7961 111.882 33.3874 112.122 34.9744C112.341 36.4152 112.551 37.6259 112.752 38.6057C112.952 39.5871 113.152 40.1971 113.353 40.4365C113.793 41.0776 114.214 41.4878 114.615 41.6678C115.014 41.8483 115.495 41.9786 116.056 42.0586C116.336 42.1389 116.627 42.189 116.927 42.2088C117.228 42.2293 117.537 42.319 117.858 42.4785L117.799 42.9573ZM137.06 39.9259C136.936 40.8157 136.816 41.7062 136.7 42.5972C136.7 42.7179 136.619 42.7776 136.459 42.7776L136.4 42.8374C136.079 42.9573 135.819 43.0175 135.619 43.0175C134.697 43.0175 133.767 43.0089 132.826 42.9876C131.895 42.9675 130.964 42.9574 130.033 42.9573C129.232 42.9573 128.451 42.9484 127.69 42.9282C126.91 42.9076 126.129 42.8975 125.348 42.8979C124.267 42.8979 123.175 42.9076 122.074 42.9282C120.972 42.9484 119.882 42.9786 118.801 43.0175V42.5374C119.401 42.5374 119.891 42.4078 120.272 42.1467C120.643 41.8973 120.943 41.5561 121.143 41.1564C121.343 40.7567 121.474 40.3062 121.534 39.8056C121.594 39.3062 121.623 38.7955 121.623 38.2755V13.3014C121.623 12.5013 121.433 11.9813 121.053 11.7411C120.665 11.4974 120.252 11.2962 119.822 11.1408L119.01 10.8703C118.71 10.771 118.4 10.6204 118.08 10.4202C117.999 10.3402 117.969 10.2502 117.99 10.1501C118.01 10.0508 118.08 9.99992 118.2 9.99992H135.319C135.484 9.91789 135.654 9.84761 135.829 9.7896C136.009 9.72945 136.179 9.66038 136.339 9.57928C136.54 9.49973 136.64 9.57928 136.64 9.81948C136.529 10.7957 136.379 11.7671 136.189 12.731C136.009 13.6313 135.818 14.542 135.618 15.4625C135.578 15.5828 135.488 15.6328 135.348 15.6127C135.208 15.5929 135.138 15.523 135.138 15.4023C135.057 14.0019 134.577 13.0822 133.697 12.6406C132.815 12.2005 131.733 11.9805 130.453 11.9805H125.708V24.2875H132.675C132.875 24.2875 133.135 24.2277 133.456 24.1071C133.776 23.9868 134.096 23.8672 134.417 23.7469C134.835 23.516 135.279 23.3346 135.739 23.2064C135.939 23.1268 136.039 23.2064 136.039 23.4462C135.999 23.9262 135.949 24.4474 135.888 25.0069C135.834 25.5291 135.763 26.0496 135.678 26.5677C135.595 27.065 135.535 27.5659 135.498 28.0686C135.459 28.5712 135.399 29.0719 135.317 29.5692C135.317 29.6895 135.267 29.7702 135.168 29.8094C135.067 29.8498 134.977 29.83 134.897 29.7493C134.696 29.5494 134.567 29.35 134.507 29.149C134.44 28.9278 134.37 28.7078 134.296 28.4889C134.216 28.2491 134.136 28.0089 134.056 27.7687C133.975 27.5285 133.835 27.3088 133.636 27.1086C133.434 26.9088 133.065 26.759 132.524 26.6581C131.947 26.5534 131.366 26.4734 130.783 26.4183C130.174 26.3591 129.562 26.3292 128.95 26.3286H125.767V38.6954C126.367 39.5766 127.217 40.2468 128.319 40.7066C129.42 41.1676 130.491 41.397 131.532 41.397C132.934 41.397 134.125 41.0271 135.106 40.2864C136.087 39.5464 136.737 38.4959 137.058 37.1346L137.538 37.2549C137.346 38.1391 137.187 39.03 137.06 39.9259ZM173.687 21.9088C173.663 21.9778 173.612 22.0069 173.531 21.9949C173.451 21.984 173.411 21.9433 173.411 21.8742C173.411 21.1164 173.205 20.5828 172.791 20.2727C172.377 19.9631 171.803 19.8079 171.068 19.8079C170.746 19.8079 170.442 19.8253 170.154 19.8599C169.867 19.894 169.563 19.934 169.241 19.9802C169.011 20.0267 168.758 20.0613 168.483 20.0842C168.207 20.1074 167.954 20.1187 167.725 20.1187V26.8688H172.376C172.537 26.8688 172.721 26.7997 172.927 26.6624C173.134 26.5246 173.295 26.3865 173.41 26.2495C173.455 26.2037 173.507 26.192 173.564 26.2145C173.622 26.2382 173.651 26.2836 173.651 26.3523C173.564 27.5891 173.403 28.8196 173.169 30.0372C173.145 30.1063 173.094 30.135 173.014 30.1234C172.933 30.1125 172.893 30.0714 172.893 30.0027C172.916 29.2448 172.726 28.7229 172.325 28.4357C171.922 28.149 171.354 28.0058 170.618 28.0058H167.724V34.8936C167.724 35.1684 167.781 35.4555 167.896 35.7547C168.011 36.0531 168.172 36.317 168.379 36.5467C168.586 36.7765 168.826 36.9592 169.102 37.0978C169.378 37.2351 169.676 37.3042 169.998 37.3042V37.5797H169.757C169.504 37.5797 169.262 37.5681 169.033 37.5456C168.803 37.5227 168.562 37.5002 168.31 37.4761C168.069 37.4547 167.828 37.4376 167.586 37.4249C167.356 37.4133 167.126 37.4074 166.897 37.4074C166.668 37.4074 166.437 37.4191 166.209 37.442L165.52 37.5107C164.993 37.5558 164.464 37.5789 163.935 37.5797H163.728C163.659 37.5797 163.619 37.5394 163.607 37.4586C163.595 37.3783 163.625 37.3271 163.694 37.3042C164.107 37.2347 164.429 37.1494 164.658 37.0458C164.887 36.9422 165.054 36.8048 165.158 36.6325C165.261 36.4606 165.318 36.2429 165.33 35.9779C165.341 35.714 165.347 35.3752 165.347 34.9623V20.5661C165.347 20.038 165.243 19.7108 165.037 19.5843C164.812 19.4511 164.568 19.3526 164.314 19.2921C164.172 19.2366 164.028 19.1848 163.883 19.1369C163.696 19.0729 163.516 18.9861 163.35 18.8785C163.281 18.8327 163.257 18.7811 163.281 18.7236C163.303 18.667 163.35 18.6375 163.418 18.6375C164.866 18.7062 166.324 18.7411 167.794 18.7411H170.241C170.355 18.7411 170.476 18.7469 170.603 18.7586C170.729 18.7698 170.861 18.7757 170.999 18.7757C171.526 18.7989 172.073 18.7989 172.635 18.7757C173.198 18.7528 173.686 18.6266 174.099 18.3965C174.145 18.3503 174.197 18.3503 174.255 18.3965C174.311 18.4427 174.329 18.5001 174.306 18.5688L173.687 21.9088Z" fill="#181818"/>
<path d="M361.831 5.31432C361.788 6.70969 361.599 7.96799 361.263 9.09189C361.221 9.21669 361.137 9.27889 361.011 9.27889C360.885 9.27889 360.8 9.21669 360.758 9.09189C360.548 8.0517 360.222 7.20925 359.78 6.56301C359.352 5.93035 358.779 5.40641 358.108 5.03363C357.435 4.65886 356.677 4.39968 355.836 4.253C354.961 4.10501 354.074 4.03191 353.186 4.03451H193.114V40.5006C193.114 42.1659 193.65 43.5816 194.722 44.747C195.795 45.9131 197.13 46.62 198.729 46.8704C198.855 46.9111 198.907 47.0056 198.886 47.1503C198.865 47.2962 198.791 47.3684 198.666 47.3684C197.184 47.2433 195.701 47.1394 194.217 47.0566C192.723 46.9737 191.22 46.9322 189.706 46.9322C188.612 46.9322 187.53 46.9629 186.457 47.0255C185.384 47.0881 184.301 47.1614 183.207 47.244C183.081 47.244 183.007 47.1718 182.987 47.0255C182.964 46.8804 183.018 46.7863 183.144 46.7452C184.154 46.5371 184.942 46.3079 185.511 46.0583C186.079 45.8083 186.498 45.4762 186.773 45.0584C187.046 44.6429 187.215 44.1123 187.278 43.4664C187.341 42.821 187.373 41.9985 187.373 40.9997V4.09633H176.962C175.615 4.09633 174.427 4.5644 173.397 5.50131C172.366 6.43784 171.598 7.48955 171.094 8.65454C171.009 8.77934 170.914 8.83194 170.81 8.81044C170.705 8.7897 170.652 8.71675 170.652 8.59196C170.568 8.17611 170.526 7.80173 170.526 7.46805C170.526 6.63597 170.631 5.82424 170.841 5.03286C171.17 3.80708 171.528 2.58903 171.915 1.37969C172.041 0.984957 172.145 0.599443 172.23 0.224296C172.314 -0.0249064 172.44 -0.066376 172.609 0.0995027C173.492 0.640912 174.354 0.984957 175.195 1.13049C176.037 1.2764 177.004 1.34858 178.098 1.34858H357.92C358.256 1.34858 358.623 1.29675 359.024 1.19269C359.423 1.08863 359.791 0.995325 360.128 0.912001C360.369 0.865668 360.611 0.824062 360.854 0.787208C361.126 0.746506 361.411 0.703885 361.705 0.662415C361.831 0.662415 361.895 0.746507 361.895 0.912001V1.41117C361.892 2.71246 361.871 4.01364 361.831 5.31432Z" fill="#181818"/>
<path d="M231.71 43.4906C229.607 43.3707 227.501 43.3104 225.394 43.3098C224.632 43.3098 223.88 43.3199 223.139 43.3401C222.396 43.3614 221.625 43.3905 220.823 43.4297C220.703 43.4297 220.632 43.3606 220.613 43.2198C220.592 43.0798 220.643 42.9902 220.764 42.9499C222.005 42.5895 222.809 42.1097 223.169 41.5097C223.53 40.9096 223.711 39.9698 223.711 38.6894V26.2085H205.246V38.8096C205.246 41.3301 206.549 42.7106 209.156 42.9503C209.277 42.9503 209.337 43.0309 209.337 43.1904C209.337 43.351 209.277 43.4301 209.156 43.4301H207.291C206.729 43.4301 206.128 43.451 205.486 43.4898C205.045 43.4898 204.534 43.4999 203.953 43.5197C203.371 43.5406 202.86 43.5495 202.42 43.5495H200.916C200.394 43.5495 199.873 43.5298 199.353 43.4898C199.192 43.4898 199.001 43.4809 198.781 43.4603C198.591 43.4416 198.4 43.4315 198.209 43.4301C198.088 43.4301 198.019 43.3606 197.999 43.2202C197.978 43.0802 198.029 42.9906 198.149 42.9503C198.79 42.83 199.312 42.7009 199.713 42.5605C200.113 42.4208 200.415 42.2211 200.615 41.96C200.815 41.7001 200.946 41.37 201.006 40.9697C201.066 40.5706 201.095 40.0501 201.095 39.4101V13.8472C201.095 12.9674 200.745 12.3077 200.043 11.8674C199.341 11.4279 198.59 11.1878 197.787 11.1475V10.6677C199.471 10.7879 201.135 10.8481 202.78 10.8481C203.461 10.8481 204.143 10.8387 204.825 10.8178C205.507 10.7984 206.188 10.7879 206.87 10.7879H208.134C208.254 10.7879 208.314 10.8686 208.314 11.028C208.314 11.1886 208.254 11.2681 208.134 11.2681C207.412 11.2681 206.76 11.4881 206.179 11.9283C205.597 12.3689 205.307 12.9884 205.307 13.7886V24.2296H223.712V14.0283C223.712 13.0675 223.461 12.4582 222.96 12.1975C222.458 11.938 221.847 11.708 221.125 11.5078C220.974 11.4707 220.824 11.4304 220.674 11.3872C220.524 11.3451 220.374 11.305 220.223 11.267C220.103 11.227 220.052 11.1378 220.073 10.997C220.092 10.8574 220.162 10.7872 220.284 10.7872C222.957 10.9565 225.636 11.0064 228.313 10.9369C229.135 10.9171 229.946 10.8872 230.75 10.8473C230.87 10.8473 230.939 10.9175 230.96 11.0571C230.98 11.1975 230.93 11.2879 230.809 11.3271C229.927 11.4873 229.225 11.7173 228.705 12.0167C228.183 12.317 227.922 12.9674 227.922 13.967V38.5699C227.922 39.9306 228.223 40.9504 228.824 41.6303C229.426 42.3114 230.408 42.7703 231.772 43.0108L231.71 43.4906ZM263.968 43.9405C263.25 44.1177 262.513 44.2083 261.773 44.2105C260.57 44.2105 259.487 43.991 258.525 43.5503C257.563 43.1109 256.701 42.5511 255.939 41.87C255.177 41.1905 254.466 40.41 253.804 39.5299C253.143 38.651 252.511 37.7505 251.91 36.8299C251.343 35.9829 250.751 35.1525 250.136 34.3397C249.513 33.5205 248.832 32.78 248.09 32.1195C247.349 31.4589 246.547 30.9298 245.685 30.5292C244.822 30.1296 243.85 29.9287 242.767 29.9287H241.805C241.523 29.9287 241.223 29.969 240.903 30.049V38.5699C240.903 39.7305 241.254 40.7207 241.955 41.5399C242.657 42.3603 243.589 42.83 244.752 42.9503V43.4301C243.84 43.3515 242.928 43.2815 242.015 43.2202C241.104 43.16 240.192 43.1301 239.279 43.1306C238.356 43.1306 237.464 43.171 236.602 43.2509C235.739 43.3316 234.847 43.4309 233.925 43.5503C233.804 43.5907 233.714 43.5414 233.655 43.4002C233.595 43.2606 233.625 43.1504 233.745 43.0701C234.587 42.6706 235.288 42.0709 235.85 41.2696C236.411 40.4698 236.692 39.6098 236.692 38.689V14.7474C236.692 13.8274 236.361 13.0175 235.699 12.317C235.038 11.6172 234.246 11.1463 233.324 10.9062C233.203 10.8667 233.153 10.7771 233.173 10.6367C233.193 10.497 233.263 10.4264 233.383 10.4264H245.233C246.475 10.4264 247.699 10.5765 248.902 10.8764C250.105 11.1762 251.167 11.6471 252.09 12.2867C253.011 12.9267 253.753 13.7665 254.315 14.8068C254.876 15.8475 255.157 17.0871 255.157 18.5273C255.157 20.4473 254.626 22.2684 253.563 23.9875C252.5 25.7082 251.307 27.1887 249.984 28.4284C250.425 28.9078 250.906 29.5187 251.428 30.2584C251.977 31.0376 252.538 31.8079 253.112 32.569C254.026 33.8125 254.959 35.0428 255.909 36.2593C256.891 37.5195 257.924 38.6595 259.006 39.6797C260.089 40.7002 261.211 41.5004 262.375 42.0799C263.537 42.6601 264.721 42.8704 265.923 42.7102L266.104 43.19C265.419 43.5117 264.704 43.7632 263.968 43.9405ZM250.435 17.6274C250.135 16.5875 249.683 15.6477 249.082 14.8072C248.488 13.9742 247.731 13.2699 246.856 12.737C245.974 12.1967 244.952 11.9271 243.788 11.9271C243.308 11.9271 242.826 11.957 242.345 12.0167C241.866 12.0762 241.4 12.2078 240.961 12.407V27.3485C241.642 27.4688 242.304 27.5491 242.946 27.5882C243.606 27.6289 244.268 27.6488 244.93 27.648C247.175 27.648 248.729 27.039 249.591 25.8176C250.453 24.5977 250.884 22.9073 250.884 20.7468C250.886 19.708 250.737 18.6681 250.435 17.6274ZM294.518 34.3994C293.575 36.3799 292.322 38.0897 290.758 39.5299C289.194 40.9705 287.38 42.0911 285.315 42.8905C283.25 43.6911 281.075 44.091 278.789 44.091C276.903 44.091 274.949 43.631 272.925 42.7106C270.902 41.7919 269.027 40.5784 267.361 39.1099C265.677 37.6309 264.283 35.9502 263.18 34.0697C262.077 32.1893 261.526 30.2894 261.526 28.369C261.526 25.4495 261.797 22.9383 262.338 20.8379C262.88 18.7376 263.752 16.9583 264.955 15.4968C266.159 14.0368 267.741 12.8371 269.707 11.8969C271.671 10.9574 274.077 10.1867 276.924 9.58628L277.707 9.52616C280.273 9.3264 282.658 9.69682 284.864 10.6363C287.069 11.5765 288.993 12.8968 290.639 14.5965C292.282 16.2974 293.575 18.307 294.518 20.6269C295.46 22.9472 295.932 25.3874 295.932 27.9478C295.931 30.2689 295.459 32.4189 294.518 34.3994ZM278.191 11.5098C277.69 11.5174 277.19 11.5504 276.693 11.6087L276.692 41.903C277.177 42.0073 277.676 42.0799 278.191 42.1229L278.191 11.5098ZM281.774 41.9651C282.845 41.7758 283.835 41.4546 284.744 41.0004C286.308 40.22 287.62 39.1808 288.684 37.8795C289.745 36.5801 290.548 35.0701 291.09 33.3494C291.631 31.6296 291.901 29.8092 291.901 27.8888C291.901 25.9293 291.61 23.9693 291.03 22.0082C290.448 20.0486 289.586 18.288 288.443 16.7279C287.301 15.1679 285.896 13.9077 284.233 12.9473C283.461 12.5025 282.635 12.1593 281.775 11.926L281.774 41.9651ZM280.731 11.694C280.236 11.6079 279.735 11.5518 279.233 11.5261V42.1699H279.33C279.81 42.1699 280.278 42.1481 280.731 42.1055V11.694ZM275.658 11.7716C274.726 11.957 273.855 12.2382 273.044 12.6168C271.46 13.3576 270.127 14.3778 269.045 15.678C267.962 16.9785 267.13 18.4785 266.548 20.1782C265.967 21.879 265.677 23.6889 265.677 25.6089C265.677 27.6096 265.977 29.5901 266.579 31.5493C267.18 33.5096 268.072 35.2795 269.255 36.8594C270.438 38.4404 271.872 39.72 273.556 40.7002C274.22 41.0867 274.925 41.3986 275.659 41.6299L275.658 11.7716ZM331.611 11.1169C331.591 11.0971 331.541 11.1079 331.461 11.1471C330.861 11.3203 330.269 11.5205 329.687 11.7472C329.065 11.9873 328.755 12.4073 328.755 13.0074L328.815 27.4692V29.9295C328.816 32.2203 328.775 34.511 328.694 36.8004C328.613 39.0739 328.472 41.3449 328.273 43.6112C328.273 43.6919 328.223 43.7613 328.123 43.8211C328.022 43.8808 327.933 43.8715 327.852 43.7912C325.928 42.1508 324.004 40.3809 322.078 38.4807C320.148 36.5756 318.253 34.635 316.394 32.6602C314.533 30.6842 312.699 28.6839 310.891 26.6596C309.146 24.7074 307.421 22.737 305.718 20.7487C305.198 20.1956 304.696 19.6254 304.214 19.0389C303.732 18.4524 303.231 17.882 302.71 17.3288C302.593 18.3648 302.533 19.4066 302.53 20.4493C302.53 21.9698 302.55 23.4899 302.59 25.0096C302.63 26.5301 302.69 28.0502 302.771 29.5699C302.932 32.6277 303.012 35.6891 303.011 38.7511C303.011 39.4318 303.072 39.981 303.192 40.4011C303.313 40.8212 303.462 41.1517 303.643 41.3918C303.823 41.6315 304.043 41.8021 304.305 41.9014C304.565 42.0019 304.835 42.0721 305.116 42.1113C305.437 42.192 305.757 42.2816 306.079 42.3812C306.399 42.4817 306.78 42.6916 307.222 43.0112C307.302 43.0915 307.331 43.1811 307.311 43.2815C307.291 43.3816 307.222 43.4312 307.1 43.4312C306.7 43.3913 306.308 43.3521 305.928 43.3106C305.546 43.2714 305.156 43.2311 304.754 43.1908C304.185 43.1104 303.613 43.0503 303.04 43.0104C302.47 42.9709 301.898 42.951 301.326 42.9507C300.582 42.9526 299.838 43.0027 299.1 43.1008C298.338 43.2016 297.576 43.3106 296.814 43.4312C296.694 43.4716 296.605 43.4312 296.545 43.3106C296.484 43.1908 296.494 43.0915 296.574 43.0112C296.895 42.7315 297.185 42.5112 297.447 42.3514C297.691 42.2005 297.942 42.0602 298.199 41.9309C298.679 41.6912 299.11 41.3607 299.492 40.941C299.872 40.521 300.063 39.8511 300.063 38.9303V10.8477L300.544 9.88689C300.584 9.80698 300.644 9.74764 300.725 9.70691C300.805 9.66735 300.865 9.68713 300.905 9.76664C305.174 14.1808 309.405 18.6314 313.597 23.1179C317.789 27.6099 321.939 32.1407 326.047 36.7097V36.5297C326.047 34.69 326.037 32.8688 326.017 31.0691C325.996 29.2689 325.966 27.4292 325.927 25.5488C325.886 23.8289 325.846 21.9993 325.807 20.0583C325.766 18.1185 325.747 16.2881 325.747 14.5678C325.747 13.8883 325.676 13.3379 325.536 12.9178C325.395 12.4977 325.205 12.1777 324.964 11.957C324.724 11.7379 324.462 11.5881 324.182 11.5075C323.906 11.4288 323.625 11.3685 323.34 11.3271C323.047 11.2921 322.756 11.242 322.468 11.177C322.205 11.116 321.965 10.9807 321.776 10.7872C321.696 10.7073 321.687 10.6072 321.747 10.4869C321.807 10.3671 321.877 10.3279 321.958 10.3671C322.879 10.4869 323.741 10.5471 324.543 10.5471H327.069C327.591 10.5471 328.122 10.5381 328.664 10.5172C329.215 10.498 329.767 10.508 330.318 10.5471C330.519 10.5471 330.739 10.5575 330.979 10.5773C331.199 10.5966 331.42 10.6066 331.641 10.6072L331.762 11.0874C331.682 11.1269 331.631 11.1374 331.611 11.1169ZM354.384 40.2801C354.26 41.1696 354.14 42.0597 354.023 42.9503C354.023 43.0709 353.942 43.1306 353.783 43.1306L353.723 43.1904C353.401 43.3102 353.141 43.3703 352.941 43.3703C352.018 43.3703 351.086 43.3618 350.144 43.3405C349.212 43.3204 348.279 43.3103 347.347 43.3102C346.545 43.3102 345.763 43.3013 345.002 43.2811C344.22 43.2605 343.438 43.2504 342.656 43.2509C341.574 43.2509 340.48 43.2606 339.378 43.2811C338.274 43.3013 337.183 43.3316 336.1 43.3703V42.8905C336.701 42.8905 337.192 42.761 337.573 42.4999C337.945 42.2506 338.245 41.9096 338.445 41.5101C338.646 41.1105 338.776 40.6602 338.836 40.1599C338.896 39.6607 338.926 39.1502 338.926 38.6304V13.6672C338.926 12.8674 338.736 12.3476 338.354 12.1075C337.966 11.8639 337.553 11.6627 337.121 11.5075L336.309 11.2371C336.009 11.1378 335.697 10.9873 335.378 10.7872C335.297 10.7073 335.267 10.6173 335.288 10.5172C335.307 10.4179 335.378 10.3671 335.498 10.3671H352.64C352.8 10.2872 352.972 10.217 353.151 10.1569C353.326 10.0993 353.497 10.029 353.662 9.94662C353.863 9.8671 353.963 9.94662 353.963 10.1867C353.852 11.1625 353.701 12.1334 353.511 13.097C353.331 13.9969 353.14 14.9072 352.94 15.8273C352.9 15.9475 352.809 15.9976 352.669 15.9774C352.529 15.9576 352.459 15.8878 352.459 15.7672C352.378 14.3673 351.897 13.448 351.015 13.0066C350.132 12.5668 349.05 12.3468 347.767 12.3468H343.016V24.6485H349.992C350.192 24.6485 350.454 24.5887 350.774 24.4681L351.737 24.1082C352.155 23.8773 352.6 23.696 353.06 23.5678C353.26 23.4883 353.36 23.5678 353.36 23.8076C353.32 24.2874 353.27 24.8083 353.21 25.3676C353.155 25.8895 353.085 26.4098 352.999 26.9277C352.917 27.4248 352.856 27.9254 352.819 28.428C352.781 28.9303 352.72 29.4308 352.638 29.9279C352.638 30.0482 352.588 30.1289 352.488 30.168C352.387 30.2084 352.297 30.1886 352.217 30.1079C352.016 29.9082 351.886 29.7088 351.826 29.5079C351.759 29.287 351.689 29.0671 351.616 28.8481C351.534 28.6084 351.455 28.3683 351.375 28.1282C351.294 27.8881 351.155 27.6685 350.954 27.4684C350.753 27.2686 350.383 27.1189 349.841 27.018C349.264 26.9134 348.682 26.8334 348.098 26.7783C347.488 26.7192 346.876 26.6893 346.263 26.6887H343.074V39.0501C343.676 39.931 344.528 40.6009 345.631 41.0605C346.733 41.5213 347.806 41.7506 348.848 41.7506C350.251 41.7506 351.445 41.3809 352.427 40.6404C353.409 39.9007 354.06 38.8508 354.382 37.4901L354.863 37.6103C354.67 38.4941 354.511 39.3846 354.384 40.2801ZM376.57 38.5098C375.829 39.6703 374.887 40.6602 373.744 41.4806C372.601 42.3006 371.338 42.9417 369.954 43.4002C368.57 43.861 367.257 44.0903 366.015 44.0903C365.413 44.0903 364.781 44.0204 364.12 43.88C363.458 43.7404 362.857 43.5111 362.315 43.1904C361.773 42.8708 361.332 42.4608 360.992 41.96C360.651 41.46 360.481 40.8305 360.481 40.0699C360.481 39.5897 360.531 39.1091 360.631 38.6297C360.732 38.1499 360.822 37.6902 360.902 37.2488L361.203 35.809C361.203 35.6887 361.283 35.6286 361.443 35.6286C361.603 35.6286 361.684 35.6887 361.684 35.809V36.7089C361.684 37.549 361.864 38.2899 362.225 38.9291C362.578 39.5611 363.048 40.1209 363.609 40.5792C364.17 41.04 364.821 41.3797 365.563 41.6001C366.305 41.8196 367.057 41.9298 367.819 41.9298C368.541 41.9298 369.283 41.8099 370.045 41.5702C370.791 41.3378 371.492 40.9828 372.121 40.5198C372.737 40.0652 373.258 39.4945 373.654 38.8399C374.053 38.1797 374.255 37.4501 374.255 36.6495C374.255 35.8901 374.075 35.1399 373.713 34.3994C373.353 33.6597 372.871 32.9096 372.27 32.1493C371.633 31.3504 370.95 30.589 370.224 29.869C369.452 29.0993 368.67 28.3391 367.879 27.5886C367.032 26.7838 366.19 25.9736 365.353 25.1582C364.511 24.3386 363.768 23.4988 363.127 22.6377C362.486 21.7782 361.964 20.9078 361.563 20.0277C361.162 19.1479 360.962 18.2484 360.962 17.3276C360.962 15.9685 361.343 14.7982 362.105 13.8169C362.866 12.8375 363.809 12.0373 364.932 11.4167C366.053 10.7972 367.277 10.3364 368.601 10.0366C369.924 9.73639 371.147 9.58628 372.27 9.58628C373.874 9.58628 375.338 9.78681 376.661 10.1863C376.782 10.267 376.842 10.3465 376.842 10.426C376.673 12.4541 376.433 14.4756 376.12 16.4867C376.08 16.6065 375.999 16.6671 375.88 16.6671C375.759 16.6671 375.678 16.6065 375.639 16.4867C375.318 15.0868 374.707 13.8867 373.804 12.8864C372.903 11.8868 371.708 11.386 370.226 11.386C368.702 11.386 367.429 11.8763 366.407 12.8561C365.384 13.8371 364.873 15.0864 364.873 16.6062C364.873 17.4071 365.043 18.1468 365.384 18.8268C365.724 19.5079 366.166 20.1677 366.707 20.8069C367.249 21.4473 367.88 22.0772 368.602 22.6971C369.34 23.3321 370.082 23.9623 370.828 24.5876C371.678 25.2757 372.511 25.986 373.324 26.7178C374.122 27.4332 374.856 28.2163 375.519 29.0583C376.148 29.8591 376.674 30.736 377.083 31.6684C377.482 32.5892 377.684 33.5884 377.684 34.6686C377.683 36.07 377.312 37.35 376.57 38.5098ZM162.119 32.8917C161.583 34.0166 160.871 34.9886 159.982 35.8078C159.093 36.6263 158.062 37.2624 156.888 37.7174C155.714 38.1723 154.478 38.4 153.179 38.4C152.108 38.4 150.996 38.1386 149.846 37.6157C148.696 37.0937 147.631 36.404 146.684 35.5693C145.727 34.7287 144.934 33.7734 144.309 32.7048C143.682 31.6362 143.368 30.5559 143.368 29.4648C143.368 27.8051 143.522 26.3777 143.83 25.1838C144.138 23.9902 144.634 22.9787 145.317 22.149C146.001 21.3189 146.901 20.637 148.018 20.1029C149.134 19.5688 150.502 19.1309 152.12 18.7895L152.565 18.7554C154.023 18.6421 155.379 18.8524 156.633 19.3861C157.868 19.9081 158.984 20.6739 159.914 21.6374C160.848 22.6044 161.583 23.7467 162.119 25.0651C162.654 26.3835 162.922 27.7709 162.922 29.2259C162.922 30.5443 162.654 31.7665 162.119 32.8917ZM152.839 19.8822C152.547 19.8872 152.264 19.9062 151.988 19.9388V37.1569C152.264 37.2154 152.547 37.2573 152.839 37.2818L152.839 19.8822ZM154.876 37.1918C155.462 37.0917 156.031 36.9071 156.564 36.6437C157.453 36.1992 158.199 35.6092 158.803 34.8699C159.407 34.1314 159.863 33.273 160.171 32.2952C160.479 31.3173 160.633 30.2828 160.633 29.191C160.633 28.0774 160.467 26.9634 160.137 25.8494C159.806 24.7354 159.317 23.7346 158.667 22.8479C158.03 21.972 157.214 21.2398 156.274 20.6991C155.835 20.4467 155.366 20.2517 154.877 20.1188V37.1918H154.876ZM154.284 19.9869C154.002 19.9383 153.718 19.9065 153.433 19.8915V37.3081H153.487C153.761 37.3081 154.027 37.2961 154.284 37.2713L154.284 19.9869ZM151.4 20.0315C150.888 20.1312 150.389 20.2924 149.915 20.5117C149.015 20.933 148.257 21.5128 147.642 22.251C147.027 22.9899 146.553 23.8429 146.223 24.8087C145.892 25.7749 145.728 26.8039 145.728 27.8954C145.728 29.0327 145.899 30.1576 146.241 31.2712C146.582 32.3856 147.09 33.3917 147.762 34.2893C148.419 35.175 149.251 35.9178 150.206 36.4723C150.584 36.6922 150.984 36.8697 151.401 37.0013L151.4 20.0315Z" fill="#181818"/>
</svg>
