<svg width="220" height="35" viewBox="0 0 220 35" fill="none" xmlns="http://www.w3.org/2000/svg">
<path fill-rule="evenodd" clip-rule="evenodd" d="M3.99322 34.1351H0.902543C0.644674 34.1351 0 34.1351 0 33.7483C0 33.4917 0.128935 33.3615 0.515739 33.2326C3.3498 32.33 3.99322 30.7853 3.99322 28.5972V5.54044C3.99322 3.47873 3.34855 1.93277 0.515739 0.902543C0.128935 0.902543 0 0.644676 0 0.515742C0 0.00125498 0.644674 0.12894 0.902543 0.12894H26.4053C32.2011 0.12894 36.9679 4.76558 36.9679 10.5614C36.9679 16.3584 32.2011 20.9938 26.4053 20.9938H13.5244V28.8513C13.6546 30.9118 14.298 32.3275 17.0031 33.2301C17.3899 33.3603 17.5176 33.4892 17.5176 33.7458C17.5176 34.1326 16.8742 34.1326 16.6163 34.1326H3.99322V34.1351ZM194.11 21.641H200.164L194.11 11.3362L193.465 10.3048L188.057 21.641H194.11ZM194.11 0.00251176H198.233L215.491 30.4023C216.007 31.1721 216.65 31.947 217.425 32.3313C218.068 32.847 218.841 32.9772 219.484 33.2338C219.743 33.364 220 33.493 220 33.7496C220 34.1364 219.357 34.1364 219.097 34.1364H203.771C203.514 34.1364 202.739 34.1364 202.739 33.7496C202.739 33.493 202.998 33.3628 203.257 33.2338C204.03 32.9772 204.543 32.5904 204.799 31.8181C205.059 30.9155 204.799 30.4023 204.156 29.2406C203.281 27.3818 202.38 25.5357 201.452 23.7027H187.025L186.898 23.9593C186.767 24.475 185.738 26.2776 184.964 28.2104C183.935 30.2708 183.548 30.7853 183.804 31.8168C183.935 32.5892 184.577 32.976 185.349 33.2326C185.608 33.3628 185.738 33.4917 185.738 33.7483C185.738 34.1351 185.093 34.1351 184.836 34.1351H177.751C177.494 34.1351 176.848 34.1351 176.848 33.7483C176.848 33.4917 176.978 33.3615 177.364 33.2326C178.01 32.976 178.78 32.8458 179.424 32.33C180.197 31.9457 180.843 31.1709 181.356 30.401L182.258 28.467L192.047 7.98769L190.629 5.54044C189.344 3.47873 188.054 2.19064 186.637 1.41828C185.994 1.03148 185.349 1.03148 184.706 0.773612C184.319 0.644678 184.19 0.51574 184.319 0.257871C184.319 1.60417e-06 184.576 0.128935 184.706 0H194.11V0.00251176ZM155.597 34.0049H156.112C179.814 34.0049 179.557 0.130191 156.112 0.130191H136.663C136.276 0.130191 135.634 0.00125431 135.634 0.516993C135.634 0.645927 135.891 0.903794 136.147 0.903794C138.981 1.80508 139.626 3.35105 139.754 5.28382V28.8551C139.626 30.9155 138.981 32.3313 136.147 33.2338C135.891 33.364 135.634 33.493 135.634 33.7496C135.634 34.1364 136.278 34.1364 136.663 34.1364H149.157V34.0062L155.597 34.0049ZM155.597 2.57745C159.205 2.57745 162.168 5.54044 162.168 9.1456V24.8606C162.168 28.467 159.205 31.43 155.597 31.43H149.156V2.57745H155.597ZM106.523 21.641H112.576L106.523 11.3362L105.879 10.3048L100.47 21.641H106.523ZM106.523 0.00251176H110.774L128.033 30.4023C128.42 31.1721 129.065 31.947 129.837 32.3313C130.481 32.847 131.255 32.9772 132.028 33.2338C132.284 33.364 132.541 33.493 132.541 33.7496C132.541 34.1364 131.769 34.1364 131.512 34.1364H116.186C115.927 34.1364 115.284 34.1364 115.284 33.7496C115.284 33.493 115.412 33.3628 115.797 33.2338C116.443 32.9772 117.085 32.5904 117.215 31.8181C117.472 30.9155 117.215 30.4023 116.7 29.2406C115.797 27.3091 114.768 25.5053 113.868 23.7027H99.4374L99.3097 23.9593C99.1808 24.475 98.2782 26.2776 97.3769 28.2104C96.4756 30.2708 95.9612 30.7853 96.219 31.8168C96.4769 32.5892 96.9914 32.976 97.765 33.2326C98.0216 33.3628 98.2795 33.4917 98.2795 33.7483C98.2795 34.1351 97.636 34.1351 97.2505 34.1351H90.293C90.0352 34.1351 89.2616 34.1351 89.2616 33.7483C89.2616 33.4917 89.5194 33.3615 89.7773 33.2326C90.5509 32.976 91.1943 32.8458 91.9679 32.33C92.6114 31.9457 93.385 31.1709 93.7705 30.401L94.6718 28.467L104.591 7.98769L103.174 5.54044C101.886 3.47873 100.469 2.19064 99.1808 1.41828C98.4072 1.03148 97.8927 1.03148 97.1191 0.773612C96.8612 0.644678 96.6033 0.51574 96.7335 0.257871C96.8612 1.60417e-06 97.1191 0.128935 97.2492 0H106.523V0.00251176ZM64.0167 22.5435C66.9797 23.5725 70.5861 23.8291 73.4189 22.9303L84.6262 32.5904L85.5275 33.3628C85.6577 33.493 85.6576 33.6194 85.6576 33.7496C85.6576 34.1364 85.013 34.1364 84.7551 34.1364H72.9056L64.0179 26.7946L56.8038 20.9976V28.9853C56.934 30.9168 57.7064 32.3325 60.4102 33.2351C60.6681 33.3653 60.797 33.4942 60.797 33.7508C60.797 34.1376 60.1524 34.1376 59.8945 34.1376H44.3084C43.9229 34.1376 43.2782 34.1376 43.2782 33.7508C43.2782 33.4942 43.5361 33.364 43.7927 33.2351C46.8846 32.2061 47.2714 30.6601 47.3991 28.2129V5.92599C47.2702 3.60767 46.8834 1.93277 43.7927 0.902543C43.5348 0.902543 43.2782 0.644676 43.2782 0.515742C43.2782 0.00125498 43.9229 0.12894 44.3084 0.12894H69.4257C70.7973 0.123144 72.1566 0.389023 73.425 0.911234C74.6934 1.43344 75.8459 2.20165 76.8159 3.17153C77.7859 4.14141 78.5542 5.29376 79.0766 6.56211C79.5989 7.83046 79.865 9.18969 79.8593 10.5614C79.8651 11.9331 79.5992 13.2924 79.0769 14.5608C78.5546 15.8293 77.7863 16.9817 76.8162 17.9516C75.8462 18.9215 74.6937 19.6897 73.4252 20.2119C72.1567 20.734 70.7974 20.9998 69.4257 20.9938H61.3115C61.6983 21.7662 62.5996 22.0253 63.372 22.4121C63.6299 22.4133 63.7588 22.5435 64.0167 22.5435ZM64.0167 18.5503H65.0469C68.3954 18.5503 71.2295 14.9426 71.2295 10.3048C71.2295 5.79705 68.3954 2.19064 65.0469 2.19064H56.8026V18.5503H64.0167ZM20.8661 2.1919H13.5244V18.5516H22.0265C25.504 18.5516 28.2091 14.9439 28.2091 10.306C28.2091 5.7983 25.504 2.1919 22.0265 2.1919H20.8661Z" fill="#181818"/>
</svg>
