<svg width="279" height="66" viewBox="0 0 279 66" fill="none" xmlns="http://www.w3.org/2000/svg">
<path d="M52.3888 16.2886V44.0191C52.3425 44.7147 51.9715 45.3175 51.415 45.6885L50.4876 46.2449L43.5782 50.2329L38.8946 52.9689L37.9208 53.5253V23.569L11.9524 8.59085L24.2874 1.49593L25.4003 0.846725C26.0031 0.52212 26.7451 0.52212 27.3479 0.846725L44.4128 10.724L52.2961 15.2684L52.3888 16.2886ZM32.217 26.8151L26.8842 23.7545L14.4565 16.5668C13.8537 16.2422 13.1117 16.2422 12.5089 16.5668L1.47235 22.9662L0.498535 23.5226L19.2328 34.3273V55.9831L30.2694 49.6301L31.2432 49.0736C31.7997 48.7026 32.1706 48.0998 32.217 47.4042V26.8151ZM0.498535 45.132L13.4827 52.5979V37.6197L0.498535 45.132Z" fill="#F0F0F0"/>
<path d="M80.9545 15.1757H66.811V53.4789H73.0713V38.4544H81.0009C89.5797 38.4544 94.3096 34.2809 94.3096 26.6759C94.3096 23.198 93.0112 15.1757 80.9545 15.1757ZM87.9103 26.7223C87.9103 31.0349 85.6845 32.797 80.1662 32.797H73.1176V20.7867H81.0472C85.6844 20.833 87.9567 22.7343 87.9103 26.7223ZM112.998 25.563L113.461 25.7948L112.395 31.4522L111.653 31.2204C111.05 31.0349 110.447 30.9421 109.844 30.9421C104.001 30.9421 103.491 35.6257 103.491 41.2831V53.4789H97.6948V25.3311H103.12V28.7163C104.604 26.4441 106.366 25.2384 108.778 24.9601C110.215 24.7747 111.653 24.9602 112.998 25.563ZM127.28 24.7747C122.689 24.7747 119.026 26.4904 116.661 29.8292C114.203 33.3071 113.832 37.3415 113.832 39.4746C113.832 48.378 119.119 54.0818 127.28 54.0818C137.204 54.0818 140.728 46.1058 140.728 39.2427C140.728 35.3011 139.569 31.7305 137.482 29.18C135.071 26.3049 131.546 24.7747 127.28 24.7747ZM127.28 48.8881C122.736 48.8881 119.907 45.2711 119.907 39.4282C119.907 33.5853 122.736 29.8756 127.28 29.8756C131.825 29.8756 134.7 33.539 134.7 39.2891C134.746 45.2247 131.871 48.8881 127.28 48.8881ZM189.558 25.563L190.022 25.7948L188.955 31.4522L188.213 31.2204C187.61 31.0349 187.007 30.9421 186.404 30.9421C180.562 30.9421 180.052 35.6257 180.052 41.2831V53.4789H174.255V25.3311H179.681V28.7163C181.164 26.4441 182.927 25.2384 185.338 24.9601C186.775 24.7747 188.213 24.9602 189.558 25.563ZM210.379 44.4364L210.286 44.761C209.08 48.2389 206.159 48.9345 203.933 48.9345C199.528 48.9345 196.699 46.013 196.421 41.2831H216.314L216.407 40.7266C216.5 39.9847 216.5 39.2427 216.454 38.5008C216.454 38.3153 216.454 38.1298 216.454 37.9907C216.175 30.1074 211.028 24.7747 203.701 24.7747C199.389 24.7747 195.911 26.4441 193.546 29.6437C191.552 32.5188 190.485 35.9503 190.532 39.4282C190.532 48.0998 195.957 53.9427 203.979 53.9427C210.193 53.9427 214.506 50.7894 216.036 45.0392L216.222 44.39H210.379V44.4364ZM196.653 36.2286C197.163 32.3333 199.806 29.8756 203.609 29.8756C206.484 29.8756 209.915 31.545 210.425 36.2286H196.653ZM163.682 27.6961C161.827 25.7485 159.323 24.7747 156.216 24.7747C147.684 24.7747 143.789 32.2869 143.789 39.2427C143.789 46.384 147.637 53.6181 156.216 53.6181C158.952 53.6644 161.549 52.5979 163.45 50.6503C163.45 51.9023 163.404 53.0616 163.358 53.5717C163.033 58.2089 160.807 60.3884 156.355 60.3884C153.944 60.3884 151.115 59.5073 150.605 57.1423L150.466 56.5859H144.716L144.809 57.3742C145.412 62.336 149.771 65.3966 156.17 65.3966C161.781 65.3966 165.769 63.2634 167.717 59.2754C168.644 57.3278 169.108 54.5455 169.108 50.9285V25.3775H163.589L163.682 27.6961ZM156.587 48.4244C154.547 48.4244 149.817 47.497 149.817 38.9645C149.817 33.3535 152.46 29.8756 156.726 29.8756C160.019 29.8756 163.543 32.2406 163.543 38.9645C163.497 44.9001 160.9 48.4244 156.587 48.4244ZM243.349 44.9929C243.349 49.4446 239.64 53.989 231.339 53.989C224.012 53.989 219.653 50.7894 219.05 45.0392L218.958 44.4364H224.661L224.754 44.9001C225.45 48.378 228.742 49.0736 231.385 49.0736C234.307 49.0736 237.367 48.1462 237.367 45.503C237.367 44.1582 236.486 43.2307 234.817 42.7206C233.797 42.4424 232.545 42.0714 231.246 41.7004C228.974 41.0512 226.655 40.402 225.218 39.8919C221.647 38.5935 219.607 36.1358 219.607 33.0752C219.607 27.4179 225.125 24.8674 230.597 24.8674C237.924 24.8674 241.68 27.6033 242.19 33.3071L242.236 33.91H236.625L236.533 33.4462C235.976 30.2002 232.73 29.6901 230.829 29.6901C229.206 29.6901 225.403 29.9683 225.403 32.6579C225.403 33.8636 226.47 34.791 228.603 35.3938C229.252 35.5793 230.18 35.8112 231.339 36.0894C233.611 36.6923 236.486 37.4342 237.924 37.8979C241.494 39.15 243.303 41.515 243.303 44.9465M270.152 45.0392C270.152 49.491 266.443 54.0354 258.142 54.0354C250.815 54.0354 246.456 50.8357 245.853 45.0856L245.807 44.4828H251.557L251.604 44.9001C252.299 48.378 255.592 49.0736 258.235 49.0736C261.156 49.0736 264.217 48.1462 264.217 45.503C264.217 44.1582 263.336 43.2307 261.666 42.7206C260.646 42.4424 259.394 42.0714 258.096 41.7004C255.823 41.0512 253.505 40.402 252.067 39.8919C248.497 38.5935 246.456 36.1358 246.456 33.0752C246.456 27.4179 251.975 24.8674 257.446 24.8674C264.773 24.8674 268.529 27.6033 268.993 33.3071L269.039 33.91H263.428L263.336 33.4462C262.779 30.2002 259.533 29.6901 257.632 29.6901C256.009 29.6901 252.206 29.9683 252.206 32.6579C252.206 33.8636 253.273 34.791 255.406 35.3938C256.055 35.5793 256.983 35.8112 258.142 36.0894C260.414 36.6923 263.289 37.4342 264.727 37.8979C268.39 39.2427 270.199 41.6077 270.152 45.0392Z" fill="#F0F0F0"/>
<path d="M274.789 28.2991C272.563 28.3455 270.754 26.537 270.754 24.3575C270.708 22.1316 272.516 20.3231 274.696 20.3231C276.875 20.3231 278.73 22.0853 278.73 24.2647V24.3111C278.777 26.4906 277.061 28.2527 274.881 28.2991C274.835 28.2991 274.789 28.2991 274.789 28.2991ZM274.789 20.9723C272.934 20.926 271.45 22.4099 271.404 24.2184C271.357 26.0733 272.841 27.5572 274.65 27.6035C276.458 27.6499 277.988 26.166 278.035 24.3575V24.3111C278.081 22.549 276.69 21.0651 274.928 20.9723C274.881 20.9723 274.835 20.9723 274.789 20.9723ZM274.325 25.0531V26.3979H273.166V22.178H275.113C275.902 22.0853 276.597 22.6417 276.644 23.4301C276.644 23.5228 276.644 23.5692 276.644 23.6619C276.69 24.2184 276.365 24.7285 275.855 24.914L276.829 26.3979H275.484L274.696 25.0531H274.325ZM274.974 23.1518H274.325V24.0793H274.974C275.206 24.1256 275.484 23.9401 275.531 23.7083C275.531 23.6619 275.531 23.6619 275.531 23.6155C275.531 23.3373 275.345 23.1518 275.067 23.1054C275.021 23.1518 274.974 23.1518 274.974 23.1518Z" fill="#F0F0F0"/>
</svg>
