<svg width="204" height="48" viewBox="0 0 204 48" fill="none" xmlns="http://www.w3.org/2000/svg">
<path d="M38.0236 11.4937V31.8138C37.9896 32.3235 37.7178 32.7652 37.31 33.0371L36.6304 33.4448L31.5674 36.3671L28.1354 38.3719L27.4219 38.7797V16.8286L8.39306 5.85305L17.4317 0.654113L18.2473 0.178395C18.689 -0.059465 19.2327 -0.059465 19.6744 0.178395L32.1791 7.41614L37.9557 10.7462L38.0236 11.4937ZM23.2423 19.2072L19.3346 16.9645L10.228 11.6976C9.78624 11.4598 9.24256 11.4598 8.80082 11.6976L0.71358 16.3869L0 16.7946L13.7279 24.712V40.5806L21.8152 35.9254L22.5287 35.5176C22.9365 35.2458 23.2083 34.804 23.2423 34.2943V19.2072ZM0 32.6293L9.5144 38.1001V27.1245L0 32.6293Z" fill="#363636"/>
<path d="M58.9557 10.6782H48.5918V38.7457H53.1791V27.7362H58.9897C65.276 27.7362 68.7419 24.678 68.7419 19.1053C68.7419 16.5568 67.7905 10.6782 58.9557 10.6782ZM64.0527 19.1392C64.0527 22.2994 62.4217 23.5906 58.378 23.5906H53.2131V14.7898H59.0237C62.4217 14.8238 64.0867 16.217 64.0527 19.1392ZM82.4359 18.2897L82.7757 18.4596L81.9941 22.6052L81.4505 22.4353C81.0087 22.2994 80.567 22.2314 80.1252 22.2314C75.8438 22.2314 75.47 25.6634 75.47 29.809V38.7457H71.2225V18.1198H75.1981V20.6004C76.2855 18.9354 77.5767 18.0519 79.3437 17.848C80.3971 17.7121 81.4505 17.848 82.4359 18.2897ZM92.9017 17.7121C89.5377 17.7121 86.8533 18.9693 85.1203 21.4159C83.3194 23.9644 83.0475 26.9207 83.0475 28.4837C83.0475 35.0079 86.9212 39.1874 92.9017 39.1874C100.173 39.1874 102.756 33.3429 102.756 28.3138C102.756 25.4255 101.906 22.8091 100.377 20.9402C98.6104 18.8334 96.0279 17.7121 92.9017 17.7121ZM92.9017 35.3817C89.5717 35.3817 87.4989 32.7312 87.4989 28.4498C87.4989 24.1683 89.5717 21.4499 92.9017 21.4499C96.2318 21.4499 98.3385 24.1343 98.3385 28.3478C98.3725 32.6973 96.2657 35.3817 92.9017 35.3817ZM138.537 18.2897L138.877 18.4596L138.095 22.6052L137.551 22.4353C137.11 22.2994 136.668 22.2314 136.226 22.2314C131.945 22.2314 131.571 25.6634 131.571 29.809V38.7457H127.323V18.1198H131.299V20.6004C132.386 18.9354 133.678 18.0519 135.445 17.848C136.498 17.7121 137.551 17.848 138.537 18.2897ZM153.794 32.1196L153.726 32.3575C152.842 34.906 150.702 35.4157 149.071 35.4157C145.843 35.4157 143.77 33.2749 143.566 29.809H158.143L158.211 29.4012C158.279 28.8575 158.279 28.3138 158.245 27.7702C158.245 27.6342 158.245 27.4983 158.245 27.3964C158.041 21.6198 154.27 17.7121 148.901 17.7121C145.741 17.7121 143.192 18.9354 141.459 21.28C139.998 23.3867 139.216 25.9013 139.25 28.4498C139.25 34.804 143.226 39.0855 149.105 39.0855C153.658 39.0855 156.818 36.7749 157.939 32.5613L158.075 32.0856H153.794V32.1196ZM143.736 26.1051C144.11 23.2508 146.046 21.4499 148.833 21.4499C150.94 21.4499 153.454 22.6732 153.828 26.1051H143.736ZM119.576 19.8528C118.217 18.4257 116.382 17.7121 114.105 17.7121C107.853 17.7121 104.999 23.2168 104.999 28.3138C104.999 33.5468 107.819 38.8476 114.105 38.8476C116.11 38.8816 118.013 38.1001 119.406 36.6729C119.406 37.5904 119.372 38.4399 119.338 38.8137C119.1 42.2117 117.469 43.8087 114.207 43.8087C112.44 43.8087 110.367 43.1631 109.994 41.4301L109.892 41.0224H105.678L105.746 41.6C106.188 45.2359 109.382 47.4786 114.071 47.4786C118.183 47.4786 121.105 45.9155 122.532 42.9932C123.212 41.566 123.552 39.5272 123.552 36.8768V18.1538H119.508L119.576 19.8528ZM114.377 35.0419C112.882 35.0419 109.416 34.3623 109.416 28.11C109.416 23.9984 111.353 21.4499 114.479 21.4499C116.892 21.4499 119.474 23.1829 119.474 28.11C119.44 32.4594 117.537 35.0419 114.377 35.0419ZM177.954 32.5274C177.954 35.7894 175.235 39.1195 169.153 39.1195C163.784 39.1195 160.59 36.7749 160.148 32.5613L160.08 32.1196H164.26L164.328 32.4594C164.837 35.0079 167.25 35.5176 169.187 35.5176C171.328 35.5176 173.57 34.838 173.57 32.9011C173.57 31.9157 172.925 31.2361 171.701 30.8623C170.954 30.6585 170.036 30.3866 169.085 30.1148C167.42 29.6391 165.721 29.1633 164.667 28.7896C162.051 27.8381 160.556 26.0372 160.556 23.7945C160.556 19.6489 164.6 17.78 168.609 17.78C173.978 17.78 176.73 19.7849 177.104 23.9644L177.138 24.4061H173.027L172.959 24.0663C172.551 21.6877 170.172 21.314 168.779 21.314C167.59 21.314 164.803 21.5178 164.803 23.4887C164.803 24.3722 165.585 25.0518 167.148 25.4935C167.624 25.6294 168.303 25.7993 169.153 26.0032C170.818 26.4449 172.925 26.9886 173.978 27.3284C176.594 28.2459 177.92 29.9789 177.92 32.4934M197.594 32.5613C197.594 35.8234 194.876 39.1535 188.793 39.1535C183.424 39.1535 180.23 36.8088 179.789 32.5953L179.755 32.1536H183.968L184.002 32.4594C184.512 35.0079 186.924 35.5176 188.861 35.5176C191.002 35.5176 193.245 34.838 193.245 32.9011C193.245 31.9157 192.599 31.2361 191.376 30.8623C190.628 30.6585 189.711 30.3866 188.759 30.1148C187.094 29.6391 185.395 29.1633 184.342 28.7896C181.725 27.8381 180.23 26.0372 180.23 23.7945C180.23 19.6489 184.274 17.78 188.284 17.78C193.652 17.78 196.405 19.7849 196.745 23.9644L196.779 24.4061H192.667L192.599 24.0663C192.191 21.6877 189.813 21.314 188.42 21.314C187.23 21.314 184.444 21.5178 184.444 23.4887C184.444 24.3722 185.225 25.0518 186.788 25.4935C187.264 25.6294 187.944 25.7993 188.793 26.0032C190.458 26.4449 192.565 26.9886 193.618 27.3284C196.303 28.3138 197.628 30.0468 197.594 32.5613Z" fill="#363636"/>
<path d="M200.991 20.2946C199.36 20.3286 198.035 19.0034 198.035 17.4063C198.001 15.7753 199.326 14.4501 200.923 14.4501C202.52 14.4501 203.879 15.7413 203.879 17.3384V17.3724C203.913 18.9694 202.656 20.2607 201.059 20.2946C201.025 20.2946 200.991 20.2946 200.991 20.2946ZM200.991 14.9258C199.632 14.8918 198.545 15.9792 198.511 17.3044C198.477 18.6636 199.564 19.751 200.889 19.7849C202.214 19.8189 203.336 18.7316 203.37 17.4063V17.3724C203.404 16.0811 202.384 14.9938 201.093 14.9258C201.059 14.9258 201.025 14.9258 200.991 14.9258ZM200.651 17.916V18.9015H199.802V15.8093H201.229C201.807 15.7413 202.316 16.1491 202.35 16.7267C202.35 16.7947 202.35 16.8287 202.35 16.8966C202.384 17.3044 202.146 17.6782 201.773 17.8141L202.486 18.9015H201.501L200.923 17.916H200.651ZM201.127 16.5229H200.651V17.2025H201.127C201.297 17.2364 201.501 17.1005 201.535 16.9306C201.535 16.8966 201.535 16.8966 201.535 16.8627C201.535 16.6588 201.399 16.5229 201.195 16.4889C201.161 16.5229 201.127 16.5229 201.127 16.5229Z" fill="#363636"/>
</svg>
