<svg width="230" height="33" viewBox="0 0 230 33" fill="none" xmlns="http://www.w3.org/2000/svg">
<path fill-rule="evenodd" clip-rule="evenodd" d="M126.123 15.3236C126.123 15.3236 123.886 13.9677 122.502 13.4431C122.502 13.4431 118.219 11.4979 117.369 10.5724C117.369 10.5724 115.7 9.03085 116.677 7.24035C116.677 7.24035 117.087 6.06871 118.851 6.06871C118.851 6.06871 121.147 6.19249 121.147 8.04206V10.6512H129.377L129.363 6.80855C129.363 6.80855 129.996 0.515769 119.669 0.238685C119.669 0.238685 111.546 -0.284549 109.216 4.00253C109.216 4.00253 108.302 4.95897 108.302 8.28962V10.6962C108.302 10.6962 108.209 13.4727 109.656 15.2617C109.656 15.2617 110.474 16.4348 112.489 17.7288C112.489 17.7288 116.581 19.8878 119.037 21.1241C119.037 21.1241 121.516 22.511 121.19 24.7178C121.19 24.7178 120.988 26.9837 118.594 26.8909C118.594 26.8909 116.405 26.7952 116.405 24.5729V21.9652H107.635V25.753C107.635 25.753 107.389 32.9966 118.658 32.9966C118.658 32.9966 129.426 33.2104 129.929 25.5631V22.4786C129.927 22.4786 130.309 17.7921 126.123 15.3236ZM83.9873 1.14026L81.2314 18.0635H80.5869L77.9545 1.29217H64.2067L63.5177 31.9389H71.6576L71.7552 8.84801H72.3953L76.71 31.9347H85.2733L89.5349 8.85644H90.1019L90.2985 31.9389H98.4815L97.6002 1.14026H83.9873ZM35.5326 1.26826L30.117 31.9037H38.8798L42.0879 8.15037H42.8084L46.015 31.9037H54.7764L49.3622 1.26826H35.5326ZM219.404 14.9017V19.4208H221.652V24.2719C221.652 26.6433 219.584 26.6869 219.584 26.6869C217.069 26.6869 217.164 24.4337 217.164 24.4337V7.65386C217.164 5.92525 219.396 5.83242 219.396 5.83242C221.537 5.83242 221.552 7.89439 221.552 7.89439V10.4458H229.802C230.072 5.46532 229.058 4.25993 229.058 4.25993C227.012 -0.243751 219.269 0.00238985 219.269 0.00238985C207.372 0.00238985 208.692 8.94787 208.692 8.94787V25.1721C208.948 33.562 220.672 32.7097 220.87 32.7026C226.084 32.1372 227.659 30.5127 227.659 30.5127C229.109 29.4578 229.482 27.9964 229.482 27.9964C229.897 27.1455 230 24.4337 230 24.4337V14.9017H219.404ZM192.056 19.8878H191.698L183.325 1.1487H173.308V31.9417H181.461L180.973 13.2054H181.337L190.011 31.9417H199.724V1.14589H191.468L192.056 19.8878ZM153.407 24.2691C153.407 24.2691 153.524 26.7966 151.133 26.7966C151.133 26.7966 148.618 26.9288 148.618 24.3324L148.593 1.16698H139.65V24.1482C139.65 24.1482 138.733 32.8461 151.259 32.8461C151.259 32.8461 162.145 32.9727 162.145 24.5476V1.16839H153.407V24.2691ZM18.4849 15.3236C18.4849 15.3236 16.2501 13.9677 14.8649 13.4445C14.8649 13.4445 10.5847 11.5007 9.735 10.5738C9.735 10.5738 8.06568 9.02944 9.04459 7.24316C9.04459 7.24316 9.45223 6.07153 11.2148 6.07153C11.2148 6.07153 13.5128 6.19389 13.5128 8.04347V10.6526H21.746L21.7302 6.80855C21.7302 6.80855 22.3589 0.515769 12.0359 0.24009C12.0359 0.24009 11.2579 0.190858 10.1168 0.247119C10.1168 0.247119 3.86297 0.576246 1.62668 3.93783C1.61377 3.96315 1.59511 3.98144 1.58219 4.00395C1.58219 4.00395 0.669305 4.95897 0.669305 8.29102V10.6976C0.669305 10.6976 0.57457 13.4741 2.02284 15.2632C2.02284 15.2632 2.84099 16.4362 4.85623 17.7302C4.85623 17.7302 8.94699 19.8892 11.4029 21.1255C11.4029 21.1255 13.8846 22.5096 13.5559 24.7192C13.5559 24.7192 13.3535 26.9851 10.9608 26.8923C10.9608 26.8923 8.77187 26.7966 8.77187 24.5743V21.9652H0.000427679V25.7558C0.000427679 25.7558 -0.245017 32.9994 11.0239 32.9994C11.0239 32.9994 21.7891 33.2132 22.2958 25.5659V22.4842C22.2958 22.4814 22.6718 17.7921 18.4849 15.3236Z" fill="#181818"/>
</svg>
