<svg width="210" height="52" viewBox="0 0 210 52" fill="none" xmlns="http://www.w3.org/2000/svg">
<path d="M201.665 8.11208C202.521 8.97127 203.533 9.40086 204.699 9.40086C205.901 9.40086 206.93 8.97127 207.787 8.11208C208.643 7.25292 209.071 6.23835 209.071 5.06841C209.071 3.89847 208.643 2.87479 207.787 1.99733C206.93 1.11987 205.901 0.681152 204.699 0.681152C203.533 0.681152 202.521 1.11987 201.665 1.99733C200.809 2.87479 200.381 3.89847 200.381 5.06841C200.381 6.23835 200.809 7.25292 201.665 8.11208Z" fill="white"/>
<path d="M109.462 19.3296C109.462 19.4195 109.389 19.4923 109.299 19.4923H103.285V30.8991C103.285 31.8497 103.522 32.5443 103.996 32.9831C104.47 33.4219 105.162 33.6686 106.073 33.7235C106.906 33.7737 107.923 33.7704 109.122 33.7133L109.153 33.7118L109.208 33.7092L109.29 33.7049C109.383 33.7001 109.462 33.7744 109.462 33.8676V39.967C109.462 40.0499 109.399 40.1194 109.317 40.1285C109.277 40.1328 109.237 40.1373 109.207 40.1404C104.495 40.6444 101.165 40.1781 99.2137 38.7414C97.2278 37.2789 96.2349 34.6649 96.2349 30.8991V19.4923H91.6426C91.5528 19.4923 91.48 19.4195 91.48 19.3296V12.8547C91.48 12.7649 91.5528 12.692 91.6426 12.692H96.2349V8.16287C96.2349 8.03405 96.3111 7.91735 96.4288 7.8653L103.057 4.93812C103.165 4.89063 103.285 4.96936 103.285 5.0869V12.692H109.299C109.389 12.692 109.462 12.7649 109.462 12.8547V19.3296Z" fill="white"/>
<path d="M122.246 17.408C122.902 15.653 123.986 14.3369 125.498 13.4594C126.882 12.6564 128.411 12.2208 130.084 12.1527C130.165 12.1494 130.289 12.147 130.389 12.1454C130.48 12.144 130.554 12.217 130.554 12.3075V19.749C130.554 19.9044 130.419 20.0239 130.264 20.0099C128.231 19.8254 126.405 20.2743 124.787 21.3565C123.093 22.4899 122.246 24.3727 122.246 27.005V39.9493C122.246 40.0391 122.173 40.112 122.083 40.112H115.358C115.268 40.112 115.195 40.0391 115.195 39.9493V12.8543C115.195 12.7644 115.268 12.6916 115.358 12.6916H122.083C122.173 12.6916 122.246 12.7644 122.246 12.8543V17.408Z" fill="white"/>
<path fill-rule="evenodd" clip-rule="evenodd" d="M155.584 12.6912C155.494 12.6912 155.421 12.764 155.421 12.8539V15.9268C153.308 13.2579 150.338 11.9235 146.512 11.9235C142.868 11.9235 139.744 13.3219 137.139 16.1188C134.533 18.9157 133.231 22.3432 133.231 26.4014C133.231 30.4596 134.533 33.8872 137.139 36.6842C139.744 39.4809 142.868 40.8794 146.512 40.8794C150.338 40.8794 153.308 39.545 155.421 36.876V39.9491C155.421 40.0389 155.494 40.1115 155.584 40.1115H162.309C162.399 40.1115 162.471 40.0389 162.471 39.9491V12.8539C162.471 12.764 162.399 12.6912 162.309 12.6912H155.584ZM142.412 31.9954C143.834 33.4214 145.637 34.1344 147.823 34.1344C150.01 34.1344 151.822 33.4123 153.261 31.9682C154.701 30.5241 155.42 28.6687 155.42 26.4017C155.42 24.135 154.701 22.2796 153.261 20.8354C151.822 19.3913 150.01 18.6692 147.823 18.6692C145.637 18.6692 143.834 19.3913 142.412 20.8354C140.991 22.2796 140.281 24.135 140.281 26.4017C140.281 28.6687 140.991 30.5332 142.412 31.9954Z" fill="white"/>
<path fill-rule="evenodd" clip-rule="evenodd" d="M193.095 16.1188C190.489 13.3219 187.346 11.9235 183.666 11.9235C179.841 11.9235 176.889 13.2579 174.812 15.9268V12.8539C174.812 12.764 174.739 12.6912 174.65 12.6912H167.924C167.835 12.6912 167.762 12.764 167.762 12.8539V50.9171C167.762 51.007 167.835 51.0798 167.924 51.0798H174.65C174.739 51.0798 174.812 51.007 174.812 50.9171V36.876C176.889 39.545 179.841 40.8795 183.666 40.8795C187.346 40.8795 190.489 39.481 193.095 36.6842C195.7 33.8872 197.002 30.4596 197.002 26.4014C197.002 22.3432 195.7 18.9157 193.095 16.1188ZM176.943 31.9954C178.364 33.4214 180.168 34.1344 182.354 34.1344C184.54 34.1344 186.353 33.4123 187.792 31.9682C189.232 30.5241 189.951 28.6687 189.951 26.4017C189.951 24.135 189.232 22.2796 187.792 20.8354C186.353 19.3913 184.54 18.6692 182.354 18.6692C180.168 18.6692 178.364 19.3913 176.943 20.8354C175.522 22.2796 174.812 24.135 174.812 26.4017C174.812 28.6687 175.522 30.5332 176.943 31.9954Z" fill="white"/>
<path d="M201.364 40.1122C201.274 40.1122 201.201 40.0394 201.201 39.9495V12.8544C201.201 12.7646 201.274 12.6918 201.364 12.6918H208.089C208.179 12.6918 208.252 12.7646 208.252 12.8544V39.9495C208.252 40.0394 208.179 40.1122 208.089 40.1122H201.364Z" fill="white"/>
<path d="M75.511 22.261C74.5453 21.804 74.0626 21.2099 74.0626 20.4786C74.0626 19.784 74.3631 19.2356 74.9643 18.8334C75.5655 18.4312 76.3217 18.2302 77.2325 18.2302C78.9792 18.2302 80.2989 18.9134 81.191 20.2798C81.2534 20.3751 81.3745 20.4137 81.4786 20.3675L87.4271 17.7269C87.5157 17.6875 87.5506 17.5801 87.5011 17.4966C87.4357 17.3858 87.3492 17.2412 87.2919 17.1507C86.2722 15.5425 84.9532 14.3444 83.2994 13.4316C81.4774 12.4262 79.4552 11.9235 77.2325 11.9235C74.2811 11.9235 71.8126 12.7004 69.8267 14.2542C67.8409 15.808 66.848 17.9377 66.848 20.6432C66.848 22.4346 67.3309 23.9245 68.2964 25.1126C69.2621 26.3009 70.437 27.1692 71.8217 27.7176C73.2063 28.266 74.5909 28.7229 75.9756 29.0886C77.36 29.4543 78.5352 29.8656 79.5009 30.3225C80.4663 30.7795 80.9491 31.3737 80.9491 32.1049C80.9491 33.677 79.692 34.4631 77.178 34.4631C74.7847 34.4631 73.1263 33.5755 72.2026 31.8008C72.1233 31.6482 71.9418 31.5784 71.7846 31.6484L65.8529 34.2856C65.7693 34.3227 65.7327 34.4216 65.7724 34.504C65.7965 34.5536 65.8218 34.6057 65.8402 34.6427C67.9133 38.8005 71.6924 40.8795 77.178 40.8795C80.3115 40.8795 82.9258 40.1209 85.0208 38.6034C87.1161 37.0862 88.1637 34.92 88.1637 32.1049C88.1637 30.2404 87.6807 28.6864 86.7153 27.4434C85.7496 26.2004 84.5747 25.3137 83.19 24.7837C81.8054 24.2535 80.4207 23.8148 79.0363 23.4675C77.6516 23.1201 76.4765 22.718 75.511 22.261Z" fill="white"/>
<path fill-rule="evenodd" clip-rule="evenodd" d="M2.64156 3.25191C0.0708008 5.8227 0.0708008 9.96028 0.0708008 18.2355V33.7644C0.0708008 42.0396 0.0708008 46.177 2.64156 48.7478C5.21234 51.3186 9.34993 51.3186 17.6251 51.3186H33.154C41.4292 51.3186 45.5667 51.3186 48.1375 48.7478C50.7083 46.177 50.7083 42.0396 50.7083 33.7644V18.2355C50.7083 9.96028 50.7083 5.8227 48.1375 3.25191C45.5667 0.681152 41.4292 0.681152 33.154 0.681152H17.6251C9.34993 0.681152 5.21234 0.681152 2.64156 3.25191ZM17.9627 16.0412H35.0108C35.1971 16.0412 35.3483 16.1924 35.3483 16.3788V33.4267H26.6556V24.734H17.9627V16.0412Z" fill="#F0F0F0"/>
<path d="M26.6555 24.7339H26.3179V25.0715H26.6555V24.7339Z" fill="white"/>
<path d="M17.9629 24.7339H26.318C26.5046 24.7339 26.6558 24.8851 26.6558 25.0714V33.4266H18.3005C18.114 33.4266 17.9629 33.2756 17.9629 33.0891V24.7339Z" fill="#545557"/>
<path d="M26.6553 33.4266H35.348L26.9433 41.8313C26.837 41.9376 26.6553 41.8623 26.6553 41.7121V33.4266Z" fill="#545557"/>
<path d="M17.9627 24.734H9.67742C9.52706 24.734 9.45175 24.5522 9.55806 24.4459L17.9627 16.0413V24.734Z" fill="#545557"/>
</svg>
