<svg width="173" height="42" viewBox="0 0 173 42" fill="none" xmlns="http://www.w3.org/2000/svg">
<path d="M166.066 6.10429C166.769 6.81008 167.6 7.16297 168.558 7.16297C169.545 7.16297 170.391 6.81008 171.094 6.10429C171.798 5.39851 172.149 4.56507 172.149 3.604C172.149 2.64293 171.798 1.80201 171.094 1.0812C170.391 0.360396 169.545 0 168.558 0C167.6 0 166.769 0.360396 166.066 1.0812C165.362 1.80201 165.011 2.64293 165.011 3.604C165.011 4.56507 165.362 5.39851 166.066 6.10429Z" fill="black"/>
<path d="M90.324 15.3191C90.324 15.3929 90.2642 15.4527 90.1904 15.4527H85.2506V24.823C85.2506 25.604 85.4452 26.1745 85.8343 26.535C86.2234 26.8954 86.792 27.0981 87.5404 27.1432C88.225 27.1845 89.0598 27.1817 90.045 27.1348L90.0703 27.1336L90.1159 27.1315L90.1834 27.1279C90.2599 27.124 90.324 27.185 90.324 27.2616V32.2721C90.324 32.3401 90.2728 32.3972 90.2053 32.4047C90.1724 32.4082 90.1392 32.412 90.1147 32.4145C86.2446 32.8285 83.5084 32.4455 81.9057 31.2653C80.2744 30.0639 79.4587 27.9165 79.4587 24.823V15.4527H75.6864C75.6126 15.4527 75.5527 15.3929 75.5527 15.3191V10.0001C75.5527 9.92632 75.6126 9.86649 75.6864 9.86649H79.4587V6.14592C79.4587 6.0401 79.5213 5.94424 79.6181 5.90148L85.063 3.49689C85.1513 3.45788 85.2506 3.52255 85.2506 3.61911V9.86649H90.1904C90.2642 9.86649 90.324 9.92632 90.324 10.0001V15.3191Z" fill="black"/>
<path d="M100.826 13.7405C101.365 12.2989 102.255 11.2177 103.497 10.4969C104.634 9.83726 105.89 9.47946 107.265 9.42348C107.331 9.42079 107.433 9.41879 107.515 9.4175C107.59 9.41632 107.65 9.47634 107.65 9.55067V15.6636C107.65 15.7912 107.54 15.8895 107.412 15.8779C105.742 15.7264 104.243 16.0951 102.914 16.9841C101.522 17.9151 100.826 19.4619 100.826 21.6242V32.2576C100.826 32.3313 100.766 32.3912 100.692 32.3912H95.1678C95.094 32.3912 95.0342 32.3313 95.0342 32.2576V9.99982C95.0342 9.92602 95.094 9.8662 95.1678 9.8662H100.692C100.766 9.8662 100.826 9.92602 100.826 9.99982V13.7405Z" fill="black"/>
<path fill-rule="evenodd" clip-rule="evenodd" d="M128.212 9.86592C128.138 9.86592 128.078 9.92574 128.078 9.99954V12.5239C126.342 10.3314 123.903 9.23523 120.76 9.23523C117.766 9.23523 115.2 10.384 113.06 12.6816C110.92 14.9791 109.85 17.7947 109.85 21.1284C109.85 24.4621 110.92 27.2778 113.06 29.5754C115.2 31.8729 117.766 33.0217 120.76 33.0217C123.903 33.0217 126.342 31.9255 128.078 29.733V32.2575C128.078 32.3312 128.138 32.3909 128.212 32.3909H133.736C133.81 32.3909 133.87 32.3312 133.87 32.2575V9.99954C133.87 9.92574 133.81 9.86592 133.736 9.86592H128.212ZM117.392 25.7238C118.559 26.8951 120.041 27.4808 121.837 27.4808C123.633 27.4808 125.122 26.8877 126.304 25.7014C127.486 24.5151 128.078 22.9909 128.078 21.1286C128.078 19.2667 127.486 17.7425 126.304 16.5562C125.122 15.3698 123.633 14.7767 121.837 14.7767C120.041 14.7767 118.559 15.3698 117.392 16.5562C116.225 17.7425 115.641 19.2667 115.641 21.1286C115.641 22.9909 116.225 24.5225 117.392 25.7238Z" fill="black"/>
<path fill-rule="evenodd" clip-rule="evenodd" d="M159.026 12.6816C156.886 10.384 154.304 9.23523 151.281 9.23523C148.138 9.23523 145.714 10.3314 144.008 12.5239V9.99954C144.008 9.92574 143.948 9.86592 143.874 9.86592H138.349C138.276 9.86592 138.216 9.92574 138.216 9.99954V41.2674C138.216 41.3411 138.276 41.401 138.349 41.401H143.874C143.948 41.401 144.008 41.3411 144.008 41.2674V29.733C145.714 31.9255 148.138 33.0217 151.281 33.0217C154.304 33.0217 156.886 31.8729 159.026 29.5754C161.166 27.2778 162.236 24.4621 162.236 21.1284C162.236 17.7947 161.166 14.9791 159.026 12.6816ZM145.758 25.7238C146.926 26.8951 148.407 27.4808 150.203 27.4808C151.999 27.4808 153.488 26.8877 154.67 25.7014C155.853 24.5151 156.444 22.9909 156.444 21.1286C156.444 19.2667 155.853 17.7425 154.67 16.5562C153.488 15.3698 151.999 14.7767 150.203 14.7767C148.407 14.7767 146.926 15.3698 145.758 16.5562C144.591 17.7425 144.007 19.2667 144.007 21.1286C144.007 22.9909 144.591 24.5225 145.758 25.7238Z" fill="black"/>
<path d="M165.818 32.3915C165.744 32.3915 165.685 32.3317 165.685 32.2579V10.0001C165.685 9.92628 165.744 9.86646 165.818 9.86646H171.343C171.417 9.86646 171.476 9.92628 171.476 10.0001V32.2579C171.476 32.3317 171.417 32.3915 171.343 32.3915H165.818Z" fill="black"/>
<path d="M62.4341 17.7272C61.6408 17.3518 61.2442 16.8637 61.2442 16.2631C61.2442 15.6924 61.4911 15.2419 61.9849 14.9115C62.4788 14.5812 63.1 14.416 63.8482 14.416C65.2831 14.416 66.3672 14.9772 67.1 16.0997C67.1512 16.178 67.2507 16.2097 67.3363 16.1718L72.2227 14.0025C72.2955 13.9702 72.3242 13.882 72.2836 13.8134C72.2298 13.7223 72.1588 13.6036 72.1117 13.5293C71.2741 12.2081 70.1906 11.2239 68.832 10.4741C67.3353 9.64818 65.6741 9.23523 63.8482 9.23523C61.4238 9.23523 59.3959 9.87343 57.7646 11.1499C56.1333 12.4263 55.3176 14.1757 55.3176 16.3982C55.3176 17.8698 55.7144 19.0937 56.5075 20.0697C57.3007 21.0459 58.2659 21.7591 59.4034 22.2096C60.5408 22.6601 61.6783 23.0355 62.8157 23.3359C63.953 23.6363 64.9183 23.9742 65.7116 24.3495C66.5047 24.7249 66.9012 25.2131 66.9012 25.8137C66.9012 27.1051 65.8686 27.7509 63.8034 27.7509C61.8374 27.7509 60.4751 27.0217 59.7163 25.5639C59.6512 25.4385 59.5021 25.3812 59.3729 25.4387L54.5002 27.6051C54.4315 27.6355 54.4015 27.7167 54.4341 27.7844C54.4539 27.8252 54.4747 27.868 54.4898 27.8984C56.1927 31.3139 59.2972 33.0217 63.8034 33.0217C66.3776 33.0217 68.5251 32.3986 70.2461 31.152C71.9673 29.9057 72.8279 28.1262 72.8279 25.8137C72.8279 24.282 72.4311 23.0055 71.638 21.9844C70.8447 20.9633 69.8796 20.2349 68.7421 19.7995C67.6047 19.364 66.4672 19.0036 65.33 18.7183C64.1925 18.433 63.2272 18.1026 62.4341 17.7272Z" fill="black"/>
<path fill-rule="evenodd" clip-rule="evenodd" d="M2.57469 2.1118C0.462891 4.22362 0.462891 7.62252 0.462891 14.4203V27.1769C0.462891 33.9747 0.462891 37.3735 2.57469 39.4853C4.68651 41.5972 8.08541 41.5972 14.8832 41.5972H27.6398C34.4376 41.5972 37.8364 41.5972 39.9482 39.4853C42.06 37.3735 42.06 33.9747 42.06 27.1769V14.4203C42.06 7.62252 42.06 4.22362 39.9482 2.1118C37.8364 0 34.4376 0 27.6398 0H14.8832C8.08541 0 4.68651 0 2.57469 2.1118ZM15.1603 12.6178H29.1648C29.3178 12.6178 29.442 12.742 29.442 12.8951V26.8994H22.3013V19.7587H15.1603V12.6178Z" fill="#959595"/>
<path d="M22.3012 19.7587H22.0234V20.0364H22.3012V19.7587Z" fill="black"/>
<path d="M15.1602 19.7587H22.0236C22.1769 19.7587 22.3011 19.8829 22.3011 20.0359V26.8994H15.4375C15.2843 26.8994 15.1602 26.7754 15.1602 26.6222V19.7587Z" fill="#545557"/>
<path d="M22.3008 26.8994H29.4416L22.5374 33.8036C22.4501 33.8909 22.3008 33.8291 22.3008 33.7057V26.8994Z" fill="#545557"/>
<path d="M15.1599 19.7587H8.35377C8.23025 19.7587 8.16839 19.6093 8.25572 19.5219L15.1599 12.6178V19.7587Z" fill="#545557"/>
</svg>
