<svg width="260" height="43" viewBox="0 0 260 43" fill="none" xmlns="http://www.w3.org/2000/svg">
<path fill-rule="evenodd" clip-rule="evenodd" d="M30.7148 40.5208C27.2794 38.3686 24.7473 30.9416 24.7473 22.1154C24.7473 21.7916 24.7487 21.4718 24.7569 21.1534L24.7596 21.1575C15.2023 19.6557 8.29738 15.5412 8.11974 10.6737L8.09241 10.7311C5.75433 13.6377 4.41926 16.9979 4.41926 20.5781C4.41926 31.1138 15.9839 39.746 30.6533 40.5099L30.7148 40.5208ZM0 21.3461C0 9.55865 14.6707 0 32.7673 0C50.8652 0 65.5359 9.55865 65.5359 21.3461C65.5359 33.1349 50.8652 42.6935 32.7673 42.6935C14.6707 42.6935 0 33.1349 0 21.3461ZM32.7687 3.08009C36.2628 3.08009 39.2349 8.38074 40.3363 15.7762L40.3391 15.7639C47.1374 14.7063 51.8955 12.2657 51.8955 9.42474C51.8955 5.61357 43.3317 2.52666 32.7687 2.52666C22.207 2.52666 13.6431 5.61357 13.6431 9.42474C13.6431 12.2657 18.4013 14.7049 25.1982 15.7639L25.2023 15.7762C26.3037 8.38074 29.2759 3.08009 32.7687 3.08009ZM34.884 40.5085C49.5534 39.7446 61.1194 31.1125 61.1194 20.5767C61.1194 16.9965 59.783 13.6363 57.4463 10.7297L57.4176 10.6724C57.2413 15.5398 50.3364 19.6544 40.7777 21.1561L40.7818 21.152C40.7886 21.4704 40.7914 21.7902 40.7914 22.1141C40.7914 30.9403 38.2579 38.3672 34.8239 40.5194L34.884 40.5085ZM32.7687 16.3242C34.2853 16.326 35.8013 16.2613 37.3123 16.1301L37.3109 16.1315C36.5867 11.3925 34.8266 8.04594 32.77 8.04594C30.7134 8.04594 28.9548 11.3925 28.2291 16.1315L28.2278 16.1301C29.7379 16.2606 31.2529 16.3254 32.7687 16.3242ZM32.7687 33.8782C35.3992 33.8782 37.5459 28.404 37.6594 21.5401L37.673 21.5442C34.4108 21.8448 31.1279 21.8448 27.8657 21.5442L27.8793 21.5401C27.9927 28.404 30.1381 33.8782 32.7687 33.8782ZM167.208 21.3461C167.208 12.3367 174.513 5.03145 183.522 5.03145C192.536 5.03145 199.84 12.3367 199.84 21.3461C199.84 30.3581 192.534 37.6607 183.522 37.6607C174.513 37.6607 167.208 30.3581 167.208 21.3461ZM183.522 31.6782C188.554 31.6782 192.634 27.0512 192.634 21.3447C192.634 15.6396 188.554 11.0126 183.522 11.0126C178.491 11.0126 174.413 15.6396 174.413 21.3447C174.413 27.0526 178.492 31.6782 183.522 31.6782ZM218.353 11.8284V36.9201H211.477V11.8284H211.501H201.888V6.15608H227.942V11.8284H218.353ZM236.258 29.9988L236.253 30.0056L233.615 36.9214H225.584L238.278 6.15608H246.835L259.526 36.9214H251.497L248.86 30.0056L248.852 29.9988H236.258ZM242.556 24.8061H246.883L246.88 24.8074L242.585 13.5475H242.526L238.231 24.8074L238.229 24.8061H242.556ZM91.6333 11.8284V36.9201H84.7585V11.8284H84.7831H75.1684V6.15608H101.223V11.8284H91.6333ZM102.982 21.3461C102.982 12.3367 110.287 5.03145 119.299 5.03145C128.31 5.03145 135.615 12.3367 135.615 21.3461C135.615 30.3581 128.31 37.6607 119.299 37.6607C110.287 37.6607 102.982 30.3581 102.982 21.3461ZM119.299 31.6782C124.33 31.6782 128.41 27.0512 128.41 21.3447C128.41 15.6396 124.33 11.0126 119.299 11.0126C114.268 11.0126 110.189 15.6396 110.189 21.3447C110.189 27.0526 114.268 31.6782 119.299 31.6782ZM151.409 36.9201H154.895V25.2392L166.889 6.15608H158.861L151.409 19.0873L143.961 6.15608H135.933L147.925 25.2392V36.9201H151.409Z" fill="#181818"/>
</svg>
