<svg width="218" height="43" viewBox="0 0 218 43" fill="none" xmlns="http://www.w3.org/2000/svg">
<path fill-rule="evenodd" clip-rule="evenodd" d="M-11.2852 40.5208C-14.7206 38.3686 -17.2527 30.9416 -17.2527 22.1154C-17.2527 21.7916 -17.2513 21.4718 -17.2431 21.1534L-17.2404 21.1575C-26.7977 19.6557 -33.7026 15.5412 -33.8803 10.6737L-33.9076 10.7311C-36.2457 13.6377 -37.5807 16.9979 -37.5807 20.5781C-37.5807 31.1138 -26.0161 39.746 -11.3467 40.5099L-11.2852 40.5208ZM-42 21.3461C-42 9.55865 -27.3293 0 -9.23272 0C8.8652 0 23.5359 9.55865 23.5359 21.3461C23.5359 33.1349 8.8652 42.6935 -9.23272 42.6935C-27.3293 42.6935 -42 33.1349 -42 21.3461ZM-9.23135 3.08009C-5.73721 3.08009 -2.76508 8.38074 -1.66368 15.7762L-1.66094 15.7639C5.13739 14.7063 9.89554 12.2657 9.89554 9.42474C9.89554 5.61357 1.33169 2.52666 -9.23135 2.52666C-19.793 2.52666 -28.3569 5.61357 -28.3569 9.42474C-28.3569 12.2657 -23.5987 14.7049 -16.8018 15.7639L-16.7977 15.7762C-15.6963 8.38074 -12.7241 3.08009 -9.23135 3.08009ZM-7.11601 40.5085C7.55336 39.7446 19.1194 31.1125 19.1194 20.5767C19.1194 16.9965 17.783 13.6363 15.4463 10.7297L15.4176 10.6724C15.2413 15.5398 8.33636 19.6544 -1.2223 21.1561L-1.2182 21.152C-1.21137 21.4704 -1.20863 21.7902 -1.20863 22.1141C-1.20863 30.9403 -3.74212 38.3672 -7.17613 40.5194L-7.11601 40.5085ZM-9.23135 16.3242C-7.7147 16.326 -6.19871 16.2613 -4.68774 16.1301L-4.68911 16.1315C-5.41335 11.3925 -7.1734 8.04594 -9.22998 8.04594C-11.2866 8.04594 -13.0452 11.3925 -13.7709 16.1315L-13.7722 16.1301C-12.2621 16.2606 -10.7471 16.3254 -9.23135 16.3242ZM-9.23135 33.8782C-6.60084 33.8782 -4.45407 28.404 -4.34065 21.5401L-4.32698 21.5442C-7.5892 21.8448 -10.8721 21.8448 -14.1343 21.5442L-14.1207 21.5401C-14.0073 28.404 -11.8619 33.8782 -9.23135 33.8782ZM125.208 21.3461C125.208 12.3367 132.513 5.03145 141.522 5.03145C150.536 5.03145 157.84 12.3367 157.84 21.3461C157.84 30.3581 150.534 37.6607 141.522 37.6607C132.513 37.6607 125.208 30.3581 125.208 21.3461ZM141.522 31.6782C146.554 31.6782 150.634 27.0512 150.634 21.3447C150.634 15.6396 146.554 11.0126 141.522 11.0126C136.491 11.0126 132.413 15.6396 132.413 21.3447C132.413 27.0526 136.492 31.6782 141.522 31.6782ZM176.353 11.8284V36.9201H169.477V11.8284H169.501H159.888V6.15608H185.942V11.8284H176.353ZM194.258 29.9988L194.253 30.0056L191.615 36.9214H183.584L196.278 6.15608H204.835L217.526 36.9214H209.497L206.86 30.0056L206.852 29.9988H194.258ZM200.556 24.8061H204.883L204.88 24.8074L200.585 13.5475H200.526L196.231 24.8074L196.229 24.8061H200.556ZM49.6333 11.8284V36.9201H42.7585V11.8284H42.7831H33.1684V6.15608H59.2234V11.8284H49.6333ZM60.9821 21.3461C60.9821 12.3367 68.2874 5.03145 77.2995 5.03145C86.3102 5.03145 93.6155 12.3367 93.6155 21.3461C93.6155 30.3581 86.3102 37.6607 77.2995 37.6607C68.2874 37.6607 60.9821 30.3581 60.9821 21.3461ZM77.2995 31.6782C82.3296 31.6782 86.4099 27.0512 86.4099 21.3447C86.4099 15.6396 82.3296 11.0126 77.2995 11.0126C72.268 11.0126 68.189 15.6396 68.189 21.3447C68.189 27.0526 72.268 31.6782 77.2995 31.6782ZM109.409 36.9201H112.895V25.2392L124.889 6.15608H116.861L109.409 19.0873L101.961 6.15608H93.9325L105.925 25.2392V36.9201H109.409Z" fill="#181818"/>
</svg>
