<svg width="84" height="100" viewBox="0 0 84 100" fill="none" xmlns="http://www.w3.org/2000/svg">
<path d="M3.34132 38.7858C3.35708 17.3302 20.58 -0.0318132 41.8054 4.37697e-05C63.0307 0.0319007 80.2064 17.4417 80.1749 38.8814C80.1433 60.3211 62.9519 77.6672 41.7581 77.6672C20.5327 77.6513 3.32556 60.2574 3.34132 38.7858ZM40.9702 52.0861C37.992 52.1817 35.0139 51.9109 32.0987 51.2897C29.94 50.8437 28.1436 49.3783 27.2454 47.3394C26.3788 45.3165 25.9533 42.1945 25.9848 37.9735C26.0006 35.7754 26.1424 33.5613 26.3945 31.3791C26.6467 29.2447 26.8988 27.4926 27.1509 26.1068L27.4188 24.7369C27.4188 24.6892 27.4188 24.6573 27.4188 24.6095C27.4188 24.2272 27.1509 23.8927 26.7727 23.829L21.8091 23.0485H21.6988C21.3364 23.0485 21.0212 23.3034 20.9424 23.6538C20.8636 23.9724 20.8006 24.2113 20.6588 24.9759C20.3752 26.4572 20.1073 27.8908 19.8237 29.9933C19.5243 32.2711 19.3352 34.5648 19.2721 36.8585C19.1618 38.4673 19.1618 40.0601 19.2721 41.6689C19.3824 45.9218 20.1073 49.3146 21.4309 51.8472C22.7545 54.3957 25.0079 56.2116 28.1751 57.3266C31.3424 58.4416 35.7545 58.9831 41.4114 58.9672H42.1205C47.7774 58.9831 52.1895 58.4416 55.3568 57.3266C58.5241 56.2116 60.7616 54.3798 62.101 51.8472C63.4246 49.2986 64.1495 45.9059 64.2755 41.6689C64.3858 40.0601 64.3858 38.4673 64.2755 36.8585C64.2125 34.5648 64.0234 32.2711 63.724 29.9933C63.4404 27.9226 63.1725 26.4891 62.8889 24.9759C62.7313 24.2113 62.684 23.9724 62.6052 23.6538C62.5265 23.3034 62.2113 23.0485 61.8489 23.0485H61.7228L56.7592 23.829C56.381 23.8927 56.1132 24.2272 56.1132 24.6095C56.1132 24.6573 56.1132 24.6892 56.1132 24.7369L56.381 26.1068C56.6332 27.4926 56.8853 29.2447 57.1374 31.3791C57.3895 33.5772 57.5313 35.7754 57.5471 37.9735C57.5944 42.1945 57.1689 45.3006 56.2865 47.3394C55.4041 49.3623 53.6077 50.8437 51.4647 51.2897C48.5496 51.9109 45.5714 52.1817 42.5932 52.102L40.9702 52.0861Z" fill="#F0F0F0"/>
<path d="M73.918 94.2646C73.918 90.9037 74.8634 88.5463 78.7082 88.5463C82.5531 88.5463 83.4985 90.9037 83.4985 94.2646C83.4985 97.6255 82.5531 99.9829 78.7082 99.9829C74.8634 99.9829 73.918 97.6255 73.918 94.2646ZM81.0561 94.2646C81.0561 91.9231 80.7567 90.601 78.7082 90.601C76.6598 90.601 76.3604 91.939 76.3604 94.2646C76.3604 96.5901 76.6598 97.9281 78.7082 97.9281C80.7567 97.9281 81.0561 96.5901 81.0561 94.2646Z" fill="#F0F0F0"/>
<path d="M7.5636 99.5529C7.62663 99.6485 7.72117 99.7122 7.84723 99.7122H8.74541C8.91874 99.7122 9.06056 99.5689 9.06056 99.3936V89.1357C9.06056 88.9605 8.91874 88.8171 8.74541 88.8171H6.94905C6.77572 88.8171 6.6339 88.9605 6.6339 89.1357V97.2752C5.87754 97.7052 5.01088 97.9282 4.12846 97.9123C2.99392 97.9123 2.42665 97.4026 2.42665 96.3035V89.1357C2.42665 88.9605 2.28484 88.8171 2.1115 88.8171H0.31515C0.141817 88.8171 0 88.9605 0 89.1357V96.5106C0 98.5972 0.976965 99.983 3.70301 99.983C4.94785 99.9671 6.17694 99.5688 7.20117 98.8521L7.51632 99.5688L7.5636 99.5529Z" fill="#F0F0F0"/>
<path d="M27.6854 92.0187C27.6854 89.948 26.6769 88.5463 24.1084 88.5463C22.8793 88.5463 21.6818 88.9285 20.6575 89.6294C20.2005 88.9604 19.3339 88.5463 17.9 88.5463C16.7181 88.5622 15.5836 88.9604 14.6539 89.6772L14.3388 88.9604C14.2757 88.8648 14.1812 88.8011 14.0551 88.8011H13.1569C12.9836 88.8011 12.8418 88.9445 12.8418 89.1197V99.3776C12.8418 99.5528 12.9836 99.6962 13.1569 99.6962H14.9375C15.1109 99.6962 15.2527 99.5528 15.2527 99.3776V91.2541C15.9303 90.84 16.7181 90.617 17.5218 90.617C18.4987 90.617 19.0502 90.9833 19.0502 92.0187V99.3935C19.0502 99.5688 19.1921 99.7121 19.3654 99.7121H21.146C21.3193 99.7121 21.4611 99.5688 21.4611 99.3935V91.2541C22.1387 90.824 22.9266 90.601 23.7302 90.617C24.6757 90.617 25.2587 90.9833 25.2587 92.0187V99.3935C25.2587 99.5688 25.4005 99.7121 25.5739 99.7121H27.3544C27.5278 99.7121 27.6696 99.5688 27.6696 99.3935L27.6854 92.0187Z" fill="#F0F0F0"/>
<path d="M33.2004 98.852C34.2089 99.6165 35.438 100.015 36.6986 99.9829C39.8501 99.9829 41.0161 97.8485 41.0161 94.2646C41.0161 90.6807 39.8501 88.5463 36.6986 88.5463C35.6744 88.5463 34.6659 88.8489 33.7992 89.3905V86.0933C33.7992 85.9181 33.6732 85.7747 33.4998 85.7588C33.4998 85.7588 33.4998 85.7588 33.4841 85.7588H31.6877C31.5144 85.7588 31.3726 85.9021 31.3726 86.0774V99.3935C31.3726 99.5688 31.5144 99.7121 31.6877 99.7121H32.5859C32.6962 99.7121 32.8065 99.6484 32.8695 99.5528L33.2004 98.852ZM36.1313 97.9122C35.3119 97.9122 34.5083 97.6892 33.7992 97.2751V91.2541C34.5083 90.84 35.3119 90.617 36.1313 90.617C38.2428 90.617 38.5737 92.2576 38.5737 94.2646C38.5737 96.2716 38.2586 97.9122 36.1313 97.9122Z" fill="#F0F0F0"/>
<path d="M49.9509 90.6966C49.6672 90.6648 49.3994 90.6329 49.1157 90.6489C48.1545 90.6011 47.1933 90.84 46.3582 91.3019V99.3936C46.3582 99.5688 46.2163 99.7121 46.043 99.7121H44.2624C44.0891 99.7121 43.9473 99.5688 43.9473 99.3936V89.1356C43.9473 88.9604 44.0891 88.8171 44.2624 88.8171H45.1606C45.2709 88.8171 45.3812 88.8808 45.4442 88.9764L45.7594 89.6931C46.7363 88.9445 47.9339 88.5463 49.163 88.5622C49.4466 88.5622 49.7303 88.5941 50.0139 88.6419C50.1715 88.6419 50.3133 88.9127 50.3133 89.0879V90.394C50.3133 90.5692 50.1715 90.7126 49.9981 90.7126L49.9509 90.6966Z" fill="#F0F0F0"/>
<path d="M56.1277 94.6787C55.0562 94.8061 54.4259 95.2203 54.4259 96.3512C54.4259 97.1795 54.7883 97.96 56.0804 97.96C56.8998 97.96 57.7192 97.7211 58.3968 97.2432V94.4239L56.1277 94.6787ZM58.9956 98.852C58.0659 99.5847 56.9156 99.9829 55.7338 99.9829C52.9447 99.9829 52.0308 98.2467 52.0308 96.4946C52.0308 94.1371 53.5435 93.1337 55.9859 92.9425L58.3968 92.7514V92.2098C58.3968 91.0948 57.8768 90.6647 56.2853 90.6647C55.2768 90.6647 54.2841 90.84 53.3386 91.1585C53.3071 91.1585 53.2756 91.1585 53.2441 91.1585C53.0708 91.1585 52.9289 91.0152 52.9289 90.84V89.3905C52.9289 89.2471 53.0077 89.1356 53.1338 89.0878C54.2053 88.7215 55.3398 88.5463 56.4586 88.5463C60.004 88.5463 60.8077 90.1072 60.8077 92.4328V99.3935C60.8077 99.5688 60.6659 99.7121 60.4925 99.7121H59.5944C59.4841 99.7121 59.3737 99.6484 59.3107 99.5528L58.9956 98.852Z" fill="#F0F0F0"/>
<path d="M71.2861 97.466C71.3176 97.466 71.3492 97.466 71.3807 97.466C71.554 97.466 71.6958 97.6094 71.6958 97.7846V99.2341C71.6958 99.3615 71.617 99.4889 71.5067 99.5367C70.6085 99.8553 69.6789 100.015 68.7334 99.9986C64.9201 99.9986 63.7383 97.689 63.7383 94.2803C63.7383 90.8716 64.9043 88.562 68.7334 88.562C69.6789 88.5301 70.6085 88.6894 71.491 89.008C71.617 89.0558 71.6958 89.1832 71.6958 89.3106V90.7601C71.6958 90.9353 71.554 91.0787 71.3807 91.0787C71.3492 91.0787 71.3176 91.0787 71.2704 91.0787C70.4982 90.8238 69.6789 90.7123 68.8595 90.7283C66.7637 90.7283 66.1649 92.1777 66.1649 94.2803C66.1649 96.3829 66.7637 97.8323 68.8595 97.8323C69.6789 97.8483 70.4825 97.7209 71.2704 97.466" fill="#F0F0F0"/>
</svg>
