<svg width="45" height="54" viewBox="0 0 45 54" fill="none" xmlns="http://www.w3.org/2000/svg">
<path d="M1.80079 20.9029C1.80928 9.3398 11.0913 -0.0171451 22.5303 2.35889e-05C33.9693 0.0171923 43.2258 9.39989 43.2088 20.9544C43.1918 32.509 33.9268 41.8573 22.5048 41.8573C11.0658 41.8487 1.79229 32.4746 1.80079 20.9029ZM22.0802 28.0709C20.4752 28.1224 18.8701 27.9764 17.2991 27.6416C16.1356 27.4013 15.1675 26.6115 14.6835 25.5127C14.2164 24.4225 13.9871 22.74 14.0041 20.4651C14.0126 19.2805 14.089 18.0873 14.2249 16.9112C14.3608 15.7609 14.4966 14.8166 14.6325 14.0698L14.7769 13.3315C14.7769 13.3058 14.7769 13.2886 14.7769 13.2628C14.7769 13.0568 14.6325 12.8766 14.4287 12.8422L11.7537 12.4216H11.6942C11.4989 12.4216 11.329 12.5589 11.2866 12.7478C11.2441 12.9195 11.2102 13.0482 11.1337 13.4603C10.9809 14.2586 10.8365 15.0312 10.6836 16.1644C10.5223 17.3919 10.4204 18.6281 10.3864 19.8642C10.327 20.7312 10.327 21.5897 10.3864 22.4567C10.4459 24.7487 10.8365 26.5772 11.5498 27.9421C12.2632 29.3156 13.4776 30.2942 15.1845 30.8951C16.8914 31.496 19.2693 31.7879 22.318 31.7793H22.7001C25.7488 31.7879 28.1266 31.496 29.8336 30.8951C31.5405 30.2942 32.7464 29.307 33.4682 27.9421C34.1816 26.5686 34.5722 24.7401 34.6402 22.4567C34.6996 21.5897 34.6996 20.7312 34.6402 19.8642C34.6062 18.6281 34.5043 17.3919 34.3429 16.1644C34.1901 15.0484 34.0457 14.2758 33.8929 13.4603C33.8079 13.0482 33.7825 12.9195 33.74 12.7478C33.6975 12.5589 33.5277 12.4216 33.3324 12.4216H33.2644L30.5894 12.8422C30.3856 12.8766 30.2412 13.0568 30.2412 13.2628C30.2412 13.2886 30.2412 13.3058 30.2412 13.3315L30.3856 14.0698C30.5214 14.8166 30.6573 15.7609 30.7932 16.9112C30.9291 18.0958 31.0055 19.2805 31.014 20.4651C31.0395 22.74 30.8102 24.4139 30.3346 25.5127C29.8591 26.6029 28.8909 27.4013 27.736 27.6416C26.1649 27.9764 24.5599 28.1224 22.9549 28.0794L22.0802 28.0709Z" fill="#363636"/>
<path d="M39.8369 50.8021C39.8369 48.9908 40.3464 47.7203 42.4185 47.7203C44.4906 47.7203 45.0002 48.9908 45.0002 50.8021C45.0002 52.6134 44.4906 53.8839 42.4185 53.8839C40.3464 53.8839 39.8369 52.6134 39.8369 50.8021ZM43.6839 50.8021C43.6839 49.5402 43.5225 48.8277 42.4185 48.8277C41.3146 48.8277 41.1532 49.5488 41.1532 50.8021C41.1532 52.0554 41.3146 52.7765 42.4185 52.7765C43.5225 52.7765 43.6839 52.0554 43.6839 50.8021Z" fill="#363636"/>
<path d="M4.07626 53.6522C4.11023 53.7037 4.16118 53.738 4.22912 53.738H4.71318C4.80659 53.738 4.88302 53.6608 4.88302 53.5663V48.038C4.88302 47.9436 4.80659 47.8663 4.71318 47.8663H3.74506C3.65165 47.8663 3.57522 47.9436 3.57522 48.038V52.4246C3.16759 52.6564 2.70052 52.7766 2.22496 52.768C1.61352 52.768 1.3078 52.4933 1.3078 51.901V48.038C1.3078 47.9436 1.23137 47.8663 1.13796 47.8663H0.169844C0.0764299 47.8663 0 47.9436 0 48.038V52.0126C0 53.1371 0.526517 53.884 1.99567 53.884C2.66655 53.8754 3.32895 53.6608 3.88094 53.2745L4.05078 53.6608L4.07626 53.6522Z" fill="#363636"/>
<path d="M14.9206 49.5917C14.9206 48.4758 14.3771 47.7203 12.9928 47.7203C12.3304 47.7203 11.685 47.9264 11.133 48.3041C10.8868 47.9435 10.4197 47.7203 9.6469 47.7203C9.00998 47.7289 8.39854 47.9435 7.8975 48.3298L7.72766 47.9435C7.69369 47.892 7.64274 47.8577 7.5748 47.8577H7.09074C6.99733 47.8577 6.9209 47.9349 6.9209 48.0294V53.5577C6.9209 53.6521 6.99733 53.7294 7.09074 53.7294H8.05036C8.14378 53.7294 8.22021 53.6521 8.22021 53.5577V49.1797C8.58537 48.9565 9.00998 48.8363 9.44308 48.8363C9.9696 48.8363 10.2668 49.0337 10.2668 49.5917V53.5663C10.2668 53.6607 10.3433 53.738 10.4367 53.738H11.3963C11.4897 53.738 11.5661 53.6607 11.5661 53.5663V49.1797C11.9313 48.9479 12.3559 48.8277 12.789 48.8363C13.2985 48.8363 13.6128 49.0337 13.6128 49.5917V53.5663C13.6128 53.6607 13.6892 53.738 13.7826 53.738H14.7422C14.8356 53.738 14.9121 53.6607 14.9121 53.5663L14.9206 49.5917Z" fill="#363636"/>
<path d="M17.8933 53.2745C18.4368 53.6865 19.0992 53.9011 19.7786 53.884C21.477 53.884 22.1054 52.7337 22.1054 50.8022C22.1054 48.8707 21.477 47.7204 19.7786 47.7204C19.2266 47.7204 18.6831 47.8835 18.216 48.1754V46.3984C18.216 46.304 18.1481 46.2267 18.0547 46.2181C18.0547 46.2181 18.0547 46.2181 18.0462 46.2181H17.078C16.9846 46.2181 16.9082 46.2954 16.9082 46.3898V53.5663C16.9082 53.6608 16.9846 53.738 17.078 53.738H17.5621C17.6215 53.738 17.681 53.7037 17.715 53.6522L17.8933 53.2745ZM19.4729 52.768C19.0313 52.768 18.5982 52.6478 18.216 52.4246V49.1797C18.5982 48.9565 19.0313 48.8364 19.4729 48.8364C20.6108 48.8364 20.7891 49.7206 20.7891 50.8022C20.7891 51.8838 20.6193 52.768 19.4729 52.768Z" fill="#363636"/>
<path d="M26.9201 48.8793C26.7672 48.8621 26.6229 48.845 26.47 48.8536C25.952 48.8278 25.434 48.9566 24.9839 49.2055V53.5664C24.9839 53.6608 24.9075 53.7381 24.814 53.7381H23.8544C23.761 53.7381 23.6846 53.6608 23.6846 53.5664V48.038C23.6846 47.9436 23.761 47.8664 23.8544 47.8664H24.3385C24.3979 47.8664 24.4574 47.9007 24.4913 47.9522L24.6612 48.3385C25.1877 47.935 25.8331 47.7204 26.4955 47.729C26.6484 47.729 26.8012 47.7462 26.9541 47.7719C27.039 47.7719 27.1154 47.9179 27.1154 48.0123V48.7162C27.1154 48.8106 27.039 48.8879 26.9456 48.8879L26.9201 48.8793Z" fill="#363636"/>
<path d="M30.249 51.0253C29.6715 51.094 29.3318 51.3172 29.3318 51.9267C29.3318 52.3731 29.5272 52.7937 30.2235 52.7937C30.6651 52.7937 31.1067 52.6649 31.4719 52.4074V50.888L30.249 51.0253ZM31.7946 53.2744C31.2935 53.6693 30.6736 53.8839 30.0367 53.8839C28.5336 53.8839 28.041 52.9482 28.041 52.0039C28.041 50.7334 28.8563 50.1926 30.1726 50.0896L31.4719 49.9866V49.6947C31.4719 49.0938 31.1916 48.8621 30.3339 48.8621C29.7904 48.8621 29.2554 48.9565 28.7459 49.1282C28.7289 49.1282 28.7119 49.1282 28.6949 49.1282C28.6015 49.1282 28.5251 49.0509 28.5251 48.9565V48.1753C28.5251 48.098 28.5675 48.038 28.6355 48.0122C29.2129 47.8148 29.8244 47.7203 30.4273 47.7203C32.3381 47.7203 32.7712 48.5616 32.7712 49.8149V53.5663C32.7712 53.6607 32.6947 53.738 32.6013 53.738H32.1173C32.0578 53.738 31.9984 53.7036 31.9644 53.6521L31.7946 53.2744Z" fill="#363636"/>
<path d="M38.4184 52.5275C38.4353 52.5275 38.4523 52.5275 38.4693 52.5275C38.5627 52.5275 38.6392 52.6048 38.6392 52.6992V53.4804C38.6392 53.549 38.5967 53.6177 38.5372 53.6435C38.0532 53.8151 37.5522 53.901 37.0426 53.8924C34.9875 53.8924 34.3506 52.6477 34.3506 50.8106C34.3506 48.9736 34.979 47.7288 37.0426 47.7288C37.5522 47.7117 38.0532 47.7975 38.5288 47.9692C38.5967 47.995 38.6392 48.0636 38.6392 48.1323V48.9135C38.6392 49.0079 38.5627 49.0852 38.4693 49.0852C38.4523 49.0852 38.4353 49.0852 38.4099 49.0852C37.9937 48.9478 37.5521 48.8877 37.1106 48.8963C35.9811 48.8963 35.6584 49.6775 35.6584 50.8106C35.6584 51.9438 35.9811 52.7249 37.1106 52.7249C37.5521 52.7335 37.9853 52.6648 38.4099 52.5275" fill="#363636"/>
</svg>
